<svg xmlns="http://www.w3.org/2000/svg" xmlns:xlink="http://www.w3.org/1999/xlink" width="700" zoomAndPan="magnify" viewBox="0 0 525 225" height="300" preserveAspectRatio="xMidYMid meet" version="1.0"><defs><g/></defs><g fill="#ffffff" fill-opacity="1"><g transform="translate(4.208057, 167.524935)"><g><path d="M 50.96875 -74.953125 C 50.632812 -76.117188 49.988281 -76.910156 49.03125 -77.328125 C 48.070312 -77.742188 47.03125 -77.972656 45.90625 -78.015625 C 44.78125 -78.054688 43.675781 -77.992188 42.59375 -77.828125 C 41.507812 -77.660156 40.675781 -77.578125 40.09375 -77.578125 C 38.6875 -77.660156 36.234375 -77.828125 32.734375 -78.078125 C 29.234375 -78.328125 25.460938 -78.597656 21.421875 -78.890625 C 17.378906 -79.179688 13.609375 -79.472656 10.109375 -79.765625 C 6.617188 -80.054688 4.164062 -80.242188 2.75 -80.328125 C 2.75 -80.492188 2.707031 -80.910156 2.625 -81.578125 C 2.539062 -82.242188 2.5 -82.703125 2.5 -82.953125 C 2.5 -84.117188 2.601562 -85.160156 2.8125 -86.078125 C 3.019531 -86.992188 3.832031 -87.703125 5.25 -88.203125 C 13.070312 -88.035156 20.789062 -88.078125 28.40625 -88.328125 C 36.03125 -88.578125 43.65625 -88.925781 51.28125 -89.375 C 58.90625 -89.832031 66.523438 -90.269531 74.140625 -90.6875 C 81.765625 -91.101562 89.445312 -91.3125 97.1875 -91.3125 C 97.1875 -88.15625 96.4375 -85.847656 94.9375 -84.390625 C 93.4375 -82.929688 91.582031 -81.953125 89.375 -81.453125 C 87.175781 -80.953125 84.742188 -80.742188 82.078125 -80.828125 C 79.410156 -80.910156 76.847656 -80.867188 74.390625 -80.703125 C 71.929688 -80.535156 69.765625 -80.054688 67.890625 -79.265625 C 66.015625 -78.472656 64.785156 -77.035156 64.203125 -74.953125 C 64.117188 -74.453125 64.035156 -73.492188 63.953125 -72.078125 C 63.878906 -70.660156 63.820312 -69.160156 63.78125 -67.578125 C 63.738281 -65.992188 63.695312 -64.515625 63.65625 -63.140625 C 63.613281 -61.773438 63.59375 -60.800781 63.59375 -60.21875 C 63.59375 -55.46875 64.191406 -50.78125 65.390625 -46.15625 C 66.597656 -41.53125 67.929688 -36.945312 69.390625 -32.40625 C 70.847656 -27.875 72.179688 -23.335938 73.390625 -18.796875 C 74.597656 -14.265625 75.203125 -9.664062 75.203125 -5 C 75.203125 -1.5 73.203125 0.25 69.203125 0.25 C 66.785156 0.25 64.640625 -1.414062 62.765625 -4.75 C 60.898438 -8.082031 59.28125 -12.328125 57.90625 -17.484375 C 56.53125 -22.648438 55.40625 -28.269531 54.53125 -34.34375 C 53.65625 -40.425781 52.945312 -46.257812 52.40625 -51.84375 C 51.863281 -57.425781 51.488281 -62.335938 51.28125 -66.578125 C 51.070312 -70.828125 50.96875 -73.617188 50.96875 -74.953125 Z M 50.96875 -74.953125 "/></g></g></g><g fill="#ffffff" fill-opacity="1"><g transform="translate(105.895949, 167.524935)"><g><path d="M 8.125 -99.0625 C 7.707031 -99.0625 7.101562 -99.164062 6.3125 -99.375 C 5.519531 -99.582031 4.707031 -99.832031 3.875 -100.125 C 3.039062 -100.414062 2.25 -100.707031 1.5 -101 C 0.75 -101.289062 0.25 -101.519531 0 -101.6875 C -0.0820312 -101.851562 -0.125 -102.019531 -0.125 -102.1875 C -0.207031 -102.351562 -0.25 -102.5625 -0.25 -102.8125 C -0.25 -103.976562 0.207031 -104.976562 1.125 -105.8125 C 2.039062 -106.644531 3.101562 -107.332031 4.3125 -107.875 C 5.519531 -108.414062 6.707031 -108.832031 7.875 -109.125 C 9.039062 -109.414062 9.957031 -109.601562 10.625 -109.6875 L 13.359375 -109.6875 C 15.359375 -109.519531 17.898438 -109.269531 20.984375 -108.9375 C 24.066406 -108.601562 27.335938 -108.25 30.796875 -107.875 C 34.253906 -107.5 37.75 -107.125 41.28125 -106.75 C 44.820312 -106.375 48.03125 -106 50.90625 -105.625 C 53.78125 -105.25 56.195312 -104.957031 58.15625 -104.75 C 60.113281 -104.539062 61.257812 -104.4375 61.59375 -104.4375 C 62.257812 -104.351562 63.109375 -104.207031 64.140625 -104 C 65.179688 -103.789062 66.242188 -103.457031 67.328125 -103 C 68.410156 -102.539062 69.410156 -102 70.328125 -101.375 C 71.242188 -100.75 71.910156 -99.976562 72.328125 -99.0625 C 71.660156 -97.726562 71.078125 -96.707031 70.578125 -96 C 70.078125 -95.289062 69.535156 -94.75 68.953125 -94.375 C 68.367188 -94 67.765625 -93.8125 67.140625 -93.8125 C 66.515625 -93.8125 65.742188 -93.8125 64.828125 -93.8125 C 61.335938 -93.8125 57.820312 -93.9375 54.28125 -94.1875 C 50.738281 -94.4375 47.21875 -94.6875 43.71875 -94.9375 C 40.21875 -95.1875 36.695312 -95.4375 33.15625 -95.6875 C 29.625 -95.9375 26.066406 -96.0625 22.484375 -96.0625 C 22.484375 -94.5625 22.296875 -92.3125 21.921875 -89.3125 C 21.546875 -86.320312 21.253906 -83.160156 21.046875 -79.828125 C 20.835938 -76.492188 20.921875 -73.179688 21.296875 -69.890625 C 21.671875 -66.597656 22.609375 -63.832031 24.109375 -61.59375 C 27.023438 -63.332031 30.066406 -64.242188 33.234375 -64.328125 C 36.398438 -64.410156 39.601562 -64.453125 42.84375 -64.453125 C 44.257812 -64.453125 46.050781 -64.453125 48.21875 -64.453125 C 50.382812 -64.453125 52.488281 -64.203125 54.53125 -63.703125 C 56.570312 -63.210938 58.300781 -62.382812 59.71875 -61.21875 C 61.132812 -60.050781 61.84375 -58.300781 61.84375 -55.96875 C 61.84375 -54.300781 61.507812 -53.050781 60.84375 -52.21875 C 60.175781 -51.382812 58.632812 -50.96875 56.21875 -50.96875 C 55.96875 -50.96875 55.445312 -51.09375 54.65625 -51.34375 C 53.863281 -51.59375 53.03125 -51.882812 52.15625 -52.21875 C 51.28125 -52.550781 50.46875 -52.84375 49.71875 -53.09375 C 48.96875 -53.34375 48.46875 -53.46875 48.21875 -53.46875 C 48.132812 -53.46875 47.820312 -53.488281 47.28125 -53.53125 C 46.738281 -53.570312 46.09375 -53.59375 45.34375 -53.59375 C 44.59375 -53.59375 43.863281 -53.613281 43.15625 -53.65625 C 42.445312 -53.695312 41.882812 -53.71875 41.46875 -53.71875 C 39.550781 -53.71875 37.695312 -53.59375 35.90625 -53.34375 C 34.125 -53.09375 32.566406 -52.59375 31.234375 -51.84375 C 29.898438 -51.09375 28.835938 -50.007812 28.046875 -48.59375 C 27.253906 -47.175781 26.859375 -45.34375 26.859375 -43.09375 C 26.859375 -42.34375 26.941406 -41.050781 27.109375 -39.21875 C 27.273438 -37.394531 27.503906 -35.378906 27.796875 -33.171875 C 28.085938 -30.960938 28.484375 -28.691406 28.984375 -26.359375 C 29.484375 -24.023438 30.148438 -21.878906 30.984375 -19.921875 C 31.816406 -17.960938 32.753906 -16.335938 33.796875 -15.046875 C 34.835938 -13.753906 36.109375 -13.109375 37.609375 -13.109375 C 37.773438 -13.109375 38.1875 -13.148438 38.84375 -13.234375 C 39.507812 -13.316406 39.925781 -13.359375 40.09375 -13.359375 C 42.925781 -15.273438 45.78125 -17.359375 48.65625 -19.609375 C 51.53125 -21.859375 54.507812 -23.960938 57.59375 -25.921875 C 60.675781 -27.878906 63.878906 -29.546875 67.203125 -30.921875 C 70.535156 -32.296875 73.992188 -32.984375 77.578125 -32.984375 L 77.578125 -26.859375 C 77.578125 -26.523438 76.765625 -25.609375 75.140625 -24.109375 C 73.515625 -22.609375 71.390625 -20.859375 68.765625 -18.859375 C 66.140625 -16.859375 63.203125 -14.734375 59.953125 -12.484375 C 56.710938 -10.242188 53.46875 -8.1875 50.21875 -6.3125 C 46.96875 -4.4375 43.863281 -2.875 40.90625 -1.625 C 37.957031 -0.375 35.484375 0.25 33.484375 0.25 C 30.648438 0.25 28.128906 -1.019531 25.921875 -3.5625 C 23.710938 -6.101562 21.734375 -9.472656 19.984375 -13.671875 C 18.234375 -17.878906 16.773438 -22.734375 15.609375 -28.234375 C 14.441406 -33.734375 13.421875 -39.394531 12.546875 -45.21875 C 11.679688 -51.050781 10.976562 -56.859375 10.4375 -62.640625 C 9.894531 -68.429688 9.457031 -73.785156 9.125 -78.703125 C 8.789062 -83.617188 8.5625 -87.882812 8.4375 -91.5 C 8.3125 -95.125 8.207031 -97.644531 8.125 -99.0625 Z M 8.125 -99.0625 "/></g></g></g><g fill="#ffffff" fill-opacity="1"><g transform="translate(188.845286, 167.524935)"><g><path d="M 2.5 -42.84375 C 2.5 -45.675781 2.894531 -48.757812 3.6875 -52.09375 C 4.476562 -55.425781 5.582031 -58.773438 7 -62.140625 C 8.414062 -65.515625 10.117188 -68.804688 12.109375 -72.015625 C 14.109375 -75.222656 16.359375 -78.054688 18.859375 -80.515625 C 21.359375 -82.972656 24.066406 -84.929688 26.984375 -86.390625 C 29.898438 -87.847656 32.984375 -88.578125 36.234375 -88.578125 C 38.890625 -88.578125 41.382812 -88.222656 43.71875 -87.515625 C 46.050781 -86.804688 48.050781 -85.742188 49.71875 -84.328125 C 51.382812 -82.910156 52.695312 -81.140625 53.65625 -79.015625 C 54.613281 -76.890625 55.09375 -74.367188 55.09375 -71.453125 C 53.257812 -71.453125 51.78125 -71.929688 50.65625 -72.890625 C 49.53125 -73.847656 48.488281 -74.910156 47.53125 -76.078125 C 46.570312 -77.242188 45.53125 -78.285156 44.40625 -79.203125 C 43.28125 -80.117188 41.84375 -80.578125 40.09375 -80.578125 C 37.519531 -80.578125 35.046875 -79.910156 32.671875 -78.578125 C 30.296875 -77.242188 28.085938 -75.453125 26.046875 -73.203125 C 24.003906 -70.953125 22.210938 -68.410156 20.671875 -65.578125 C 19.128906 -62.753906 17.796875 -59.90625 16.671875 -57.03125 C 15.546875 -54.15625 14.671875 -51.34375 14.046875 -48.59375 C 13.421875 -45.84375 13.109375 -43.46875 13.109375 -41.46875 C 13.109375 -37.144531 13.753906 -33.085938 15.046875 -29.296875 C 16.335938 -25.503906 18.191406 -22.210938 20.609375 -19.421875 C 23.023438 -16.628906 26.023438 -14.441406 29.609375 -12.859375 C 33.191406 -11.285156 37.269531 -10.5 41.84375 -10.5 C 44.757812 -10.5 47.53125 -10.929688 50.15625 -11.796875 C 52.78125 -12.671875 55.320312 -13.628906 57.78125 -14.671875 C 60.238281 -15.710938 62.671875 -16.691406 65.078125 -17.609375 C 67.492188 -18.523438 69.910156 -18.984375 72.328125 -18.984375 C 72.660156 -18.984375 73.140625 -18.960938 73.765625 -18.921875 C 74.390625 -18.878906 74.972656 -18.773438 75.515625 -18.609375 C 76.054688 -18.441406 76.535156 -18.171875 76.953125 -17.796875 C 77.367188 -17.421875 77.578125 -16.859375 77.578125 -16.109375 C 77.578125 -13.117188 76.429688 -10.582031 74.140625 -8.5 C 71.847656 -6.414062 69.117188 -4.726562 65.953125 -3.4375 C 62.796875 -2.144531 59.507812 -1.207031 56.09375 -0.625 C 52.675781 -0.0390625 49.882812 0.25 47.71875 0.25 C 41.394531 0.25 35.484375 -0.769531 29.984375 -2.8125 C 24.484375 -4.851562 19.691406 -7.742188 15.609375 -11.484375 C 11.535156 -15.234375 8.332031 -19.753906 6 -25.046875 C 3.664062 -30.335938 2.5 -36.269531 2.5 -42.84375 Z M 2.5 -42.84375 "/></g></g></g><g fill="#ffffff" fill-opacity="1"><g transform="translate(269.171226, 167.524935)"><g><path d="M -0.25 -77.578125 C -0.25 -77.992188 -0.226562 -78.722656 -0.1875 -79.765625 C -0.144531 -80.804688 -0.125 -81.890625 -0.125 -83.015625 C -0.125 -84.140625 -0.101562 -85.203125 -0.0625 -86.203125 C -0.0195312 -87.203125 0 -87.867188 0 -88.203125 C 2.082031 -90.441406 3.8125 -91.769531 5.1875 -92.1875 C 6.5625 -92.601562 7.664062 -92.375 8.5 -91.5 C 9.332031 -90.625 9.9375 -89.226562 10.3125 -87.3125 C 10.6875 -85.40625 10.957031 -83.242188 11.125 -80.828125 C 11.289062 -78.410156 11.375 -75.867188 11.375 -73.203125 C 11.375 -70.535156 11.414062 -68.054688 11.5 -65.765625 C 11.582031 -63.484375 11.75 -61.46875 12 -59.71875 C 12.25 -57.96875 12.703125 -56.800781 13.359375 -56.21875 L 56.21875 -56.21875 C 57.96875 -56.21875 59.21875 -56.757812 59.96875 -57.84375 C 60.71875 -58.925781 61.15625 -60.335938 61.28125 -62.078125 C 61.40625 -63.828125 61.34375 -65.828125 61.09375 -68.078125 C 60.84375 -70.328125 60.613281 -72.640625 60.40625 -75.015625 C 60.195312 -77.390625 60.113281 -79.722656 60.15625 -82.015625 C 60.195312 -84.304688 60.570312 -86.320312 61.28125 -88.0625 C 61.988281 -89.8125 63.085938 -91.226562 64.578125 -92.3125 C 66.078125 -93.394531 68.285156 -93.9375 71.203125 -93.9375 C 72.285156 -92.351562 72.953125 -90.625 73.203125 -88.75 C 73.453125 -86.882812 73.515625 -84.953125 73.390625 -82.953125 C 73.265625 -80.953125 73.054688 -78.972656 72.765625 -77.015625 C 72.472656 -75.054688 72.328125 -73.160156 72.328125 -71.328125 C 72.328125 -66.421875 72.640625 -61.507812 73.265625 -56.59375 C 73.890625 -51.675781 74.554688 -46.757812 75.265625 -41.84375 C 75.972656 -36.9375 76.640625 -32.046875 77.265625 -27.171875 C 77.890625 -22.296875 78.203125 -17.488281 78.203125 -12.75 C 78.367188 -7.582031 78.035156 -3.894531 77.203125 -1.6875 C 76.367188 0.519531 75.328125 1.519531 74.078125 1.3125 C 72.828125 1.101562 71.429688 -0.164062 69.890625 -2.5 C 68.347656 -4.832031 66.929688 -7.953125 65.640625 -11.859375 C 64.359375 -15.773438 63.320312 -20.378906 62.53125 -25.671875 C 61.738281 -30.960938 61.425781 -36.6875 61.59375 -42.84375 L 16.484375 -42.84375 C 17.066406 -37.101562 17.835938 -31.691406 18.796875 -26.609375 C 19.753906 -21.523438 20.503906 -17.046875 21.046875 -13.171875 C 21.585938 -9.304688 21.796875 -6.226562 21.671875 -3.9375 C 21.546875 -1.644531 20.691406 -0.457031 19.109375 -0.375 C 16.691406 -0.375 14.648438 -1.1875 12.984375 -2.8125 C 11.328125 -4.4375 9.894531 -6.660156 8.6875 -9.484375 C 7.476562 -12.316406 6.5 -15.628906 5.75 -19.421875 C 5 -23.210938 4.375 -27.210938 3.875 -31.421875 C 3.375 -35.628906 2.976562 -39.9375 2.6875 -44.34375 C 2.394531 -48.757812 2.125 -53.007812 1.875 -57.09375 C 1.625 -61.175781 1.332031 -64.984375 1 -68.515625 C 0.664062 -72.054688 0.25 -75.078125 -0.25 -77.578125 Z M -0.25 -77.578125 "/></g></g></g><g fill="#ffffff" fill-opacity="1"><g transform="translate(352.120563, 167.524935)"><g><path d="M 8.125 -5.375 C 7.789062 -6.707031 7.351562 -8.617188 6.8125 -11.109375 C 6.269531 -13.609375 5.6875 -16.359375 5.0625 -19.359375 C 4.4375 -22.359375 3.832031 -25.503906 3.25 -28.796875 C 2.664062 -32.085938 2.125 -35.289062 1.625 -38.40625 C 1.125 -41.53125 0.726562 -44.40625 0.4375 -47.03125 C 0.144531 -49.65625 0 -51.800781 0 -53.46875 C 0 -54.21875 0.0820312 -55.507812 0.25 -57.34375 C 0.414062 -59.175781 0.664062 -61.085938 1 -63.078125 C 1.332031 -65.078125 1.644531 -66.953125 1.9375 -68.703125 C 2.226562 -70.453125 2.5 -71.660156 2.75 -72.328125 C 3 -72.410156 3.4375 -72.453125 4.0625 -72.453125 C 4.6875 -72.453125 5.351562 -72.492188 6.0625 -72.578125 C 6.769531 -72.660156 7.4375 -72.722656 8.0625 -72.765625 C 8.6875 -72.804688 9.125 -72.828125 9.375 -72.828125 C 13.363281 -72.828125 17.148438 -72.035156 20.734375 -70.453125 C 24.316406 -68.867188 27.734375 -66.867188 30.984375 -64.453125 C 34.234375 -62.046875 37.394531 -59.34375 40.46875 -56.34375 C 43.550781 -53.34375 46.65625 -50.425781 49.78125 -47.59375 C 52.90625 -44.757812 56.085938 -42.195312 59.328125 -39.90625 C 62.578125 -37.625 66.035156 -35.898438 69.703125 -34.734375 C 69.703125 -35.148438 69.722656 -35.796875 69.765625 -36.671875 C 69.804688 -37.546875 69.828125 -38.476562 69.828125 -39.46875 C 69.828125 -40.46875 69.847656 -41.40625 69.890625 -42.28125 C 69.929688 -43.15625 69.953125 -43.800781 69.953125 -44.21875 C 69.953125 -49.46875 69.617188 -54.585938 68.953125 -59.578125 C 68.285156 -64.578125 67.535156 -69.578125 66.703125 -74.578125 C 65.867188 -79.578125 65.117188 -84.59375 64.453125 -89.625 C 63.796875 -94.664062 63.46875 -99.851562 63.46875 -105.1875 C 64.039062 -105.1875 64.765625 -105.164062 65.640625 -105.125 C 66.515625 -105.082031 67.410156 -104.957031 68.328125 -104.75 C 69.242188 -104.539062 70.078125 -104.207031 70.828125 -103.75 C 71.578125 -103.289062 72.078125 -102.601562 72.328125 -101.6875 C 72.660156 -95.6875 73.410156 -89.664062 74.578125 -83.625 C 75.742188 -77.59375 76.953125 -71.554688 78.203125 -65.515625 C 79.453125 -59.484375 80.554688 -53.445312 81.515625 -47.40625 C 82.472656 -41.375 82.953125 -35.398438 82.953125 -29.484375 C 82.953125 -28.398438 82.929688 -27.234375 82.890625 -25.984375 C 82.847656 -24.734375 82.679688 -23.546875 82.390625 -22.421875 C 82.097656 -21.296875 81.617188 -20.359375 80.953125 -19.609375 C 80.285156 -18.859375 79.285156 -18.484375 77.953125 -18.484375 C 73.617188 -18.484375 69.617188 -19.460938 65.953125 -21.421875 C 62.296875 -23.378906 58.738281 -25.816406 55.28125 -28.734375 C 51.820312 -31.648438 48.445312 -34.851562 45.15625 -38.34375 C 41.863281 -41.84375 38.488281 -45.050781 35.03125 -47.96875 C 31.582031 -50.882812 28.003906 -53.34375 24.296875 -55.34375 C 20.585938 -57.34375 16.613281 -58.34375 12.375 -58.34375 C 12.375 -53.675781 12.703125 -49.195312 13.359375 -44.90625 C 14.023438 -40.613281 14.753906 -36.34375 15.546875 -32.09375 C 16.335938 -27.851562 17.066406 -23.628906 17.734375 -19.421875 C 18.398438 -15.210938 18.734375 -10.945312 18.734375 -6.625 C 18.734375 -5.039062 18.171875 -3.957031 17.046875 -3.375 C 15.921875 -2.789062 14.691406 -2.5 13.359375 -2.5 C 12.285156 -2.5 11.269531 -2.601562 10.3125 -2.8125 C 9.351562 -3.019531 8.625 -3.875 8.125 -5.375 Z M 8.125 -5.375 "/></g></g></g><g fill="#ffffff" fill-opacity="1"><g transform="translate(437.818222, 167.524935)"><g><path d="M 8.125 -99.0625 C 7.707031 -99.0625 7.101562 -99.164062 6.3125 -99.375 C 5.519531 -99.582031 4.707031 -99.832031 3.875 -100.125 C 3.039062 -100.414062 2.25 -100.707031 1.5 -101 C 0.75 -101.289062 0.25 -101.519531 0 -101.6875 C -0.0820312 -101.851562 -0.125 -102.019531 -0.125 -102.1875 C -0.207031 -102.351562 -0.25 -102.5625 -0.25 -102.8125 C -0.25 -103.976562 0.207031 -104.976562 1.125 -105.8125 C 2.039062 -106.644531 3.101562 -107.332031 4.3125 -107.875 C 5.519531 -108.414062 6.707031 -108.832031 7.875 -109.125 C 9.039062 -109.414062 9.957031 -109.601562 10.625 -109.6875 L 13.359375 -109.6875 C 15.359375 -109.519531 17.898438 -109.269531 20.984375 -108.9375 C 24.066406 -108.601562 27.335938 -108.25 30.796875 -107.875 C 34.253906 -107.5 37.75 -107.125 41.28125 -106.75 C 44.820312 -106.375 48.03125 -106 50.90625 -105.625 C 53.78125 -105.25 56.195312 -104.957031 58.15625 -104.75 C 60.113281 -104.539062 61.257812 -104.4375 61.59375 -104.4375 C 62.257812 -104.351562 63.109375 -104.207031 64.140625 -104 C 65.179688 -103.789062 66.242188 -103.457031 67.328125 -103 C 68.410156 -102.539062 69.410156 -102 70.328125 -101.375 C 71.242188 -100.75 71.910156 -99.976562 72.328125 -99.0625 C 71.660156 -97.726562 71.078125 -96.707031 70.578125 -96 C 70.078125 -95.289062 69.535156 -94.75 68.953125 -94.375 C 68.367188 -94 67.765625 -93.8125 67.140625 -93.8125 C 66.515625 -93.8125 65.742188 -93.8125 64.828125 -93.8125 C 61.335938 -93.8125 57.820312 -93.9375 54.28125 -94.1875 C 50.738281 -94.4375 47.21875 -94.6875 43.71875 -94.9375 C 40.21875 -95.1875 36.695312 -95.4375 33.15625 -95.6875 C 29.625 -95.9375 26.066406 -96.0625 22.484375 -96.0625 C 22.484375 -94.5625 22.296875 -92.3125 21.921875 -89.3125 C 21.546875 -86.320312 21.253906 -83.160156 21.046875 -79.828125 C 20.835938 -76.492188 20.921875 -73.179688 21.296875 -69.890625 C 21.671875 -66.597656 22.609375 -63.832031 24.109375 -61.59375 C 27.023438 -63.332031 30.066406 -64.242188 33.234375 -64.328125 C 36.398438 -64.410156 39.601562 -64.453125 42.84375 -64.453125 C 44.257812 -64.453125 46.050781 -64.453125 48.21875 -64.453125 C 50.382812 -64.453125 52.488281 -64.203125 54.53125 -63.703125 C 56.570312 -63.210938 58.300781 -62.382812 59.71875 -61.21875 C 61.132812 -60.050781 61.84375 -58.300781 61.84375 -55.96875 C 61.84375 -54.300781 61.507812 -53.050781 60.84375 -52.21875 C 60.175781 -51.382812 58.632812 -50.96875 56.21875 -50.96875 C 55.96875 -50.96875 55.445312 -51.09375 54.65625 -51.34375 C 53.863281 -51.59375 53.03125 -51.882812 52.15625 -52.21875 C 51.28125 -52.550781 50.46875 -52.84375 49.71875 -53.09375 C 48.96875 -53.34375 48.46875 -53.46875 48.21875 -53.46875 C 48.132812 -53.46875 47.820312 -53.488281 47.28125 -53.53125 C 46.738281 -53.570312 46.09375 -53.59375 45.34375 -53.59375 C 44.59375 -53.59375 43.863281 -53.613281 43.15625 -53.65625 C 42.445312 -53.695312 41.882812 -53.71875 41.46875 -53.71875 C 39.550781 -53.71875 37.695312 -53.59375 35.90625 -53.34375 C 34.125 -53.09375 32.566406 -52.59375 31.234375 -51.84375 C 29.898438 -51.09375 28.835938 -50.007812 28.046875 -48.59375 C 27.253906 -47.175781 26.859375 -45.34375 26.859375 -43.09375 C 26.859375 -42.34375 26.941406 -41.050781 27.109375 -39.21875 C 27.273438 -37.394531 27.503906 -35.378906 27.796875 -33.171875 C 28.085938 -30.960938 28.484375 -28.691406 28.984375 -26.359375 C 29.484375 -24.023438 30.148438 -21.878906 30.984375 -19.921875 C 31.816406 -17.960938 32.753906 -16.335938 33.796875 -15.046875 C 34.835938 -13.753906 36.109375 -13.109375 37.609375 -13.109375 C 37.773438 -13.109375 38.1875 -13.148438 38.84375 -13.234375 C 39.507812 -13.316406 39.925781 -13.359375 40.09375 -13.359375 C 42.925781 -15.273438 45.78125 -17.359375 48.65625 -19.609375 C 51.53125 -21.859375 54.507812 -23.960938 57.59375 -25.921875 C 60.675781 -27.878906 63.878906 -29.546875 67.203125 -30.921875 C 70.535156 -32.296875 73.992188 -32.984375 77.578125 -32.984375 L 77.578125 -26.859375 C 77.578125 -26.523438 76.765625 -25.609375 75.140625 -24.109375 C 73.515625 -22.609375 71.390625 -20.859375 68.765625 -18.859375 C 66.140625 -16.859375 63.203125 -14.734375 59.953125 -12.484375 C 56.710938 -10.242188 53.46875 -8.1875 50.21875 -6.3125 C 46.96875 -4.4375 43.863281 -2.875 40.90625 -1.625 C 37.957031 -0.375 35.484375 0.25 33.484375 0.25 C 30.648438 0.25 28.128906 -1.019531 25.921875 -3.5625 C 23.710938 -6.101562 21.734375 -9.472656 19.984375 -13.671875 C 18.234375 -17.878906 16.773438 -22.734375 15.609375 -28.234375 C 14.441406 -33.734375 13.421875 -39.394531 12.546875 -45.21875 C 11.679688 -51.050781 10.976562 -56.859375 10.4375 -62.640625 C 9.894531 -68.429688 9.457031 -73.785156 9.125 -78.703125 C 8.789062 -83.617188 8.5625 -87.882812 8.4375 -91.5 C 8.3125 -95.125 8.207031 -97.644531 8.125 -99.0625 Z M 8.125 -99.0625 "/></g></g></g></svg>