<svg xmlns="http://www.w3.org/2000/svg" xmlns:xlink="http://www.w3.org/1999/xlink" width="700" zoomAndPan="magnify" viewBox="0 0 525 225" height="300" preserveAspectRatio="xMidYMid meet" version="1.0"><defs><g/></defs><g fill="#ffffff" fill-opacity="1"><g transform="translate(108.62897, 94.221157)"><g><path d="M 1.921875 -40.984375 C 1.921875 -41.742188 1.9375 -43 1.96875 -44.75 C 2 -46.507812 2.015625 -48.363281 2.015625 -50.3125 C 2.015625 -52.257812 2.03125 -54.09375 2.0625 -55.8125 C 2.09375 -57.539062 2.109375 -58.753906 2.109375 -59.453125 C 2.171875 -59.898438 2.328125 -60.585938 2.578125 -61.515625 C 2.835938 -62.441406 3.140625 -63.351562 3.484375 -64.25 C 3.835938 -65.144531 4.316406 -65.925781 4.921875 -66.59375 C 5.535156 -67.257812 6.289062 -67.59375 7.1875 -67.59375 C 9.289062 -67.59375 11.265625 -67.019531 13.109375 -65.875 C 14.960938 -64.726562 16.75 -63.210938 18.46875 -61.328125 C 20.195312 -59.441406 21.84375 -57.347656 23.40625 -55.046875 C 24.96875 -52.753906 26.515625 -50.472656 28.046875 -48.203125 C 29.585938 -45.941406 31.085938 -43.804688 32.546875 -41.796875 C 34.015625 -39.785156 35.484375 -38.171875 36.953125 -36.953125 C 38.554688 -37.660156 39.800781 -38.953125 40.6875 -40.828125 C 41.582031 -42.710938 42.316406 -44.882812 42.890625 -47.34375 C 43.460938 -49.800781 43.988281 -52.351562 44.46875 -55 C 44.945312 -57.65625 45.601562 -60.097656 46.4375 -62.328125 C 47.269531 -64.566406 48.367188 -66.40625 49.734375 -67.84375 C 51.109375 -69.28125 53.007812 -70 55.4375 -70 C 58.3125 -70 60.910156 -68.878906 63.234375 -66.640625 C 65.566406 -64.410156 67.660156 -61.570312 69.515625 -58.125 C 71.367188 -54.675781 72.945312 -50.84375 74.25 -46.625 C 75.5625 -42.414062 76.660156 -38.363281 77.546875 -34.46875 C 78.441406 -30.570312 79.113281 -27.0625 79.5625 -23.9375 C 80.007812 -20.8125 80.234375 -18.578125 80.234375 -17.234375 C 80.234375 -16.660156 80.203125 -16.035156 80.140625 -15.359375 C 80.078125 -14.691406 79.914062 -14.085938 79.65625 -13.546875 C 79.40625 -13.003906 78.992188 -12.585938 78.421875 -12.296875 C 77.847656 -12.015625 77.015625 -12.035156 75.921875 -12.359375 C 75.609375 -12.421875 75.242188 -12.59375 74.828125 -12.875 C 74.410156 -13.164062 73.976562 -13.535156 73.53125 -13.984375 C 73.082031 -14.429688 72.695312 -14.859375 72.375 -15.265625 C 72.0625 -15.679688 71.90625 -16.050781 71.90625 -16.375 C 71.332031 -19.5 70.691406 -22.972656 69.984375 -26.796875 C 69.285156 -30.628906 68.410156 -34.507812 67.359375 -38.4375 C 66.304688 -42.363281 64.976562 -46.175781 63.375 -49.875 C 61.78125 -53.582031 59.804688 -56.773438 57.453125 -59.453125 C 55.597656 -58.429688 54.144531 -56.882812 53.09375 -54.8125 C 52.039062 -52.738281 51.160156 -50.472656 50.453125 -48.015625 C 49.753906 -45.554688 49.117188 -43.050781 48.546875 -40.5 C 47.972656 -37.945312 47.207031 -35.632812 46.25 -33.5625 C 45.289062 -31.488281 44.078125 -29.78125 42.609375 -28.4375 C 41.140625 -27.09375 39.160156 -26.421875 36.671875 -26.421875 C 34.953125 -26.421875 33.273438 -26.976562 31.640625 -28.09375 C 30.015625 -29.21875 28.4375 -30.6875 26.90625 -32.5 C 25.375 -34.320312 23.890625 -36.332031 22.453125 -38.53125 C 21.015625 -40.738281 19.609375 -42.910156 18.234375 -45.046875 C 16.867188 -47.179688 15.53125 -49.175781 14.21875 -51.03125 C 12.90625 -52.882812 11.582031 -54.351562 10.25 -55.4375 C 9.738281 -53.457031 9.335938 -51.71875 9.046875 -50.21875 C 8.765625 -48.71875 8.539062 -47.265625 8.375 -45.859375 C 8.21875 -44.453125 8.125 -43.015625 8.09375 -41.546875 C 8.0625 -40.085938 8.046875 -38.460938 8.046875 -36.671875 C 8.046875 -33.992188 8.269531 -31.328125 8.71875 -28.671875 C 9.164062 -26.023438 9.644531 -23.394531 10.15625 -20.78125 C 10.664062 -18.164062 11.160156 -15.53125 11.640625 -12.875 C 12.117188 -10.226562 12.359375 -7.566406 12.359375 -4.890625 L 12.359375 -4.125 C 12.222656 -3.925781 11.960938 -3.617188 11.578125 -3.203125 C 11.203125 -2.785156 10.804688 -2.351562 10.390625 -1.90625 C 9.972656 -1.46875 9.539062 -1.070312 9.09375 -0.71875 C 8.644531 -0.363281 8.328125 -0.125 8.140625 0 C 8.078125 0.0625 7.945312 0.09375 7.75 0.09375 C 7.5625 0.15625 7.375 0.1875 7.1875 0.1875 C 7.050781 0.1875 6.890625 0.15625 6.703125 0.09375 C 6.515625 0.03125 6.351562 0 6.21875 0 C 5.769531 -3.695312 5.289062 -7.207031 4.78125 -10.53125 C 4.269531 -13.851562 3.804688 -17.140625 3.390625 -20.390625 C 2.984375 -23.648438 2.632812 -26.9375 2.34375 -30.25 C 2.0625 -33.570312 1.921875 -37.148438 1.921875 -40.984375 Z M 1.921875 -40.984375 "/></g></g></g><g fill="#ffffff" fill-opacity="1"><g transform="translate(192.689804, 94.221157)"><g><path d="M 5.9375 -35.90625 C 5.9375 -36.289062 5.953125 -36.910156 5.984375 -37.765625 C 6.015625 -38.628906 6.046875 -39.539062 6.078125 -40.5 C 6.109375 -41.457031 6.140625 -42.382812 6.171875 -43.28125 C 6.203125 -44.175781 6.21875 -44.8125 6.21875 -45.1875 C 6.925781 -46.207031 7.835938 -47.035156 8.953125 -47.671875 C 10.066406 -48.316406 11.203125 -48.832031 12.359375 -49.21875 C 12.546875 -45.769531 13.082031 -42.097656 13.96875 -38.203125 C 14.863281 -34.304688 15.820312 -30.394531 16.84375 -26.46875 C 17.875 -22.550781 18.785156 -18.675781 19.578125 -14.84375 C 20.378906 -11.007812 20.78125 -7.4375 20.78125 -4.125 C 20.78125 -1.25 19.3125 0.1875 16.375 0.1875 C 14.582031 0.1875 13.078125 -0.546875 11.859375 -2.015625 C 10.648438 -3.484375 9.675781 -5.347656 8.9375 -7.609375 C 8.207031 -9.878906 7.617188 -12.398438 7.171875 -15.171875 C 6.734375 -17.953125 6.429688 -20.679688 6.265625 -23.359375 C 6.109375 -26.046875 6.015625 -28.503906 5.984375 -30.734375 C 5.953125 -32.972656 5.9375 -34.695312 5.9375 -35.90625 Z M 7.28125 -71.8125 C 8.488281 -71.300781 9.503906 -70.46875 10.328125 -69.3125 C 11.160156 -68.164062 11.53125 -67.128906 11.4375 -66.203125 C 11.34375 -65.285156 10.625 -64.648438 9.28125 -64.296875 C 7.945312 -63.941406 5.710938 -64.304688 2.578125 -65.390625 C 2.578125 -67.117188 2.910156 -68.617188 3.578125 -69.890625 C 4.253906 -71.171875 5.488281 -71.8125 7.28125 -71.8125 Z M 7.28125 -71.8125 "/></g></g></g><g fill="#ffffff" fill-opacity="1"><g transform="translate(215.284743, 94.221157)"><g><path d="M 0.28125 -49.5 C 0.28125 -50.070312 0.296875 -50.660156 0.328125 -51.265625 C 0.367188 -51.878906 0.5 -52.457031 0.71875 -53 C 0.9375 -53.539062 1.253906 -53.953125 1.671875 -54.234375 C 2.085938 -54.523438 2.710938 -54.671875 3.546875 -54.671875 C 3.609375 -54.671875 3.6875 -54.671875 3.78125 -54.671875 C 3.875 -54.671875 3.988281 -54.671875 4.125 -54.671875 C 4.3125 -54.609375 4.46875 -54.578125 4.59375 -54.578125 C 5.8125 -52.921875 6.863281 -50.796875 7.75 -48.203125 C 8.644531 -45.617188 9.503906 -42.875 10.328125 -39.96875 C 11.160156 -37.070312 12.054688 -34.140625 13.015625 -31.171875 C 13.972656 -28.203125 15.21875 -25.535156 16.75 -23.171875 C 18.28125 -20.804688 20.160156 -18.921875 22.390625 -17.515625 C 24.628906 -16.117188 27.410156 -15.515625 30.734375 -15.703125 C 32.203125 -15.703125 33.160156 -16.5 33.609375 -18.09375 C 34.054688 -19.6875 34.296875 -21.726562 34.328125 -24.21875 C 34.359375 -26.707031 34.289062 -29.453125 34.125 -32.453125 C 33.96875 -35.453125 33.96875 -38.304688 34.125 -41.015625 C 34.289062 -43.734375 34.769531 -46.113281 35.5625 -48.15625 C 36.363281 -50.195312 37.753906 -51.570312 39.734375 -52.28125 C 40.566406 -50.625 41.253906 -48.019531 41.796875 -44.46875 C 42.335938 -40.925781 42.734375 -36.84375 42.984375 -32.21875 C 43.242188 -27.59375 43.375 -22.582031 43.375 -17.1875 C 43.375 -11.789062 43.242188 -6.425781 42.984375 -1.09375 C 42.734375 4.226562 42.351562 9.347656 41.84375 14.265625 C 41.332031 19.179688 40.753906 23.488281 40.109375 27.1875 C 39.472656 30.894531 38.722656 33.816406 37.859375 35.953125 C 37.003906 38.085938 36.097656 39 35.140625 38.6875 C 33.796875 37.40625 32.753906 35.742188 32.015625 33.703125 C 31.285156 31.660156 30.773438 29.394531 30.484375 26.90625 C 30.203125 24.414062 30.09375 21.78125 30.15625 19 C 30.21875 16.226562 30.328125 13.4375 30.484375 10.625 C 30.648438 7.820312 30.84375 5.078125 31.0625 2.390625 C 31.289062 -0.285156 31.40625 -2.742188 31.40625 -4.984375 C 29.101562 -4.785156 26.753906 -5.132812 24.359375 -6.03125 C 21.972656 -6.925781 19.628906 -8.3125 17.328125 -10.1875 C 15.035156 -12.070312 12.847656 -14.351562 10.765625 -17.03125 C 8.691406 -19.71875 6.875 -22.753906 5.3125 -26.140625 C 3.75 -29.523438 2.519531 -33.175781 1.625 -37.09375 C 0.726562 -41.019531 0.28125 -45.15625 0.28125 -49.5 Z M 0.28125 -49.5 "/></g></g></g><g fill="#ffffff" fill-opacity="1"><g transform="translate(262.485188, 94.221157)"><g><path d="M 1.921875 -19.4375 C 1.921875 -23.394531 2.84375 -27.082031 4.6875 -30.5 C 6.539062 -33.914062 8.984375 -36.847656 12.015625 -39.296875 C 15.046875 -41.753906 18.457031 -43.6875 22.25 -45.09375 C 26.050781 -46.5 29.898438 -47.203125 33.796875 -47.203125 C 35.972656 -47.203125 37.90625 -46.5 39.59375 -45.09375 C 41.28125 -43.6875 42.695312 -41.976562 43.84375 -39.96875 C 45 -37.957031 45.878906 -35.832031 46.484375 -33.59375 C 47.085938 -31.363281 47.390625 -29.421875 47.390625 -27.765625 C 47.390625 -24.191406 46.523438 -20.726562 44.796875 -17.375 C 43.078125 -14.03125 40.84375 -11.0625 38.09375 -8.46875 C 35.351562 -5.882812 32.257812 -3.796875 28.8125 -2.203125 C 25.375 -0.609375 21.929688 0.1875 18.484375 0.1875 C 15.421875 0.1875 12.832031 -0.335938 10.71875 -1.390625 C 8.613281 -2.441406 6.921875 -3.84375 5.640625 -5.59375 C 4.367188 -7.351562 3.429688 -9.429688 2.828125 -11.828125 C 2.222656 -14.222656 1.921875 -16.757812 1.921875 -19.4375 Z M 10.046875 -18.484375 C 10.046875 -16.816406 10.191406 -15.359375 10.484375 -14.109375 C 10.773438 -12.867188 11.285156 -11.800781 12.015625 -10.90625 C 12.753906 -10.019531 13.726562 -9.335938 14.9375 -8.859375 C 16.144531 -8.378906 17.644531 -8.140625 19.4375 -8.140625 C 21.800781 -8.140625 24.160156 -8.789062 26.515625 -10.09375 C 28.878906 -11.40625 31.003906 -13.066406 32.890625 -15.078125 C 34.773438 -17.085938 36.289062 -19.304688 37.4375 -21.734375 C 38.582031 -24.160156 39.15625 -26.523438 39.15625 -28.828125 C 39.15625 -29.847656 39.0625 -30.960938 38.875 -32.171875 C 38.6875 -33.378906 38.367188 -34.492188 37.921875 -35.515625 C 37.472656 -36.546875 36.832031 -37.410156 36 -38.109375 C 35.164062 -38.804688 34.113281 -39.15625 32.84375 -39.15625 C 31.695312 -39.15625 30.335938 -38.769531 28.765625 -38 C 27.203125 -37.238281 25.578125 -36.25 23.890625 -35.03125 C 22.203125 -33.820312 20.539062 -32.453125 18.90625 -30.921875 C 17.28125 -29.390625 15.796875 -27.859375 14.453125 -26.328125 C 13.117188 -24.796875 12.050781 -23.328125 11.25 -21.921875 C 10.445312 -20.515625 10.046875 -19.367188 10.046875 -18.484375 Z M 10.046875 -18.484375 "/></g></g></g><g fill="#ffffff" fill-opacity="1"><g transform="translate(311.6962, 94.221157)"><g><path d="M 20.484375 -1.921875 C 19.460938 -1.023438 18.394531 -1.4375 17.28125 -3.15625 C 16.164062 -4.882812 15.03125 -7.488281 13.875 -10.96875 C 12.726562 -14.445312 11.597656 -18.609375 10.484375 -23.453125 C 9.367188 -28.304688 8.300781 -33.445312 7.28125 -38.875 C 6.257812 -44.300781 5.285156 -49.804688 4.359375 -55.390625 C 3.429688 -60.972656 2.617188 -66.222656 1.921875 -71.140625 C 1.921875 -72.035156 1.898438 -72.945312 1.859375 -73.875 C 1.828125 -74.800781 1.921875 -75.660156 2.140625 -76.453125 C 2.367188 -77.253906 2.785156 -77.972656 3.390625 -78.609375 C 4.003906 -79.242188 4.945312 -79.722656 6.21875 -80.046875 C 6.351562 -80.109375 6.625 -80.054688 7.03125 -79.890625 C 7.445312 -79.734375 7.878906 -79.546875 8.328125 -79.328125 C 8.773438 -79.109375 9.171875 -78.867188 9.515625 -78.609375 C 9.867188 -78.359375 10.113281 -78.132812 10.25 -77.9375 C 9.414062 -66 10.785156 -54.382812 14.359375 -43.09375 C 14.554688 -43.28125 15.066406 -43.929688 15.890625 -45.046875 C 16.722656 -46.160156 17.773438 -47.46875 19.046875 -48.96875 C 20.328125 -50.46875 21.78125 -52.078125 23.40625 -53.796875 C 25.039062 -55.523438 26.75 -57.125 28.53125 -58.59375 C 30.320312 -60.0625 32.109375 -61.289062 33.890625 -62.28125 C 35.679688 -63.269531 37.40625 -63.765625 39.0625 -63.765625 C 40.019531 -63.765625 40.960938 -63.539062 41.890625 -63.09375 C 42.816406 -62.644531 43.28125 -61.785156 43.28125 -60.515625 C 43.28125 -60.390625 43.25 -60.210938 43.1875 -59.984375 C 43.125 -59.765625 43.09375 -59.585938 43.09375 -59.453125 C 42.070312 -58.566406 40.519531 -57.195312 38.4375 -55.34375 C 36.363281 -53.488281 34.175781 -51.410156 31.875 -49.109375 C 29.582031 -46.816406 27.382812 -44.425781 25.28125 -41.9375 C 23.175781 -39.445312 21.578125 -37.085938 20.484375 -34.859375 C 20.296875 -34.472656 20.234375 -34.132812 20.296875 -33.84375 C 20.359375 -33.5625 20.421875 -33.226562 20.484375 -32.84375 C 21.191406 -32.582031 22.3125 -32.195312 23.84375 -31.6875 C 25.375 -31.175781 27.0625 -30.585938 28.90625 -29.921875 C 30.757812 -29.253906 32.738281 -28.550781 34.84375 -27.8125 C 36.957031 -27.082031 38.9375 -26.363281 40.78125 -25.65625 C 42.632812 -24.957031 44.3125 -24.335938 45.8125 -23.796875 C 47.3125 -23.253906 48.445312 -22.851562 49.21875 -22.59375 C 50.113281 -22.207031 50.847656 -21.953125 51.421875 -21.828125 C 51.992188 -21.703125 52.4375 -21.523438 52.75 -21.296875 C 53.070312 -21.078125 53.296875 -20.773438 53.421875 -20.390625 C 53.554688 -20.003906 53.625 -19.429688 53.625 -18.671875 C 53.625 -16.816406 53.175781 -15.601562 52.28125 -15.03125 C 51.382812 -14.457031 50.109375 -14.171875 48.453125 -14.171875 C 43.535156 -14.492188 38.710938 -15.53125 33.984375 -17.28125 C 29.265625 -19.039062 24.476562 -21.164062 19.625 -23.65625 C 19.4375 -22.4375 19.515625 -21.03125 19.859375 -19.4375 C 20.210938 -17.84375 20.644531 -16.242188 21.15625 -14.640625 C 21.664062 -13.046875 22.160156 -11.484375 22.640625 -9.953125 C 23.117188 -8.421875 23.40625 -7.046875 23.5 -5.828125 C 23.601562 -4.617188 23.460938 -3.664062 23.078125 -2.96875 C 22.691406 -2.269531 21.828125 -1.921875 20.484375 -1.921875 Z M 20.484375 -1.921875 "/></g></g></g><g fill="#ffffff" fill-opacity="1"><g transform="translate(367.130394, 94.221157)"><g><path d="M 1.921875 -19.4375 C 1.921875 -23.394531 2.84375 -27.082031 4.6875 -30.5 C 6.539062 -33.914062 8.984375 -36.847656 12.015625 -39.296875 C 15.046875 -41.753906 18.457031 -43.6875 22.25 -45.09375 C 26.050781 -46.5 29.898438 -47.203125 33.796875 -47.203125 C 35.972656 -47.203125 37.90625 -46.5 39.59375 -45.09375 C 41.28125 -43.6875 42.695312 -41.976562 43.84375 -39.96875 C 45 -37.957031 45.878906 -35.832031 46.484375 -33.59375 C 47.085938 -31.363281 47.390625 -29.421875 47.390625 -27.765625 C 47.390625 -24.191406 46.523438 -20.726562 44.796875 -17.375 C 43.078125 -14.03125 40.84375 -11.0625 38.09375 -8.46875 C 35.351562 -5.882812 32.257812 -3.796875 28.8125 -2.203125 C 25.375 -0.609375 21.929688 0.1875 18.484375 0.1875 C 15.421875 0.1875 12.832031 -0.335938 10.71875 -1.390625 C 8.613281 -2.441406 6.921875 -3.84375 5.640625 -5.59375 C 4.367188 -7.351562 3.429688 -9.429688 2.828125 -11.828125 C 2.222656 -14.222656 1.921875 -16.757812 1.921875 -19.4375 Z M 10.046875 -18.484375 C 10.046875 -16.816406 10.191406 -15.359375 10.484375 -14.109375 C 10.773438 -12.867188 11.285156 -11.800781 12.015625 -10.90625 C 12.753906 -10.019531 13.726562 -9.335938 14.9375 -8.859375 C 16.144531 -8.378906 17.644531 -8.140625 19.4375 -8.140625 C 21.800781 -8.140625 24.160156 -8.789062 26.515625 -10.09375 C 28.878906 -11.40625 31.003906 -13.066406 32.890625 -15.078125 C 34.773438 -17.085938 36.289062 -19.304688 37.4375 -21.734375 C 38.582031 -24.160156 39.15625 -26.523438 39.15625 -28.828125 C 39.15625 -29.847656 39.0625 -30.960938 38.875 -32.171875 C 38.6875 -33.378906 38.367188 -34.492188 37.921875 -35.515625 C 37.472656 -36.546875 36.832031 -37.410156 36 -38.109375 C 35.164062 -38.804688 34.113281 -39.15625 32.84375 -39.15625 C 31.695312 -39.15625 30.335938 -38.769531 28.765625 -38 C 27.203125 -37.238281 25.578125 -36.25 23.890625 -35.03125 C 22.203125 -33.820312 20.539062 -32.453125 18.90625 -30.921875 C 17.28125 -29.390625 15.796875 -27.859375 14.453125 -26.328125 C 13.117188 -24.796875 12.050781 -23.328125 11.25 -21.921875 C 10.445312 -20.515625 10.046875 -19.367188 10.046875 -18.484375 Z M 10.046875 -18.484375 "/></g></g></g><g fill="#ffffff" fill-opacity="1"><g transform="translate(81.394597, 200.721153)"><g><path d="M 16.375 -4.125 C 16.695312 -5.65625 17.507812 -6.914062 18.8125 -7.90625 C 20.125 -8.894531 21.625 -9.800781 23.3125 -10.625 C 25.007812 -11.457031 26.78125 -12.238281 28.625 -12.96875 C 30.476562 -13.707031 32.1875 -14.488281 33.75 -15.3125 C 35.3125 -16.144531 36.601562 -17.117188 37.625 -18.234375 C 38.644531 -19.359375 39.15625 -20.71875 39.15625 -22.3125 C 39.15625 -24.351562 38.628906 -26.039062 37.578125 -27.375 C 36.523438 -28.71875 35.117188 -29.867188 33.359375 -30.828125 C 31.609375 -31.785156 29.613281 -32.582031 27.375 -33.21875 C 25.144531 -33.863281 22.863281 -34.519531 20.53125 -35.1875 C 18.207031 -35.851562 15.925781 -36.585938 13.6875 -37.390625 C 11.457031 -38.191406 9.460938 -39.195312 7.703125 -40.40625 C 5.953125 -41.613281 4.550781 -43.078125 3.5 -44.796875 C 2.445312 -46.523438 1.921875 -48.664062 1.921875 -51.21875 C 1.921875 -53.332031 2.347656 -55.328125 3.203125 -57.203125 C 4.066406 -59.085938 5.21875 -60.875 6.65625 -62.5625 C 8.09375 -64.257812 9.75 -65.8125 11.625 -67.21875 C 13.507812 -68.625 15.488281 -69.800781 17.5625 -70.75 C 19.644531 -71.707031 21.738281 -72.457031 23.84375 -73 C 25.945312 -73.550781 27.894531 -73.828125 29.6875 -73.828125 L 30.734375 -73.828125 C 31.304688 -73.628906 32.070312 -73.304688 33.03125 -72.859375 C 33.988281 -72.410156 34.914062 -71.976562 35.8125 -71.5625 C 36.707031 -71.15625 37.472656 -70.773438 38.109375 -70.421875 C 38.742188 -70.066406 39.0625 -69.859375 39.0625 -69.796875 L 39.0625 -67.59375 C 37.851562 -67.46875 36.289062 -67.226562 34.375 -66.875 C 32.457031 -66.53125 30.445312 -66.066406 28.34375 -65.484375 C 26.238281 -64.910156 24.097656 -64.191406 21.921875 -63.328125 C 19.753906 -62.472656 17.804688 -61.46875 16.078125 -60.3125 C 14.359375 -59.164062 12.957031 -57.84375 11.875 -56.34375 C 10.789062 -54.84375 10.25 -53.132812 10.25 -51.21875 C 10.25 -48.476562 11.203125 -46.328125 13.109375 -44.765625 C 15.023438 -43.203125 17.421875 -41.910156 20.296875 -40.890625 C 23.171875 -39.867188 26.316406 -38.957031 29.734375 -38.15625 C 33.148438 -37.351562 36.289062 -36.394531 39.15625 -35.28125 C 42.03125 -34.164062 44.425781 -32.695312 46.34375 -30.875 C 48.257812 -29.0625 49.21875 -26.617188 49.21875 -23.546875 C 49.21875 -21.890625 48.722656 -20.148438 47.734375 -18.328125 C 46.742188 -16.515625 45.429688 -14.726562 43.796875 -12.96875 C 42.171875 -11.21875 40.335938 -9.539062 38.296875 -7.9375 C 36.253906 -6.34375 34.164062 -4.957031 32.03125 -3.78125 C 29.894531 -2.601562 27.800781 -1.644531 25.75 -0.90625 C 23.707031 -0.175781 21.890625 0.1875 20.296875 0.1875 C 19.785156 0.1875 19.242188 0.125 18.671875 0 C 18.097656 -0.125 17.601562 -0.328125 17.1875 -0.609375 C 16.769531 -0.898438 16.445312 -1.332031 16.21875 -1.90625 C 16 -2.488281 16.050781 -3.226562 16.375 -4.125 Z M 16.375 -4.125 "/></g></g></g><g fill="#ffffff" fill-opacity="1"><g transform="translate(132.616175, 200.721153)"><g><path d="M 4.6875 -62.234375 C 4.6875 -62.941406 4.765625 -63.820312 4.921875 -64.875 C 5.085938 -65.925781 5.378906 -66.929688 5.796875 -67.890625 C 6.210938 -68.847656 6.738281 -69.660156 7.375 -70.328125 C 8.007812 -70.992188 8.835938 -71.328125 9.859375 -71.328125 C 9.921875 -71.328125 10.078125 -71.296875 10.328125 -71.234375 C 10.585938 -71.171875 10.75 -71.140625 10.8125 -71.140625 C 11.90625 -67.179688 12.546875 -63.253906 12.734375 -59.359375 C 12.921875 -55.472656 12.851562 -51.691406 12.53125 -48.015625 C 12.21875 -44.347656 11.742188 -40.804688 11.109375 -37.390625 C 10.472656 -33.972656 9.945312 -30.828125 9.53125 -27.953125 C 9.113281 -25.085938 8.859375 -22.503906 8.765625 -20.203125 C 8.671875 -17.898438 9.003906 -15.953125 9.765625 -14.359375 C 9.640625 -15.378906 9.5625 -16.609375 9.53125 -18.046875 C 9.5 -19.484375 9.625 -20.96875 9.90625 -22.5 C 10.195312 -24.03125 10.675781 -25.5625 11.34375 -27.09375 C 12.019531 -28.625 12.992188 -29.992188 14.265625 -31.203125 C 15.546875 -32.421875 17.191406 -33.378906 19.203125 -34.078125 C 21.210938 -34.785156 23.71875 -35.140625 26.71875 -35.140625 C 29.84375 -35.140625 32.535156 -34.597656 34.796875 -33.515625 C 37.066406 -32.429688 38.9375 -30.945312 40.40625 -29.0625 C 41.875 -27.175781 42.972656 -24.972656 43.703125 -22.453125 C 44.441406 -19.929688 44.8125 -17.234375 44.8125 -14.359375 C 44.8125 -13.023438 44.796875 -11.507812 44.765625 -9.8125 C 44.734375 -8.125 44.507812 -6.5625 44.09375 -5.125 C 43.675781 -3.6875 42.941406 -2.472656 41.890625 -1.484375 C 40.835938 -0.492188 39.289062 0 37.25 0 C 37.25 -1.019531 37.3125 -2.40625 37.4375 -4.15625 C 37.5625 -5.914062 37.640625 -7.785156 37.671875 -9.765625 C 37.703125 -11.742188 37.640625 -13.753906 37.484375 -15.796875 C 37.328125 -17.835938 36.894531 -19.671875 36.1875 -21.296875 C 35.488281 -22.929688 34.515625 -24.273438 33.265625 -25.328125 C 32.023438 -26.378906 30.320312 -26.90625 28.15625 -26.90625 C 27.382812 -26.90625 26.441406 -26.859375 25.328125 -26.765625 C 24.210938 -26.671875 23.078125 -26.367188 21.921875 -25.859375 C 20.773438 -25.347656 19.660156 -24.5625 18.578125 -23.5 C 17.492188 -22.445312 16.628906 -21.007812 15.984375 -19.1875 C 15.347656 -17.375 14.984375 -15.078125 14.890625 -12.296875 C 14.796875 -9.523438 15.128906 -6.128906 15.890625 -2.109375 C 15.441406 -0.960938 14.882812 -0.289062 14.21875 -0.09375 C 13.550781 0.09375 12.707031 0.1875 11.6875 0.1875 C 9.644531 0.1875 7.96875 -0.53125 6.65625 -1.96875 C 5.34375 -3.40625 4.332031 -5.332031 3.625 -7.75 C 2.925781 -10.175781 2.46875 -12.984375 2.25 -16.171875 C 2.03125 -19.367188 1.953125 -22.707031 2.015625 -26.1875 C 2.078125 -29.664062 2.25 -33.207031 2.53125 -36.8125 C 2.820312 -40.414062 3.109375 -43.828125 3.390625 -47.046875 C 3.679688 -50.273438 3.96875 -53.210938 4.25 -55.859375 C 4.539062 -58.515625 4.6875 -60.640625 4.6875 -62.234375 Z M 4.6875 -62.234375 "/></g></g></g><g fill="#ffffff" fill-opacity="1"><g transform="translate(179.337914, 200.721153)"><g><path d="M 5.9375 -35.90625 C 5.9375 -36.289062 5.953125 -36.910156 5.984375 -37.765625 C 6.015625 -38.628906 6.046875 -39.539062 6.078125 -40.5 C 6.109375 -41.457031 6.140625 -42.382812 6.171875 -43.28125 C 6.203125 -44.175781 6.21875 -44.8125 6.21875 -45.1875 C 6.925781 -46.207031 7.835938 -47.035156 8.953125 -47.671875 C 10.066406 -48.316406 11.203125 -48.832031 12.359375 -49.21875 C 12.546875 -45.769531 13.082031 -42.097656 13.96875 -38.203125 C 14.863281 -34.304688 15.820312 -30.394531 16.84375 -26.46875 C 17.875 -22.550781 18.785156 -18.675781 19.578125 -14.84375 C 20.378906 -11.007812 20.78125 -7.4375 20.78125 -4.125 C 20.78125 -1.25 19.3125 0.1875 16.375 0.1875 C 14.582031 0.1875 13.078125 -0.546875 11.859375 -2.015625 C 10.648438 -3.484375 9.675781 -5.347656 8.9375 -7.609375 C 8.207031 -9.878906 7.617188 -12.398438 7.171875 -15.171875 C 6.734375 -17.953125 6.429688 -20.679688 6.265625 -23.359375 C 6.109375 -26.046875 6.015625 -28.503906 5.984375 -30.734375 C 5.953125 -32.972656 5.9375 -34.695312 5.9375 -35.90625 Z M 7.28125 -71.8125 C 8.488281 -71.300781 9.503906 -70.46875 10.328125 -69.3125 C 11.160156 -68.164062 11.53125 -67.128906 11.4375 -66.203125 C 11.34375 -65.285156 10.625 -64.648438 9.28125 -64.296875 C 7.945312 -63.941406 5.710938 -64.304688 2.578125 -65.390625 C 2.578125 -67.117188 2.910156 -68.617188 3.578125 -69.890625 C 4.253906 -71.171875 5.488281 -71.8125 7.28125 -71.8125 Z M 7.28125 -71.8125 "/></g></g></g><g fill="#ffffff" fill-opacity="1"><g transform="translate(201.932853, 200.721153)"><g><path d="M -0.1875 -40.21875 C -0.1875 -41.8125 0.0820312 -43.054688 0.625 -43.953125 C 1.164062 -44.847656 2.332031 -45.296875 4.125 -45.296875 C 4.3125 -45.296875 4.675781 -45.273438 5.21875 -45.234375 C 5.757812 -45.203125 6.09375 -45.1875 6.21875 -45.1875 C 6.664062 -43.207031 7.128906 -41.050781 7.609375 -38.71875 C 8.085938 -36.394531 8.644531 -34.050781 9.28125 -31.6875 C 9.925781 -29.332031 10.644531 -27.003906 11.4375 -24.703125 C 12.238281 -22.398438 13.210938 -20.328125 14.359375 -18.484375 C 15.503906 -19.691406 16.332031 -21.125 16.84375 -22.78125 C 17.363281 -24.445312 17.75 -26.125 18 -27.8125 C 18.257812 -29.507812 18.5 -31.140625 18.71875 -32.703125 C 18.9375 -34.265625 19.394531 -35.601562 20.09375 -36.71875 C 20.800781 -37.832031 21.84375 -38.644531 23.21875 -39.15625 C 24.59375 -39.664062 26.492188 -39.664062 28.921875 -39.15625 C 31.597656 -39.15625 33.734375 -38.660156 35.328125 -37.671875 C 36.921875 -36.679688 38.304688 -35.4375 39.484375 -33.9375 C 40.671875 -32.4375 41.820312 -30.84375 42.9375 -29.15625 C 44.0625 -27.46875 45.484375 -25.953125 47.203125 -24.609375 C 47.585938 -25.441406 48.066406 -26.476562 48.640625 -27.71875 C 49.210938 -28.96875 49.929688 -30.273438 50.796875 -31.640625 C 51.660156 -33.015625 52.585938 -34.390625 53.578125 -35.765625 C 54.566406 -37.140625 55.601562 -38.382812 56.6875 -39.5 C 57.769531 -40.613281 58.882812 -41.535156 60.03125 -42.265625 C 61.1875 -43.003906 62.304688 -43.375 63.390625 -43.375 C 66.003906 -43.375 68.269531 -42.554688 70.1875 -40.921875 C 72.101562 -39.296875 73.742188 -37.253906 75.109375 -34.796875 C 76.484375 -32.347656 77.617188 -29.601562 78.515625 -26.5625 C 79.410156 -23.53125 80.113281 -20.609375 80.625 -17.796875 C 81.132812 -14.992188 81.5 -12.425781 81.71875 -10.09375 C 81.945312 -7.769531 82.0625 -6.097656 82.0625 -5.078125 C 82.0625 -4.242188 81.867188 -3.601562 81.484375 -3.15625 C 81.097656 -2.707031 80.617188 -2.367188 80.046875 -2.140625 C 79.472656 -1.921875 78.847656 -1.78125 78.171875 -1.71875 C 77.503906 -1.65625 76.882812 -1.625 76.3125 -1.625 C 76.1875 -1.625 75.992188 -1.640625 75.734375 -1.671875 C 75.484375 -1.703125 75.195312 -1.75 74.875 -1.8125 C 74.625 -1.882812 74.273438 -1.984375 73.828125 -2.109375 L 67.59375 -30.734375 C 67.59375 -30.921875 67.335938 -31.285156 66.828125 -31.828125 C 66.316406 -32.378906 65.9375 -32.71875 65.6875 -32.84375 C 65.488281 -32.84375 65.328125 -32.875 65.203125 -32.9375 C 65.078125 -32.9375 64.984375 -32.953125 64.921875 -32.984375 C 64.859375 -33.015625 64.789062 -33.03125 64.71875 -33.03125 C 63.382812 -33.03125 62.125 -32.488281 60.9375 -31.40625 C 59.757812 -30.320312 58.660156 -28.945312 57.640625 -27.28125 C 56.617188 -25.625 55.660156 -23.773438 54.765625 -21.734375 C 53.867188 -19.691406 53.070312 -17.664062 52.375 -15.65625 C 51.675781 -13.644531 51.050781 -11.789062 50.5 -10.09375 C 49.957031 -8.40625 49.53125 -7.113281 49.21875 -6.21875 C 48.957031 -6.09375 48.441406 -5.984375 47.671875 -5.890625 C 46.910156 -5.796875 46.40625 -5.75 46.15625 -5.75 C 44.363281 -5.75 42.988281 -6.367188 42.03125 -7.609375 C 41.070312 -8.859375 40.289062 -10.40625 39.6875 -12.25 C 39.082031 -14.101562 38.570312 -16.128906 38.15625 -18.328125 C 37.738281 -20.535156 37.226562 -22.5625 36.625 -24.40625 C 36.019531 -26.257812 35.1875 -27.804688 34.125 -29.046875 C 33.070312 -30.296875 31.59375 -30.921875 29.6875 -30.921875 C 28.976562 -30.921875 28.304688 -30.21875 27.671875 -28.8125 C 27.035156 -27.414062 26.460938 -25.644531 25.953125 -23.5 C 25.441406 -21.363281 24.960938 -19.066406 24.515625 -16.609375 C 24.066406 -14.148438 23.695312 -11.851562 23.40625 -9.71875 C 23.125 -7.582031 22.914062 -5.78125 22.78125 -4.3125 C 22.65625 -2.84375 22.59375 -2.109375 22.59375 -2.109375 C 22.46875 -1.910156 22.210938 -1.703125 21.828125 -1.484375 C 21.441406 -1.265625 21.039062 -1.023438 20.625 -0.765625 C 20.21875 -0.515625 19.804688 -0.320312 19.390625 -0.1875 C 18.972656 -0.0625 18.671875 0 18.484375 0 C 16.691406 0 14.960938 -0.8125 13.296875 -2.4375 C 11.640625 -4.070312 10.125 -6.179688 8.75 -8.765625 C 7.382812 -11.347656 6.140625 -14.203125 5.015625 -17.328125 C 3.898438 -20.453125 2.957031 -23.515625 2.1875 -26.515625 C 1.425781 -29.515625 0.835938 -32.226562 0.421875 -34.65625 C 0.015625 -37.082031 -0.1875 -38.9375 -0.1875 -40.21875 Z M -0.1875 -40.21875 "/></g></g></g><g fill="#ffffff" fill-opacity="1"><g transform="translate(285.993686, 200.721153)"><g><path d="M 1.921875 -39.0625 C 1.921875 -39.445312 1.9375 -40.132812 1.96875 -41.125 C 2 -42.113281 2.015625 -43.148438 2.015625 -44.234375 C 2.015625 -45.316406 2.03125 -46.320312 2.0625 -47.25 C 2.09375 -48.175781 2.109375 -48.832031 2.109375 -49.21875 C 2.554688 -49.976562 3.082031 -50.722656 3.6875 -51.453125 C 4.289062 -52.191406 4.925781 -52.703125 5.59375 -52.984375 C 6.269531 -53.273438 7.003906 -53.328125 7.796875 -53.140625 C 8.597656 -52.953125 9.414062 -52.3125 10.25 -51.21875 L 10.25 -49.21875 C 10.1875 -48.894531 10.054688 -48.140625 9.859375 -46.953125 C 9.671875 -45.773438 9.445312 -44.484375 9.1875 -43.078125 C 8.9375 -41.679688 8.695312 -40.390625 8.46875 -39.203125 C 8.25 -38.023438 8.140625 -37.273438 8.140625 -36.953125 C 8.140625 -35.742188 8.265625 -34.226562 8.515625 -32.40625 C 8.773438 -30.59375 9.144531 -28.695312 9.625 -26.71875 C 10.101562 -24.738281 10.707031 -22.757812 11.4375 -20.78125 C 12.175781 -18.800781 13.054688 -17.03125 14.078125 -15.46875 C 15.097656 -13.90625 16.226562 -12.609375 17.46875 -11.578125 C 18.71875 -10.554688 20.171875 -10.046875 21.828125 -10.046875 C 23.867188 -10.046875 25.671875 -10.585938 27.234375 -11.671875 C 28.804688 -12.765625 30.164062 -14.171875 31.3125 -15.890625 C 32.457031 -17.617188 33.394531 -19.566406 34.125 -21.734375 C 34.863281 -23.898438 35.457031 -26.082031 35.90625 -28.28125 C 36.351562 -30.488281 36.671875 -32.613281 36.859375 -34.65625 C 37.054688 -36.695312 37.15625 -38.484375 37.15625 -40.015625 C 37.15625 -41.554688 37.039062 -43.007812 36.8125 -44.375 C 36.59375 -45.75 36.320312 -47.101562 36 -48.4375 C 35.675781 -49.78125 35.40625 -51.109375 35.1875 -52.421875 C 34.96875 -53.734375 34.859375 -55.054688 34.859375 -56.390625 C 34.859375 -57.609375 35.285156 -58.472656 36.140625 -58.984375 C 37.003906 -59.492188 37.976562 -59.75 39.0625 -59.75 C 40.40625 -59.75 41.488281 -59.347656 42.3125 -58.546875 C 43.144531 -57.753906 43.800781 -56.75 44.28125 -55.53125 C 44.757812 -54.320312 45.078125 -52.9375 45.234375 -51.375 C 45.398438 -49.8125 45.484375 -48.257812 45.484375 -46.71875 C 45.484375 -45.1875 45.453125 -43.734375 45.390625 -42.359375 C 45.328125 -40.992188 45.296875 -39.894531 45.296875 -39.0625 C 45.296875 -36.894531 45.132812 -34.4375 44.8125 -31.6875 C 44.488281 -28.945312 43.925781 -26.125 43.125 -23.21875 C 42.332031 -20.3125 41.34375 -17.453125 40.15625 -14.640625 C 38.976562 -11.835938 37.546875 -9.332031 35.859375 -7.125 C 34.171875 -4.925781 32.222656 -3.15625 30.015625 -1.8125 C 27.816406 -0.476562 25.34375 0.1875 22.59375 0.1875 C 19.71875 0.1875 17.195312 -0.492188 15.03125 -1.859375 C 12.863281 -3.234375 11.03125 -5.050781 9.53125 -7.3125 C 8.03125 -9.582031 6.769531 -12.15625 5.75 -15.03125 C 4.726562 -17.90625 3.941406 -20.773438 3.390625 -23.640625 C 2.847656 -26.515625 2.46875 -29.304688 2.25 -32.015625 C 2.03125 -34.734375 1.921875 -37.082031 1.921875 -39.0625 Z M 1.921875 -39.0625 "/></g></g></g><g fill="#ffffff" fill-opacity="1"><g transform="translate(335.204698, 200.721153)"><g><path d="M 1.921875 -40.21875 C 1.921875 -40.789062 1.953125 -41.378906 2.015625 -41.984375 C 2.078125 -42.585938 2.203125 -43.128906 2.390625 -43.609375 C 2.585938 -44.085938 2.890625 -44.488281 3.296875 -44.8125 C 3.710938 -45.132812 4.304688 -45.296875 5.078125 -45.296875 C 5.710938 -45.296875 6.425781 -44.800781 7.21875 -43.8125 C 8.019531 -42.820312 8.835938 -41.578125 9.671875 -40.078125 C 10.503906 -38.578125 11.316406 -36.929688 12.109375 -35.140625 C 12.910156 -33.347656 13.613281 -31.703125 14.21875 -30.203125 C 14.820312 -28.703125 15.316406 -27.410156 15.703125 -26.328125 C 16.085938 -25.242188 16.3125 -24.671875 16.375 -24.609375 C 17.207031 -26.835938 18.132812 -29.257812 19.15625 -31.875 C 20.175781 -34.5 21.4375 -36.941406 22.9375 -39.203125 C 24.4375 -41.472656 26.222656 -43.375 28.296875 -44.90625 C 30.367188 -46.4375 32.90625 -47.203125 35.90625 -47.203125 C 37.4375 -47.203125 38.890625 -46.960938 40.265625 -46.484375 C 41.640625 -46.003906 42.851562 -45.300781 43.90625 -44.375 C 44.957031 -43.445312 45.800781 -42.34375 46.4375 -41.0625 C 47.070312 -39.789062 47.390625 -38.328125 47.390625 -36.671875 C 47.390625 -35.265625 46.832031 -34.273438 45.71875 -33.703125 C 44.601562 -33.128906 43.34375 -32.84375 41.9375 -32.84375 L 40.984375 -32.84375 L 36.859375 -36.953125 C 36.734375 -36.953125 36.640625 -36.988281 36.578125 -37.0625 C 36.453125 -37.0625 36.335938 -37.078125 36.234375 -37.109375 C 36.140625 -37.140625 36.03125 -37.15625 35.90625 -37.15625 C 33.664062 -37.15625 31.925781 -36.53125 30.6875 -35.28125 C 29.445312 -34.039062 28.503906 -32.507812 27.859375 -30.6875 C 27.222656 -28.863281 26.820312 -26.945312 26.65625 -24.9375 C 26.5 -22.925781 26.421875 -21.09375 26.421875 -19.4375 C 26.421875 -18.15625 26.546875 -16.859375 26.796875 -15.546875 C 27.054688 -14.242188 27.347656 -12.96875 27.671875 -11.71875 C 27.992188 -10.476562 28.28125 -9.203125 28.53125 -7.890625 C 28.789062 -6.585938 28.921875 -5.234375 28.921875 -3.828125 C 28.921875 -1.148438 27.484375 0.1875 24.609375 0.1875 C 23.015625 0.1875 21.351562 -0.65625 19.625 -2.34375 C 17.90625 -4.039062 16.195312 -6.195312 14.5 -8.8125 C 12.8125 -11.425781 11.203125 -14.3125 9.671875 -17.46875 C 8.140625 -20.632812 6.796875 -23.71875 5.640625 -26.71875 C 4.492188 -29.71875 3.585938 -32.425781 2.921875 -34.84375 C 2.253906 -37.269531 1.921875 -39.0625 1.921875 -40.21875 Z M 1.921875 -40.21875 "/></g></g></g><g fill="#ffffff" fill-opacity="1"><g transform="translate(384.128486, 200.721153)"><g><path d="M 43.09375 -12.359375 C 40.664062 -10.691406 38.570312 -9.203125 36.8125 -7.890625 C 35.0625 -6.585938 33.351562 -5.488281 31.6875 -4.59375 C 30.03125 -3.695312 28.257812 -3.023438 26.375 -2.578125 C 24.488281 -2.140625 22.175781 -1.921875 19.4375 -1.921875 C 13.5 -1.921875 9.09375 -3.5 6.21875 -6.65625 C 3.351562 -9.8125 1.921875 -14.519531 1.921875 -20.78125 C 1.921875 -23.207031 2.238281 -25.726562 2.875 -28.34375 C 3.507812 -30.957031 4.445312 -33.554688 5.6875 -36.140625 C 6.9375 -38.722656 8.421875 -41.179688 10.140625 -43.515625 C 11.867188 -45.847656 13.816406 -47.90625 15.984375 -49.6875 C 18.160156 -51.476562 20.476562 -52.898438 22.9375 -53.953125 C 25.394531 -55.003906 27.992188 -55.53125 30.734375 -55.53125 C 35.328125 -55.082031 38.929688 -53.945312 41.546875 -52.125 C 44.171875 -50.3125 46.148438 -47.984375 47.484375 -45.140625 C 48.828125 -42.304688 49.753906 -39.148438 50.265625 -35.671875 C 50.773438 -32.191406 51.171875 -28.597656 51.453125 -24.890625 C 51.742188 -21.191406 52.113281 -17.488281 52.5625 -13.78125 C 53.007812 -10.082031 53.9375 -6.671875 55.34375 -3.546875 C 54.507812 -1.441406 53.722656 0.0390625 52.984375 0.90625 C 52.253906 1.769531 51.441406 1.914062 50.546875 1.34375 C 49.660156 0.769531 48.625 -0.628906 47.4375 -2.859375 C 46.257812 -5.097656 44.8125 -8.265625 43.09375 -12.359375 Z M 10.046875 -20.59375 C 10.046875 -16.945312 10.734375 -14.273438 12.109375 -12.578125 C 13.484375 -10.890625 15.925781 -10.046875 19.4375 -10.046875 C 22.050781 -10.046875 24.554688 -10.507812 26.953125 -11.4375 C 29.347656 -12.363281 31.4375 -13.640625 33.21875 -15.265625 C 35.007812 -16.898438 36.445312 -18.863281 37.53125 -21.15625 C 38.613281 -23.457031 39.15625 -26.015625 39.15625 -28.828125 C 39.15625 -29.972656 39.1875 -31.582031 39.25 -33.65625 C 39.320312 -35.726562 39.195312 -37.785156 38.875 -39.828125 C 38.550781 -41.867188 37.941406 -43.640625 37.046875 -45.140625 C 36.160156 -46.640625 34.820312 -47.390625 33.03125 -47.390625 C 29.707031 -47.390625 26.640625 -46.546875 23.828125 -44.859375 C 21.023438 -43.171875 18.601562 -41.015625 16.5625 -38.390625 C 14.519531 -35.773438 12.921875 -32.882812 11.765625 -29.71875 C 10.617188 -26.5625 10.046875 -23.519531 10.046875 -20.59375 Z M 10.046875 -20.59375 "/></g></g></g></svg>