<svg xmlns="http://www.w3.org/2000/svg" xmlns:xlink="http://www.w3.org/1999/xlink" width="400" zoomAndPan="magnify" viewBox="0 0 300 112.499997" height="150" preserveAspectRatio="xMidYMid meet" version="1.0"><defs><g/></defs><g fill="#ffffff" fill-opacity="1"><g transform="translate(4.904846, 71.978506)"><g><path d="M 0.78125 -16.65625 C 0.78125 -16.96875 0.785156 -17.476562 0.796875 -18.1875 C 0.804688 -18.90625 0.8125 -19.660156 0.8125 -20.453125 C 0.8125 -21.242188 0.816406 -21.988281 0.828125 -22.6875 C 0.847656 -23.382812 0.859375 -23.875 0.859375 -24.15625 C 0.878906 -24.34375 0.941406 -24.625 1.046875 -25 C 1.148438 -25.375 1.273438 -25.742188 1.421875 -26.109375 C 1.566406 -26.472656 1.757812 -26.789062 2 -27.0625 C 2.25 -27.332031 2.554688 -27.46875 2.921875 -27.46875 C 3.773438 -27.46875 4.578125 -27.234375 5.328125 -26.765625 C 6.078125 -26.296875 6.800781 -25.679688 7.5 -24.921875 C 8.207031 -24.160156 8.878906 -23.3125 9.515625 -22.375 C 10.148438 -21.4375 10.773438 -20.503906 11.390625 -19.578125 C 12.015625 -18.660156 12.625 -17.796875 13.21875 -16.984375 C 13.820312 -16.171875 14.421875 -15.515625 15.015625 -15.015625 C 15.660156 -15.304688 16.164062 -15.832031 16.53125 -16.59375 C 16.894531 -17.363281 17.191406 -18.242188 17.421875 -19.234375 C 17.660156 -20.234375 17.875 -21.269531 18.0625 -22.34375 C 18.257812 -23.425781 18.523438 -24.421875 18.859375 -25.328125 C 19.203125 -26.234375 19.648438 -26.976562 20.203125 -27.5625 C 20.765625 -28.144531 21.539062 -28.4375 22.53125 -28.4375 C 23.695312 -28.4375 24.753906 -27.984375 25.703125 -27.078125 C 26.648438 -26.171875 27.5 -25.015625 28.25 -23.609375 C 29 -22.210938 29.640625 -20.65625 30.171875 -18.9375 C 30.703125 -17.226562 31.148438 -15.582031 31.515625 -14 C 31.878906 -12.425781 32.148438 -11.003906 32.328125 -9.734375 C 32.515625 -8.460938 32.609375 -7.550781 32.609375 -7 C 32.609375 -6.769531 32.59375 -6.519531 32.5625 -6.25 C 32.539062 -5.976562 32.476562 -5.726562 32.375 -5.5 C 32.269531 -5.28125 32.097656 -5.113281 31.859375 -5 C 31.628906 -4.882812 31.296875 -4.890625 30.859375 -5.015625 C 30.722656 -5.046875 30.570312 -5.117188 30.40625 -5.234375 C 30.238281 -5.347656 30.0625 -5.492188 29.875 -5.671875 C 29.695312 -5.859375 29.539062 -6.035156 29.40625 -6.203125 C 29.28125 -6.367188 29.21875 -6.519531 29.21875 -6.65625 C 28.988281 -7.925781 28.726562 -9.335938 28.4375 -10.890625 C 28.15625 -12.453125 27.800781 -14.03125 27.375 -15.625 C 26.945312 -17.21875 26.40625 -18.765625 25.75 -20.265625 C 25.101562 -21.773438 24.300781 -23.070312 23.34375 -24.15625 C 22.59375 -23.75 22.003906 -23.125 21.578125 -22.28125 C 21.148438 -21.4375 20.789062 -20.515625 20.5 -19.515625 C 20.21875 -18.515625 19.957031 -17.492188 19.71875 -16.453125 C 19.488281 -15.421875 19.175781 -14.484375 18.78125 -13.640625 C 18.394531 -12.796875 17.90625 -12.097656 17.3125 -11.546875 C 16.71875 -11.003906 15.914062 -10.734375 14.90625 -10.734375 C 14.207031 -10.734375 13.523438 -10.957031 12.859375 -11.40625 C 12.203125 -11.863281 11.5625 -12.460938 10.9375 -13.203125 C 10.3125 -13.941406 9.707031 -14.757812 9.125 -15.65625 C 8.539062 -16.550781 7.96875 -17.429688 7.40625 -18.296875 C 6.851562 -19.171875 6.3125 -19.984375 5.78125 -20.734375 C 5.25 -21.492188 4.707031 -22.09375 4.15625 -22.53125 C 3.957031 -21.726562 3.796875 -21.019531 3.671875 -20.40625 C 3.554688 -19.800781 3.46875 -19.210938 3.40625 -18.640625 C 3.34375 -18.066406 3.300781 -17.476562 3.28125 -16.875 C 3.269531 -16.28125 3.265625 -15.625 3.265625 -14.90625 C 3.265625 -13.8125 3.351562 -12.722656 3.53125 -11.640625 C 3.71875 -10.566406 3.914062 -9.5 4.125 -8.4375 C 4.332031 -7.375 4.53125 -6.304688 4.71875 -5.234375 C 4.914062 -4.160156 5.015625 -3.078125 5.015625 -1.984375 L 5.015625 -1.671875 C 4.960938 -1.597656 4.859375 -1.472656 4.703125 -1.296875 C 4.546875 -1.128906 4.382812 -0.953125 4.21875 -0.765625 C 4.050781 -0.585938 3.875 -0.425781 3.6875 -0.28125 C 3.507812 -0.144531 3.382812 -0.0507812 3.3125 0 C 3.28125 0.0195312 3.226562 0.03125 3.15625 0.03125 C 3.070312 0.0625 2.992188 0.078125 2.921875 0.078125 C 2.867188 0.078125 2.800781 0.0625 2.71875 0.03125 C 2.644531 0.0078125 2.582031 0 2.53125 0 C 2.34375 -1.5 2.144531 -2.921875 1.9375 -4.265625 C 1.738281 -5.617188 1.550781 -6.957031 1.375 -8.28125 C 1.207031 -9.601562 1.066406 -10.9375 0.953125 -12.28125 C 0.835938 -13.632812 0.78125 -15.09375 0.78125 -16.65625 Z M 0.78125 -16.65625 "/></g></g></g><g fill="#ffffff" fill-opacity="1"><g transform="translate(39.067657, 71.978506)"><g><path d="M 2.40625 -14.59375 C 2.40625 -14.75 2.410156 -15 2.421875 -15.34375 C 2.441406 -15.695312 2.457031 -16.066406 2.46875 -16.453125 C 2.476562 -16.847656 2.488281 -17.222656 2.5 -17.578125 C 2.519531 -17.941406 2.53125 -18.203125 2.53125 -18.359375 C 2.8125 -18.773438 3.175781 -19.113281 3.625 -19.375 C 4.082031 -19.632812 4.546875 -19.84375 5.015625 -20 C 5.097656 -18.601562 5.316406 -17.113281 5.671875 -15.53125 C 6.035156 -13.945312 6.425781 -12.351562 6.84375 -10.75 C 7.257812 -9.15625 7.628906 -7.582031 7.953125 -6.03125 C 8.273438 -4.476562 8.4375 -3.023438 8.4375 -1.671875 C 8.4375 -0.503906 7.84375 0.078125 6.65625 0.078125 C 5.925781 0.078125 5.3125 -0.21875 4.8125 -0.8125 C 4.320312 -1.414062 3.925781 -2.175781 3.625 -3.09375 C 3.332031 -4.007812 3.09375 -5.03125 2.90625 -6.15625 C 2.726562 -7.289062 2.609375 -8.398438 2.546875 -9.484375 C 2.484375 -10.578125 2.441406 -11.578125 2.421875 -12.484375 C 2.410156 -13.398438 2.40625 -14.101562 2.40625 -14.59375 Z M 2.953125 -29.1875 C 3.453125 -28.976562 3.867188 -28.640625 4.203125 -28.171875 C 4.535156 -27.703125 4.679688 -27.28125 4.640625 -26.90625 C 4.609375 -26.53125 4.316406 -26.269531 3.765625 -26.125 C 3.222656 -25.976562 2.316406 -26.128906 1.046875 -26.578125 C 1.046875 -27.273438 1.179688 -27.882812 1.453125 -28.40625 C 1.734375 -28.925781 2.234375 -29.1875 2.953125 -29.1875 Z M 2.953125 -29.1875 "/></g></g></g><g fill="#ffffff" fill-opacity="1"><g transform="translate(48.250372, 71.978506)"><g><path d="M 0.109375 -20.109375 C 0.109375 -20.347656 0.113281 -20.585938 0.125 -20.828125 C 0.144531 -21.078125 0.195312 -21.3125 0.28125 -21.53125 C 0.375 -21.757812 0.503906 -21.929688 0.671875 -22.046875 C 0.847656 -22.160156 1.101562 -22.21875 1.4375 -22.21875 C 1.46875 -22.21875 1.5 -22.21875 1.53125 -22.21875 C 1.570312 -22.21875 1.617188 -22.21875 1.671875 -22.21875 C 1.753906 -22.1875 1.820312 -22.171875 1.875 -22.171875 C 2.363281 -21.503906 2.789062 -20.644531 3.15625 -19.59375 C 3.519531 -18.539062 3.867188 -17.421875 4.203125 -16.234375 C 4.535156 -15.054688 4.894531 -13.863281 5.28125 -12.65625 C 5.675781 -11.457031 6.1875 -10.375 6.8125 -9.40625 C 7.4375 -8.445312 8.203125 -7.679688 9.109375 -7.109375 C 10.015625 -6.546875 11.140625 -6.300781 12.484375 -6.375 C 13.085938 -6.375 13.476562 -6.695312 13.65625 -7.34375 C 13.84375 -8 13.941406 -8.832031 13.953125 -9.84375 C 13.960938 -10.851562 13.9375 -11.96875 13.875 -13.1875 C 13.8125 -14.40625 13.8125 -15.566406 13.875 -16.671875 C 13.9375 -17.773438 14.128906 -18.738281 14.453125 -19.5625 C 14.773438 -20.394531 15.335938 -20.957031 16.140625 -21.25 C 16.484375 -20.570312 16.765625 -19.515625 16.984375 -18.078125 C 17.203125 -16.640625 17.363281 -14.976562 17.46875 -13.09375 C 17.570312 -11.207031 17.625 -9.171875 17.625 -6.984375 C 17.625 -4.796875 17.570312 -2.617188 17.46875 -0.453125 C 17.363281 1.710938 17.207031 3.796875 17 5.796875 C 16.789062 7.796875 16.554688 9.546875 16.296875 11.046875 C 16.046875 12.554688 15.742188 13.742188 15.390625 14.609375 C 15.035156 15.484375 14.664062 15.851562 14.28125 15.71875 C 13.738281 15.195312 13.316406 14.519531 13.015625 13.6875 C 12.710938 12.863281 12.503906 11.945312 12.390625 10.9375 C 12.273438 9.925781 12.226562 8.851562 12.25 7.71875 C 12.28125 6.59375 12.328125 5.457031 12.390625 4.3125 C 12.453125 3.175781 12.53125 2.0625 12.625 0.96875 C 12.71875 -0.113281 12.765625 -1.109375 12.765625 -2.015625 C 11.828125 -1.941406 10.867188 -2.085938 9.890625 -2.453125 C 8.921875 -2.816406 7.96875 -3.378906 7.03125 -4.140625 C 6.101562 -4.910156 5.21875 -5.835938 4.375 -6.921875 C 3.53125 -8.015625 2.789062 -9.25 2.15625 -10.625 C 1.519531 -12 1.019531 -13.484375 0.65625 -15.078125 C 0.289062 -16.671875 0.109375 -18.347656 0.109375 -20.109375 Z M 0.109375 -20.109375 "/></g></g></g><g fill="#ffffff" fill-opacity="1"><g transform="translate(67.432907, 71.978506)"><g><path d="M 0.78125 -7.90625 C 0.78125 -9.507812 1.15625 -11.003906 1.90625 -12.390625 C 2.65625 -13.773438 3.644531 -14.96875 4.875 -15.96875 C 6.113281 -16.96875 7.503906 -17.753906 9.046875 -18.328125 C 10.585938 -18.898438 12.148438 -19.1875 13.734375 -19.1875 C 14.617188 -19.1875 15.40625 -18.898438 16.09375 -18.328125 C 16.78125 -17.753906 17.351562 -17.054688 17.8125 -16.234375 C 18.28125 -15.421875 18.640625 -14.5625 18.890625 -13.65625 C 19.140625 -12.75 19.265625 -11.957031 19.265625 -11.28125 C 19.265625 -9.832031 18.910156 -8.425781 18.203125 -7.0625 C 17.503906 -5.695312 16.597656 -4.488281 15.484375 -3.4375 C 14.367188 -2.394531 13.109375 -1.546875 11.703125 -0.890625 C 10.304688 -0.242188 8.910156 0.078125 7.515625 0.078125 C 6.265625 0.078125 5.210938 -0.132812 4.359375 -0.5625 C 3.503906 -0.988281 2.816406 -1.554688 2.296875 -2.265625 C 1.773438 -2.984375 1.390625 -3.828125 1.140625 -4.796875 C 0.898438 -5.773438 0.78125 -6.8125 0.78125 -7.90625 Z M 4.078125 -7.515625 C 4.078125 -6.835938 4.132812 -6.242188 4.25 -5.734375 C 4.375 -5.234375 4.582031 -4.800781 4.875 -4.4375 C 5.175781 -4.070312 5.570312 -3.789062 6.0625 -3.59375 C 6.5625 -3.40625 7.175781 -3.3125 7.90625 -3.3125 C 8.863281 -3.3125 9.820312 -3.578125 10.78125 -4.109375 C 11.738281 -4.640625 12.597656 -5.3125 13.359375 -6.125 C 14.128906 -6.945312 14.75 -7.847656 15.21875 -8.828125 C 15.6875 -9.816406 15.921875 -10.78125 15.921875 -11.71875 C 15.921875 -12.125 15.878906 -12.570312 15.796875 -13.0625 C 15.722656 -13.5625 15.59375 -14.019531 15.40625 -14.4375 C 15.226562 -14.851562 14.96875 -15.203125 14.625 -15.484375 C 14.289062 -15.773438 13.863281 -15.921875 13.34375 -15.921875 C 12.875 -15.921875 12.320312 -15.765625 11.6875 -15.453125 C 11.050781 -15.140625 10.390625 -14.734375 9.703125 -14.234375 C 9.015625 -13.742188 8.335938 -13.1875 7.671875 -12.5625 C 7.015625 -11.945312 6.414062 -11.328125 5.875 -10.703125 C 5.332031 -10.078125 4.894531 -9.476562 4.5625 -8.90625 C 4.238281 -8.332031 4.078125 -7.867188 4.078125 -7.515625 Z M 4.078125 -7.515625 "/></g></g></g><g fill="#ffffff" fill-opacity="1"><g transform="translate(87.432548, 71.978506)"><g><path d="M 8.328125 -0.78125 C 7.910156 -0.414062 7.472656 -0.582031 7.015625 -1.28125 C 6.566406 -1.976562 6.109375 -3.035156 5.640625 -4.453125 C 5.171875 -5.867188 4.707031 -7.5625 4.25 -9.53125 C 3.800781 -11.5 3.367188 -13.585938 2.953125 -15.796875 C 2.535156 -18.003906 2.140625 -20.238281 1.765625 -22.5 C 1.390625 -24.769531 1.0625 -26.90625 0.78125 -28.90625 C 0.78125 -29.269531 0.769531 -29.640625 0.75 -30.015625 C 0.738281 -30.390625 0.78125 -30.738281 0.875 -31.0625 C 0.96875 -31.394531 1.132812 -31.6875 1.375 -31.9375 C 1.625 -32.195312 2.007812 -32.394531 2.53125 -32.53125 C 2.582031 -32.550781 2.691406 -32.53125 2.859375 -32.46875 C 3.023438 -32.40625 3.195312 -32.328125 3.375 -32.234375 C 3.5625 -32.140625 3.722656 -32.039062 3.859375 -31.9375 C 4.003906 -31.84375 4.101562 -31.753906 4.15625 -31.671875 C 3.820312 -26.816406 4.382812 -22.097656 5.84375 -17.515625 C 5.914062 -17.585938 6.117188 -17.847656 6.453125 -18.296875 C 6.796875 -18.753906 7.222656 -19.285156 7.734375 -19.890625 C 8.253906 -20.503906 8.84375 -21.160156 9.5 -21.859375 C 10.164062 -22.566406 10.863281 -23.21875 11.59375 -23.8125 C 12.320312 -24.40625 13.046875 -24.898438 13.765625 -25.296875 C 14.492188 -25.703125 15.195312 -25.90625 15.875 -25.90625 C 16.257812 -25.90625 16.640625 -25.816406 17.015625 -25.640625 C 17.398438 -25.460938 17.59375 -25.113281 17.59375 -24.59375 C 17.59375 -24.539062 17.578125 -24.46875 17.546875 -24.375 C 17.523438 -24.28125 17.515625 -24.207031 17.515625 -24.15625 C 17.097656 -23.800781 16.46875 -23.242188 15.625 -22.484375 C 14.78125 -21.734375 13.890625 -20.890625 12.953125 -19.953125 C 12.023438 -19.023438 11.128906 -18.054688 10.265625 -17.046875 C 9.410156 -16.035156 8.765625 -15.070312 8.328125 -14.15625 C 8.242188 -14.007812 8.210938 -13.875 8.234375 -13.75 C 8.265625 -13.632812 8.296875 -13.5 8.328125 -13.34375 C 8.609375 -13.238281 9.0625 -13.082031 9.6875 -12.875 C 10.3125 -12.664062 11 -12.425781 11.75 -12.15625 C 12.5 -11.882812 13.300781 -11.597656 14.15625 -11.296875 C 15.019531 -11.003906 15.828125 -10.710938 16.578125 -10.421875 C 17.328125 -10.140625 18.003906 -9.890625 18.609375 -9.671875 C 19.222656 -9.453125 19.6875 -9.289062 20 -9.1875 C 20.363281 -9.03125 20.660156 -8.925781 20.890625 -8.875 C 21.128906 -8.820312 21.3125 -8.75 21.4375 -8.65625 C 21.570312 -8.5625 21.664062 -8.4375 21.71875 -8.28125 C 21.769531 -8.125 21.796875 -7.894531 21.796875 -7.59375 C 21.796875 -6.832031 21.613281 -6.335938 21.25 -6.109375 C 20.882812 -5.878906 20.363281 -5.765625 19.6875 -5.765625 C 17.6875 -5.890625 15.726562 -6.304688 13.8125 -7.015625 C 11.894531 -7.734375 9.945312 -8.597656 7.96875 -9.609375 C 7.894531 -9.117188 7.925781 -8.546875 8.0625 -7.890625 C 8.207031 -7.242188 8.382812 -6.597656 8.59375 -5.953125 C 8.800781 -5.304688 9.003906 -4.671875 9.203125 -4.046875 C 9.398438 -3.421875 9.515625 -2.863281 9.546875 -2.375 C 9.585938 -1.882812 9.53125 -1.492188 9.375 -1.203125 C 9.21875 -0.921875 8.867188 -0.78125 8.328125 -0.78125 Z M 8.328125 -0.78125 "/></g></g></g><g fill="#ffffff" fill-opacity="1"><g transform="translate(109.961327, 71.978506)"><g><path d="M 0.78125 -7.90625 C 0.78125 -9.507812 1.15625 -11.003906 1.90625 -12.390625 C 2.65625 -13.773438 3.644531 -14.96875 4.875 -15.96875 C 6.113281 -16.96875 7.503906 -17.753906 9.046875 -18.328125 C 10.585938 -18.898438 12.148438 -19.1875 13.734375 -19.1875 C 14.617188 -19.1875 15.40625 -18.898438 16.09375 -18.328125 C 16.78125 -17.753906 17.351562 -17.054688 17.8125 -16.234375 C 18.28125 -15.421875 18.640625 -14.5625 18.890625 -13.65625 C 19.140625 -12.75 19.265625 -11.957031 19.265625 -11.28125 C 19.265625 -9.832031 18.910156 -8.425781 18.203125 -7.0625 C 17.503906 -5.695312 16.597656 -4.488281 15.484375 -3.4375 C 14.367188 -2.394531 13.109375 -1.546875 11.703125 -0.890625 C 10.304688 -0.242188 8.910156 0.078125 7.515625 0.078125 C 6.265625 0.078125 5.210938 -0.132812 4.359375 -0.5625 C 3.503906 -0.988281 2.816406 -1.554688 2.296875 -2.265625 C 1.773438 -2.984375 1.390625 -3.828125 1.140625 -4.796875 C 0.898438 -5.773438 0.78125 -6.8125 0.78125 -7.90625 Z M 4.078125 -7.515625 C 4.078125 -6.835938 4.132812 -6.242188 4.25 -5.734375 C 4.375 -5.234375 4.582031 -4.800781 4.875 -4.4375 C 5.175781 -4.070312 5.570312 -3.789062 6.0625 -3.59375 C 6.5625 -3.40625 7.175781 -3.3125 7.90625 -3.3125 C 8.863281 -3.3125 9.820312 -3.578125 10.78125 -4.109375 C 11.738281 -4.640625 12.597656 -5.3125 13.359375 -6.125 C 14.128906 -6.945312 14.75 -7.847656 15.21875 -8.828125 C 15.6875 -9.816406 15.921875 -10.78125 15.921875 -11.71875 C 15.921875 -12.125 15.878906 -12.570312 15.796875 -13.0625 C 15.722656 -13.5625 15.59375 -14.019531 15.40625 -14.4375 C 15.226562 -14.851562 14.96875 -15.203125 14.625 -15.484375 C 14.289062 -15.773438 13.863281 -15.921875 13.34375 -15.921875 C 12.875 -15.921875 12.320312 -15.765625 11.6875 -15.453125 C 11.050781 -15.140625 10.390625 -14.734375 9.703125 -14.234375 C 9.015625 -13.742188 8.335938 -13.1875 7.671875 -12.5625 C 7.015625 -11.945312 6.414062 -11.328125 5.875 -10.703125 C 5.332031 -10.078125 4.894531 -9.476562 4.5625 -8.90625 C 4.238281 -8.332031 4.078125 -7.867188 4.078125 -7.515625 Z M 4.078125 -7.515625 "/></g></g></g><g fill="#ffffff" fill-opacity="1"><g transform="translate(129.960968, 71.978506)"><g/></g></g><g fill="#ffffff" fill-opacity="1"><g transform="translate(147.898389, 71.978506)"><g><path d="M 6.65625 -1.671875 C 6.78125 -2.296875 7.109375 -2.804688 7.640625 -3.203125 C 8.171875 -3.609375 8.78125 -3.976562 9.46875 -4.3125 C 10.15625 -4.65625 10.875 -4.972656 11.625 -5.265625 C 12.382812 -5.566406 13.082031 -5.882812 13.71875 -6.21875 C 14.351562 -6.5625 14.878906 -6.957031 15.296875 -7.40625 C 15.710938 -7.863281 15.921875 -8.414062 15.921875 -9.0625 C 15.921875 -9.894531 15.703125 -10.582031 15.265625 -11.125 C 14.835938 -11.675781 14.265625 -12.144531 13.546875 -12.53125 C 12.835938 -12.914062 12.03125 -13.238281 11.125 -13.5 C 10.21875 -13.757812 9.289062 -14.023438 8.34375 -14.296875 C 7.394531 -14.566406 6.46875 -14.863281 5.5625 -15.1875 C 4.65625 -15.519531 3.84375 -15.929688 3.125 -16.421875 C 2.414062 -16.910156 1.847656 -17.503906 1.421875 -18.203125 C 0.992188 -18.910156 0.78125 -19.78125 0.78125 -20.8125 C 0.78125 -21.664062 0.953125 -22.472656 1.296875 -23.234375 C 1.648438 -24.003906 2.117188 -24.734375 2.703125 -25.421875 C 3.285156 -26.109375 3.957031 -26.738281 4.71875 -27.3125 C 5.488281 -27.882812 6.296875 -28.363281 7.140625 -28.75 C 7.984375 -29.144531 8.832031 -29.453125 9.6875 -29.671875 C 10.539062 -29.890625 11.332031 -30 12.0625 -30 L 12.484375 -30 C 12.722656 -29.925781 13.035156 -29.796875 13.421875 -29.609375 C 13.804688 -29.429688 14.179688 -29.253906 14.546875 -29.078125 C 14.910156 -28.910156 15.222656 -28.753906 15.484375 -28.609375 C 15.742188 -28.472656 15.875 -28.390625 15.875 -28.359375 L 15.875 -27.46875 C 15.382812 -27.414062 14.75 -27.316406 13.96875 -27.171875 C 13.1875 -27.035156 12.367188 -26.847656 11.515625 -26.609375 C 10.660156 -26.378906 9.789062 -26.085938 8.90625 -25.734375 C 8.03125 -25.390625 7.238281 -24.984375 6.53125 -24.515625 C 5.832031 -24.046875 5.257812 -23.503906 4.8125 -22.890625 C 4.375 -22.285156 4.15625 -21.59375 4.15625 -20.8125 C 4.15625 -19.695312 4.546875 -18.820312 5.328125 -18.1875 C 6.109375 -17.550781 7.082031 -17.023438 8.25 -16.609375 C 9.414062 -16.191406 10.691406 -15.820312 12.078125 -15.5 C 13.460938 -15.175781 14.738281 -14.785156 15.90625 -14.328125 C 17.082031 -13.878906 18.054688 -13.285156 18.828125 -12.546875 C 19.609375 -11.804688 20 -10.816406 20 -9.578125 C 20 -8.898438 19.796875 -8.191406 19.390625 -7.453125 C 18.992188 -6.710938 18.460938 -5.984375 17.796875 -5.265625 C 17.140625 -4.554688 16.394531 -3.875 15.5625 -3.21875 C 14.726562 -2.570312 13.878906 -2.007812 13.015625 -1.53125 C 12.148438 -1.050781 11.300781 -0.660156 10.46875 -0.359375 C 9.632812 -0.0664062 8.894531 0.078125 8.25 0.078125 C 8.039062 0.078125 7.816406 0.0507812 7.578125 0 C 7.347656 -0.0507812 7.148438 -0.132812 6.984375 -0.25 C 6.816406 -0.363281 6.6875 -0.535156 6.59375 -0.765625 C 6.5 -1.003906 6.519531 -1.304688 6.65625 -1.671875 Z M 6.65625 -1.671875 "/></g></g></g><g fill="#ffffff" fill-opacity="1"><g transform="translate(168.715136, 71.978506)"><g><path d="M 1.90625 -25.296875 C 1.90625 -25.578125 1.9375 -25.929688 2 -26.359375 C 2.0625 -26.785156 2.175781 -27.191406 2.34375 -27.578125 C 2.519531 -27.972656 2.738281 -28.304688 3 -28.578125 C 3.257812 -28.847656 3.59375 -28.984375 4 -28.984375 C 4.03125 -28.984375 4.097656 -28.96875 4.203125 -28.9375 C 4.304688 -28.914062 4.367188 -28.90625 4.390625 -28.90625 C 4.835938 -27.300781 5.097656 -25.707031 5.171875 -24.125 C 5.253906 -22.539062 5.226562 -21.003906 5.09375 -19.515625 C 4.96875 -18.023438 4.773438 -16.582031 4.515625 -15.1875 C 4.253906 -13.800781 4.039062 -12.523438 3.875 -11.359375 C 3.707031 -10.191406 3.601562 -9.140625 3.5625 -8.203125 C 3.519531 -7.273438 3.65625 -6.488281 3.96875 -5.84375 C 3.914062 -6.25 3.882812 -6.742188 3.875 -7.328125 C 3.863281 -7.910156 3.914062 -8.515625 4.03125 -9.140625 C 4.144531 -9.765625 4.335938 -10.390625 4.609375 -11.015625 C 4.878906 -11.640625 5.273438 -12.195312 5.796875 -12.6875 C 6.316406 -13.175781 6.984375 -13.5625 7.796875 -13.84375 C 8.617188 -14.132812 9.640625 -14.28125 10.859375 -14.28125 C 12.128906 -14.28125 13.222656 -14.054688 14.140625 -13.609375 C 15.066406 -13.171875 15.828125 -12.566406 16.421875 -11.796875 C 17.015625 -11.035156 17.457031 -10.144531 17.75 -9.125 C 18.050781 -8.101562 18.203125 -7.007812 18.203125 -5.84375 C 18.203125 -5.289062 18.195312 -4.671875 18.1875 -3.984375 C 18.175781 -3.296875 18.085938 -2.660156 17.921875 -2.078125 C 17.753906 -1.492188 17.453125 -1 17.015625 -0.59375 C 16.585938 -0.195312 15.960938 0 15.140625 0 C 15.140625 -0.414062 15.164062 -0.976562 15.21875 -1.6875 C 15.269531 -2.40625 15.300781 -3.164062 15.3125 -3.96875 C 15.320312 -4.769531 15.296875 -5.585938 15.234375 -6.421875 C 15.171875 -7.253906 14.992188 -8 14.703125 -8.65625 C 14.421875 -9.320312 14.023438 -9.867188 13.515625 -10.296875 C 13.015625 -10.722656 12.320312 -10.9375 11.4375 -10.9375 C 11.125 -10.9375 10.738281 -10.914062 10.28125 -10.875 C 9.832031 -10.832031 9.375 -10.707031 8.90625 -10.5 C 8.4375 -10.289062 7.984375 -9.972656 7.546875 -9.546875 C 7.109375 -9.117188 6.757812 -8.535156 6.5 -7.796875 C 6.238281 -7.054688 6.085938 -6.125 6.046875 -5 C 6.003906 -3.875 6.140625 -2.492188 6.453125 -0.859375 C 6.273438 -0.390625 6.050781 -0.113281 5.78125 -0.03125 C 5.507812 0.0390625 5.164062 0.078125 4.75 0.078125 C 3.914062 0.078125 3.234375 -0.210938 2.703125 -0.796875 C 2.171875 -1.378906 1.757812 -2.160156 1.46875 -3.140625 C 1.1875 -4.128906 1 -5.269531 0.90625 -6.5625 C 0.820312 -7.863281 0.789062 -9.222656 0.8125 -10.640625 C 0.84375 -12.054688 0.914062 -13.492188 1.03125 -14.953125 C 1.144531 -16.421875 1.257812 -17.8125 1.375 -19.125 C 1.5 -20.4375 1.617188 -21.628906 1.734375 -22.703125 C 1.847656 -23.773438 1.90625 -24.640625 1.90625 -25.296875 Z M 1.90625 -25.296875 "/></g></g></g><g fill="#ffffff" fill-opacity="1"><g transform="translate(187.703122, 71.978506)"><g><path d="M 2.40625 -14.59375 C 2.40625 -14.75 2.410156 -15 2.421875 -15.34375 C 2.441406 -15.695312 2.457031 -16.066406 2.46875 -16.453125 C 2.476562 -16.847656 2.488281 -17.222656 2.5 -17.578125 C 2.519531 -17.941406 2.53125 -18.203125 2.53125 -18.359375 C 2.8125 -18.773438 3.175781 -19.113281 3.625 -19.375 C 4.082031 -19.632812 4.546875 -19.84375 5.015625 -20 C 5.097656 -18.601562 5.316406 -17.113281 5.671875 -15.53125 C 6.035156 -13.945312 6.425781 -12.351562 6.84375 -10.75 C 7.257812 -9.15625 7.628906 -7.582031 7.953125 -6.03125 C 8.273438 -4.476562 8.4375 -3.023438 8.4375 -1.671875 C 8.4375 -0.503906 7.84375 0.078125 6.65625 0.078125 C 5.925781 0.078125 5.3125 -0.21875 4.8125 -0.8125 C 4.320312 -1.414062 3.925781 -2.175781 3.625 -3.09375 C 3.332031 -4.007812 3.09375 -5.03125 2.90625 -6.15625 C 2.726562 -7.289062 2.609375 -8.398438 2.546875 -9.484375 C 2.484375 -10.578125 2.441406 -11.578125 2.421875 -12.484375 C 2.410156 -13.398438 2.40625 -14.101562 2.40625 -14.59375 Z M 2.953125 -29.1875 C 3.453125 -28.976562 3.867188 -28.640625 4.203125 -28.171875 C 4.535156 -27.703125 4.679688 -27.28125 4.640625 -26.90625 C 4.609375 -26.53125 4.316406 -26.269531 3.765625 -26.125 C 3.222656 -25.976562 2.316406 -26.128906 1.046875 -26.578125 C 1.046875 -27.273438 1.179688 -27.882812 1.453125 -28.40625 C 1.734375 -28.925781 2.234375 -29.1875 2.953125 -29.1875 Z M 2.953125 -29.1875 "/></g></g></g><g fill="#ffffff" fill-opacity="1"><g transform="translate(196.885837, 71.978506)"><g><path d="M -0.078125 -16.34375 C -0.078125 -16.988281 0.03125 -17.492188 0.25 -17.859375 C 0.46875 -18.222656 0.941406 -18.40625 1.671875 -18.40625 C 1.753906 -18.40625 1.90625 -18.394531 2.125 -18.375 C 2.34375 -18.363281 2.476562 -18.359375 2.53125 -18.359375 C 2.707031 -17.554688 2.894531 -16.679688 3.09375 -15.734375 C 3.289062 -14.785156 3.515625 -13.832031 3.765625 -12.875 C 4.023438 -11.914062 4.316406 -10.96875 4.640625 -10.03125 C 4.972656 -9.101562 5.375 -8.265625 5.84375 -7.515625 C 6.300781 -8.003906 6.632812 -8.582031 6.84375 -9.25 C 7.050781 -9.925781 7.207031 -10.609375 7.3125 -11.296875 C 7.414062 -11.984375 7.515625 -12.644531 7.609375 -13.28125 C 7.703125 -13.914062 7.890625 -14.460938 8.171875 -14.921875 C 8.453125 -15.378906 8.867188 -15.707031 9.421875 -15.90625 C 9.984375 -16.113281 10.757812 -16.117188 11.75 -15.921875 C 12.84375 -15.921875 13.710938 -15.71875 14.359375 -15.3125 C 15.003906 -14.90625 15.566406 -14.394531 16.046875 -13.78125 C 16.523438 -13.175781 16.988281 -12.53125 17.4375 -11.84375 C 17.894531 -11.15625 18.476562 -10.539062 19.1875 -10 C 19.34375 -10.332031 19.535156 -10.75 19.765625 -11.25 C 19.992188 -11.757812 20.285156 -12.296875 20.640625 -12.859375 C 20.992188 -13.421875 21.367188 -13.976562 21.765625 -14.53125 C 22.171875 -15.09375 22.59375 -15.597656 23.03125 -16.046875 C 23.476562 -16.503906 23.929688 -16.878906 24.390625 -17.171875 C 24.859375 -17.472656 25.316406 -17.625 25.765625 -17.625 C 26.828125 -17.625 27.742188 -17.289062 28.515625 -16.625 C 29.296875 -15.96875 29.960938 -15.140625 30.515625 -14.140625 C 31.078125 -13.140625 31.539062 -12.023438 31.90625 -10.796875 C 32.269531 -9.566406 32.554688 -8.378906 32.765625 -7.234375 C 32.972656 -6.097656 33.117188 -5.054688 33.203125 -4.109375 C 33.296875 -3.160156 33.34375 -2.476562 33.34375 -2.0625 C 33.34375 -1.726562 33.265625 -1.46875 33.109375 -1.28125 C 32.953125 -1.101562 32.753906 -0.96875 32.515625 -0.875 C 32.285156 -0.78125 32.035156 -0.71875 31.765625 -0.6875 C 31.492188 -0.664062 31.242188 -0.65625 31.015625 -0.65625 C 30.960938 -0.65625 30.882812 -0.660156 30.78125 -0.671875 C 30.675781 -0.691406 30.554688 -0.710938 30.421875 -0.734375 C 30.316406 -0.765625 30.175781 -0.804688 30 -0.859375 L 27.46875 -12.484375 C 27.46875 -12.566406 27.363281 -12.71875 27.15625 -12.9375 C 26.945312 -13.15625 26.789062 -13.289062 26.6875 -13.34375 C 26.613281 -13.34375 26.550781 -13.359375 26.5 -13.390625 C 26.445312 -13.390625 26.40625 -13.394531 26.375 -13.40625 C 26.351562 -13.414062 26.328125 -13.421875 26.296875 -13.421875 C 25.753906 -13.421875 25.242188 -13.195312 24.765625 -12.75 C 24.285156 -12.3125 23.835938 -11.753906 23.421875 -11.078125 C 23.003906 -10.410156 22.613281 -9.660156 22.25 -8.828125 C 21.894531 -8.003906 21.570312 -7.179688 21.28125 -6.359375 C 21 -5.546875 20.742188 -4.796875 20.515625 -4.109375 C 20.296875 -3.421875 20.125 -2.894531 20 -2.53125 C 19.894531 -2.476562 19.6875 -2.429688 19.375 -2.390625 C 19.0625 -2.347656 18.851562 -2.328125 18.75 -2.328125 C 18.03125 -2.328125 17.472656 -2.582031 17.078125 -3.09375 C 16.691406 -3.601562 16.375 -4.234375 16.125 -4.984375 C 15.882812 -5.734375 15.675781 -6.554688 15.5 -7.453125 C 15.332031 -8.347656 15.125 -9.171875 14.875 -9.921875 C 14.632812 -10.671875 14.300781 -11.296875 13.875 -11.796875 C 13.445312 -12.304688 12.84375 -12.5625 12.0625 -12.5625 C 11.78125 -12.5625 11.507812 -12.273438 11.25 -11.703125 C 10.988281 -11.140625 10.753906 -10.421875 10.546875 -9.546875 C 10.335938 -8.679688 10.140625 -7.75 9.953125 -6.75 C 9.773438 -5.75 9.628906 -4.8125 9.515625 -3.9375 C 9.398438 -3.070312 9.316406 -2.34375 9.265625 -1.75 C 9.210938 -1.15625 9.1875 -0.859375 9.1875 -0.859375 C 9.132812 -0.773438 9.03125 -0.6875 8.875 -0.59375 C 8.71875 -0.507812 8.550781 -0.414062 8.375 -0.3125 C 8.207031 -0.207031 8.039062 -0.128906 7.875 -0.078125 C 7.707031 -0.0234375 7.585938 0 7.515625 0 C 6.785156 0 6.082031 -0.328125 5.40625 -0.984375 C 4.726562 -1.648438 4.109375 -2.507812 3.546875 -3.5625 C 2.992188 -4.613281 2.488281 -5.773438 2.03125 -7.046875 C 1.582031 -8.316406 1.203125 -9.5625 0.890625 -10.78125 C 0.578125 -12 0.335938 -13.097656 0.171875 -14.078125 C 0.00390625 -15.066406 -0.078125 -15.820312 -0.078125 -16.34375 Z M -0.078125 -16.34375 "/></g></g></g><g fill="#ffffff" fill-opacity="1"><g transform="translate(231.048648, 71.978506)"><g><path d="M 0.78125 -15.875 C 0.78125 -16.03125 0.785156 -16.304688 0.796875 -16.703125 C 0.804688 -17.109375 0.8125 -17.53125 0.8125 -17.96875 C 0.8125 -18.414062 0.816406 -18.828125 0.828125 -19.203125 C 0.847656 -19.578125 0.859375 -19.84375 0.859375 -20 C 1.035156 -20.3125 1.25 -20.613281 1.5 -20.90625 C 1.75 -21.207031 2.007812 -21.414062 2.28125 -21.53125 C 2.550781 -21.65625 2.847656 -21.675781 3.171875 -21.59375 C 3.492188 -21.519531 3.820312 -21.257812 4.15625 -20.8125 L 4.15625 -20 C 4.132812 -19.875 4.082031 -19.566406 4 -19.078125 C 3.925781 -18.597656 3.835938 -18.070312 3.734375 -17.5 C 3.628906 -16.9375 3.53125 -16.414062 3.4375 -15.9375 C 3.351562 -15.457031 3.3125 -15.148438 3.3125 -15.015625 C 3.3125 -14.523438 3.363281 -13.910156 3.46875 -13.171875 C 3.570312 -12.429688 3.71875 -11.660156 3.90625 -10.859375 C 4.101562 -10.054688 4.347656 -9.25 4.640625 -8.4375 C 4.941406 -7.632812 5.300781 -6.914062 5.71875 -6.28125 C 6.132812 -5.644531 6.59375 -5.117188 7.09375 -4.703125 C 7.601562 -4.285156 8.195312 -4.078125 8.875 -4.078125 C 9.695312 -4.078125 10.425781 -4.296875 11.0625 -4.734375 C 11.695312 -5.179688 12.25 -5.753906 12.71875 -6.453125 C 13.1875 -7.160156 13.566406 -7.953125 13.859375 -8.828125 C 14.160156 -9.710938 14.398438 -10.601562 14.578125 -11.5 C 14.765625 -12.394531 14.894531 -13.253906 14.96875 -14.078125 C 15.050781 -14.910156 15.09375 -15.640625 15.09375 -16.265625 C 15.09375 -16.890625 15.046875 -17.476562 14.953125 -18.03125 C 14.867188 -18.59375 14.757812 -19.144531 14.625 -19.6875 C 14.5 -20.226562 14.390625 -20.765625 14.296875 -21.296875 C 14.203125 -21.828125 14.15625 -22.367188 14.15625 -22.921875 C 14.15625 -23.410156 14.332031 -23.757812 14.6875 -23.96875 C 15.039062 -24.175781 15.4375 -24.28125 15.875 -24.28125 C 16.414062 -24.28125 16.851562 -24.117188 17.1875 -23.796875 C 17.53125 -23.472656 17.796875 -23.0625 17.984375 -22.5625 C 18.179688 -22.070312 18.3125 -21.507812 18.375 -20.875 C 18.445312 -20.238281 18.484375 -19.609375 18.484375 -18.984375 C 18.484375 -18.359375 18.46875 -17.765625 18.4375 -17.203125 C 18.414062 -16.648438 18.40625 -16.207031 18.40625 -15.875 C 18.40625 -14.988281 18.335938 -13.988281 18.203125 -12.875 C 18.078125 -11.757812 17.851562 -10.613281 17.53125 -9.4375 C 17.207031 -8.257812 16.804688 -7.097656 16.328125 -5.953125 C 15.847656 -4.804688 15.265625 -3.785156 14.578125 -2.890625 C 13.890625 -2.003906 13.097656 -1.285156 12.203125 -0.734375 C 11.304688 -0.191406 10.300781 0.078125 9.1875 0.078125 C 8.019531 0.078125 6.992188 -0.195312 6.109375 -0.75 C 5.222656 -1.3125 4.472656 -2.050781 3.859375 -2.96875 C 3.253906 -3.894531 2.742188 -4.941406 2.328125 -6.109375 C 1.921875 -7.273438 1.601562 -8.441406 1.375 -9.609375 C 1.15625 -10.773438 1 -11.910156 0.90625 -13.015625 C 0.820312 -14.117188 0.78125 -15.070312 0.78125 -15.875 Z M 0.78125 -15.875 "/></g></g></g><g fill="#ffffff" fill-opacity="1"><g transform="translate(251.048289, 71.978506)"><g><path d="M 0.78125 -16.34375 C 0.78125 -16.570312 0.789062 -16.8125 0.8125 -17.0625 C 0.84375 -17.3125 0.894531 -17.53125 0.96875 -17.71875 C 1.050781 -17.914062 1.175781 -18.078125 1.34375 -18.203125 C 1.507812 -18.335938 1.75 -18.40625 2.0625 -18.40625 C 2.320312 -18.40625 2.613281 -18.203125 2.9375 -17.796875 C 3.257812 -17.398438 3.585938 -16.894531 3.921875 -16.28125 C 4.265625 -15.675781 4.597656 -15.007812 4.921875 -14.28125 C 5.242188 -13.550781 5.523438 -12.878906 5.765625 -12.265625 C 6.015625 -11.660156 6.21875 -11.132812 6.375 -10.6875 C 6.53125 -10.25 6.625 -10.019531 6.65625 -10 C 6.988281 -10.90625 7.363281 -11.890625 7.78125 -12.953125 C 8.195312 -14.015625 8.707031 -15.003906 9.3125 -15.921875 C 9.925781 -16.847656 10.65625 -17.625 11.5 -18.25 C 12.34375 -18.875 13.375 -19.1875 14.59375 -19.1875 C 15.21875 -19.1875 15.804688 -19.085938 16.359375 -18.890625 C 16.921875 -18.691406 17.414062 -18.40625 17.84375 -18.03125 C 18.269531 -17.65625 18.613281 -17.207031 18.875 -16.6875 C 19.132812 -16.175781 19.265625 -15.582031 19.265625 -14.90625 C 19.265625 -14.332031 19.035156 -13.925781 18.578125 -13.6875 C 18.128906 -13.457031 17.617188 -13.34375 17.046875 -13.34375 L 16.65625 -13.34375 L 14.984375 -15.015625 C 14.929688 -15.015625 14.890625 -15.03125 14.859375 -15.0625 C 14.804688 -15.0625 14.757812 -15.066406 14.71875 -15.078125 C 14.6875 -15.085938 14.644531 -15.09375 14.59375 -15.09375 C 13.6875 -15.09375 12.976562 -14.835938 12.46875 -14.328125 C 11.96875 -13.828125 11.585938 -13.207031 11.328125 -12.46875 C 11.066406 -11.726562 10.898438 -10.945312 10.828125 -10.125 C 10.765625 -9.3125 10.734375 -8.570312 10.734375 -7.90625 C 10.734375 -7.382812 10.785156 -6.859375 10.890625 -6.328125 C 10.992188 -5.796875 11.109375 -5.273438 11.234375 -4.765625 C 11.367188 -4.253906 11.488281 -3.734375 11.59375 -3.203125 C 11.695312 -2.671875 11.75 -2.125 11.75 -1.5625 C 11.75 -0.46875 11.164062 0.078125 10 0.078125 C 9.351562 0.078125 8.675781 -0.265625 7.96875 -0.953125 C 7.269531 -1.640625 6.578125 -2.515625 5.890625 -3.578125 C 5.203125 -4.640625 4.546875 -5.8125 3.921875 -7.09375 C 3.304688 -8.382812 2.765625 -9.640625 2.296875 -10.859375 C 1.828125 -12.078125 1.457031 -13.175781 1.1875 -14.15625 C 0.914062 -15.144531 0.78125 -15.875 0.78125 -16.34375 Z M 0.78125 -16.34375 "/></g></g></g><g fill="#ffffff" fill-opacity="1"><g transform="translate(270.931201, 71.978506)"><g><path d="M 17.515625 -5.015625 C 16.523438 -4.335938 15.671875 -3.734375 14.953125 -3.203125 C 14.242188 -2.671875 13.550781 -2.222656 12.875 -1.859375 C 12.207031 -1.503906 11.488281 -1.234375 10.71875 -1.046875 C 9.957031 -0.867188 9.019531 -0.78125 7.90625 -0.78125 C 5.488281 -0.78125 3.695312 -1.421875 2.53125 -2.703125 C 1.363281 -3.984375 0.78125 -5.894531 0.78125 -8.4375 C 0.78125 -9.425781 0.910156 -10.453125 1.171875 -11.515625 C 1.429688 -12.578125 1.8125 -13.632812 2.3125 -14.6875 C 2.820312 -15.738281 3.425781 -16.738281 4.125 -17.6875 C 4.820312 -18.632812 5.613281 -19.46875 6.5 -20.1875 C 7.382812 -20.914062 8.320312 -21.492188 9.3125 -21.921875 C 10.3125 -22.347656 11.367188 -22.5625 12.484375 -22.5625 C 14.359375 -22.382812 15.828125 -21.925781 16.890625 -21.1875 C 17.953125 -20.445312 18.753906 -19.5 19.296875 -18.34375 C 19.835938 -17.1875 20.210938 -15.898438 20.421875 -14.484375 C 20.628906 -13.078125 20.789062 -11.617188 20.90625 -10.109375 C 21.03125 -8.609375 21.179688 -7.101562 21.359375 -5.59375 C 21.546875 -4.09375 21.921875 -2.707031 22.484375 -1.4375 C 22.148438 -0.582031 21.832031 0.015625 21.53125 0.359375 C 21.238281 0.710938 20.910156 0.769531 20.546875 0.53125 C 20.179688 0.300781 19.757812 -0.265625 19.28125 -1.171875 C 18.800781 -2.078125 18.210938 -3.359375 17.515625 -5.015625 Z M 4.078125 -8.359375 C 4.078125 -6.878906 4.359375 -5.796875 4.921875 -5.109375 C 5.484375 -4.421875 6.476562 -4.078125 7.90625 -4.078125 C 8.96875 -4.078125 9.984375 -4.265625 10.953125 -4.640625 C 11.921875 -5.023438 12.769531 -5.546875 13.5 -6.203125 C 14.226562 -6.867188 14.8125 -7.664062 15.25 -8.59375 C 15.695312 -9.53125 15.921875 -10.570312 15.921875 -11.71875 C 15.921875 -12.175781 15.929688 -12.828125 15.953125 -13.671875 C 15.972656 -14.515625 15.921875 -15.351562 15.796875 -16.1875 C 15.671875 -17.019531 15.425781 -17.738281 15.0625 -18.34375 C 14.695312 -18.957031 14.148438 -19.265625 13.421875 -19.265625 C 12.078125 -19.265625 10.832031 -18.921875 9.6875 -18.234375 C 8.539062 -17.546875 7.550781 -16.664062 6.71875 -15.59375 C 5.894531 -14.53125 5.25 -13.359375 4.78125 -12.078125 C 4.3125 -10.796875 4.078125 -9.554688 4.078125 -8.359375 Z M 4.078125 -8.359375 "/></g></g></g></svg>