<svg xmlns="http://www.w3.org/2000/svg" xmlns:xlink="http://www.w3.org/1999/xlink" width="700" zoomAndPan="magnify" viewBox="0 0 525 225" height="300" preserveAspectRatio="xMidYMid meet" version="1.0"><defs><g/></defs><g fill="#ffffff" fill-opacity="1"><g transform="translate(7.454953, 140.58473)"><g><path d="M 1.375 -29.28125 C 1.375 -29.820312 1.382812 -30.71875 1.40625 -31.96875 C 1.425781 -33.226562 1.4375 -34.550781 1.4375 -35.9375 C 1.4375 -37.332031 1.445312 -38.644531 1.46875 -39.875 C 1.488281 -41.113281 1.5 -41.984375 1.5 -42.484375 C 1.550781 -42.796875 1.664062 -43.28125 1.84375 -43.9375 C 2.03125 -44.601562 2.25 -45.253906 2.5 -45.890625 C 2.75 -46.535156 3.085938 -47.097656 3.515625 -47.578125 C 3.953125 -48.054688 4.488281 -48.296875 5.125 -48.296875 C 6.632812 -48.296875 8.050781 -47.882812 9.375 -47.0625 C 10.695312 -46.238281 11.972656 -45.15625 13.203125 -43.8125 C 14.429688 -42.46875 15.601562 -40.972656 16.71875 -39.328125 C 17.84375 -37.691406 18.953125 -36.0625 20.046875 -34.4375 C 21.140625 -32.820312 22.207031 -31.296875 23.25 -29.859375 C 24.300781 -28.421875 25.351562 -27.269531 26.40625 -26.40625 C 27.539062 -26.90625 28.425781 -27.828125 29.0625 -29.171875 C 29.707031 -30.515625 30.234375 -32.0625 30.640625 -33.8125 C 31.054688 -35.570312 31.429688 -37.398438 31.765625 -39.296875 C 32.109375 -41.191406 32.578125 -42.9375 33.171875 -44.53125 C 33.765625 -46.125 34.550781 -47.429688 35.53125 -48.453125 C 36.507812 -49.484375 37.867188 -50 39.609375 -50 C 41.660156 -50 43.515625 -49.203125 45.171875 -47.609375 C 46.835938 -46.015625 48.332031 -43.984375 49.65625 -41.515625 C 50.976562 -39.054688 52.109375 -36.320312 53.046875 -33.3125 C 53.984375 -30.300781 54.769531 -27.40625 55.40625 -24.625 C 56.039062 -21.84375 56.519531 -19.332031 56.84375 -17.09375 C 57.164062 -14.863281 57.328125 -13.269531 57.328125 -12.3125 C 57.328125 -11.90625 57.300781 -11.460938 57.25 -10.984375 C 57.207031 -10.503906 57.09375 -10.066406 56.90625 -9.671875 C 56.726562 -9.285156 56.429688 -8.988281 56.015625 -8.78125 C 55.609375 -8.582031 55.019531 -8.597656 54.25 -8.828125 C 54.019531 -8.867188 53.753906 -8.992188 53.453125 -9.203125 C 53.160156 -9.410156 52.851562 -9.671875 52.53125 -9.984375 C 52.21875 -10.304688 51.945312 -10.613281 51.71875 -10.90625 C 51.488281 -11.207031 51.375 -11.472656 51.375 -11.703125 C 50.957031 -13.929688 50.5 -16.410156 50 -19.140625 C 49.5 -21.878906 48.875 -24.648438 48.125 -27.453125 C 47.375 -30.265625 46.425781 -32.992188 45.28125 -35.640625 C 44.144531 -38.285156 42.734375 -40.566406 41.046875 -42.484375 C 39.722656 -41.753906 38.679688 -40.644531 37.921875 -39.15625 C 37.171875 -37.675781 36.546875 -36.054688 36.046875 -34.296875 C 35.546875 -32.546875 35.085938 -30.757812 34.671875 -28.9375 C 34.265625 -27.113281 33.71875 -25.457031 33.03125 -23.96875 C 32.351562 -22.488281 31.488281 -21.269531 30.4375 -20.3125 C 29.382812 -19.351562 27.972656 -18.875 26.203125 -18.875 C 24.972656 -18.875 23.773438 -19.273438 22.609375 -20.078125 C 21.441406 -20.878906 20.3125 -21.925781 19.21875 -23.21875 C 18.125 -24.519531 17.0625 -25.957031 16.03125 -27.53125 C 15.007812 -29.101562 14.007812 -30.648438 13.03125 -32.171875 C 12.050781 -33.703125 11.09375 -35.128906 10.15625 -36.453125 C 9.21875 -37.773438 8.269531 -38.828125 7.3125 -39.609375 C 6.945312 -38.191406 6.660156 -36.945312 6.453125 -35.875 C 6.253906 -34.800781 6.097656 -33.765625 5.984375 -32.765625 C 5.867188 -31.765625 5.800781 -30.738281 5.78125 -29.6875 C 5.757812 -28.632812 5.75 -27.472656 5.75 -26.203125 C 5.75 -24.285156 5.90625 -22.378906 6.21875 -20.484375 C 6.539062 -18.597656 6.882812 -16.71875 7.25 -14.84375 C 7.613281 -12.976562 7.96875 -11.097656 8.3125 -9.203125 C 8.65625 -7.304688 8.828125 -5.398438 8.828125 -3.484375 L 8.828125 -2.9375 C 8.734375 -2.800781 8.546875 -2.582031 8.265625 -2.28125 C 7.992188 -1.988281 7.710938 -1.679688 7.421875 -1.359375 C 7.128906 -1.046875 6.820312 -0.765625 6.5 -0.515625 C 6.175781 -0.265625 5.945312 -0.09375 5.8125 0 C 5.769531 0.0390625 5.679688 0.0625 5.546875 0.0625 C 5.398438 0.113281 5.257812 0.140625 5.125 0.140625 C 5.039062 0.140625 4.925781 0.113281 4.78125 0.0625 C 4.644531 0.0195312 4.535156 0 4.453125 0 C 4.128906 -2.644531 3.785156 -5.148438 3.421875 -7.515625 C 3.054688 -9.890625 2.722656 -12.238281 2.421875 -14.5625 C 2.128906 -16.894531 1.878906 -19.242188 1.671875 -21.609375 C 1.472656 -23.984375 1.375 -26.539062 1.375 -29.28125 Z M 1.375 -29.28125 "/></g></g></g><g fill="#ffffff" fill-opacity="1"><g transform="translate(67.505584, 140.58473)"><g><path d="M 4.234375 -25.65625 C 4.234375 -25.925781 4.242188 -26.367188 4.265625 -26.984375 C 4.296875 -27.597656 4.320312 -28.25 4.34375 -28.9375 C 4.363281 -29.625 4.382812 -30.285156 4.40625 -30.921875 C 4.4375 -31.554688 4.453125 -32.007812 4.453125 -32.28125 C 4.953125 -33.007812 5.597656 -33.601562 6.390625 -34.0625 C 7.191406 -34.519531 8.003906 -34.882812 8.828125 -35.15625 C 8.960938 -32.695312 9.347656 -30.078125 9.984375 -27.296875 C 10.617188 -24.515625 11.300781 -21.71875 12.03125 -18.90625 C 12.769531 -16.101562 13.421875 -13.332031 13.984375 -10.59375 C 14.554688 -7.863281 14.84375 -5.3125 14.84375 -2.9375 C 14.84375 -0.882812 13.796875 0.140625 11.703125 0.140625 C 10.421875 0.140625 9.347656 -0.382812 8.484375 -1.4375 C 7.617188 -2.488281 6.921875 -3.820312 6.390625 -5.4375 C 5.867188 -7.050781 5.445312 -8.847656 5.125 -10.828125 C 4.8125 -12.816406 4.597656 -14.769531 4.484375 -16.6875 C 4.367188 -18.601562 4.296875 -20.359375 4.265625 -21.953125 C 4.242188 -23.554688 4.234375 -24.789062 4.234375 -25.65625 Z M 5.203125 -51.296875 C 6.066406 -50.929688 6.796875 -50.335938 7.390625 -49.515625 C 7.984375 -48.703125 8.242188 -47.960938 8.171875 -47.296875 C 8.109375 -46.640625 7.597656 -46.1875 6.640625 -45.9375 C 5.679688 -45.6875 4.082031 -45.945312 1.84375 -46.71875 C 1.84375 -47.945312 2.082031 -49.015625 2.5625 -49.921875 C 3.039062 -50.835938 3.921875 -51.296875 5.203125 -51.296875 Z M 5.203125 -51.296875 "/></g></g></g><g fill="#ffffff" fill-opacity="1"><g transform="translate(83.646756, 140.58473)"><g><path d="M 0.203125 -35.359375 C 0.203125 -35.773438 0.210938 -36.195312 0.234375 -36.625 C 0.265625 -37.0625 0.359375 -37.472656 0.515625 -37.859375 C 0.671875 -38.242188 0.894531 -38.539062 1.1875 -38.75 C 1.488281 -38.957031 1.9375 -39.0625 2.53125 -39.0625 C 2.570312 -39.0625 2.625 -39.0625 2.6875 -39.0625 C 2.757812 -39.0625 2.84375 -39.0625 2.9375 -39.0625 C 3.070312 -39.007812 3.1875 -38.984375 3.28125 -38.984375 C 4.144531 -37.804688 4.894531 -36.289062 5.53125 -34.4375 C 6.175781 -32.59375 6.796875 -30.632812 7.390625 -28.5625 C 7.984375 -26.488281 8.617188 -24.390625 9.296875 -22.265625 C 9.984375 -20.140625 10.875 -18.234375 11.96875 -16.546875 C 13.0625 -14.859375 14.40625 -13.515625 16 -12.515625 C 17.601562 -11.515625 19.585938 -11.082031 21.953125 -11.21875 C 23.003906 -11.21875 23.6875 -11.785156 24 -12.921875 C 24.320312 -14.066406 24.492188 -15.523438 24.515625 -17.296875 C 24.546875 -19.078125 24.503906 -21.039062 24.390625 -23.1875 C 24.273438 -25.332031 24.273438 -27.375 24.390625 -29.3125 C 24.503906 -31.25 24.84375 -32.945312 25.40625 -34.40625 C 25.976562 -35.863281 26.972656 -36.84375 28.390625 -37.34375 C 28.984375 -36.164062 29.472656 -34.3125 29.859375 -31.78125 C 30.242188 -29.25 30.523438 -26.328125 30.703125 -23.015625 C 30.890625 -19.710938 30.984375 -16.132812 30.984375 -12.28125 C 30.984375 -8.425781 30.890625 -4.59375 30.703125 -0.78125 C 30.523438 3.019531 30.253906 6.675781 29.890625 10.1875 C 29.523438 13.695312 29.113281 16.773438 28.65625 19.421875 C 28.207031 22.066406 27.671875 24.15625 27.046875 25.6875 C 26.429688 27.21875 25.785156 27.867188 25.109375 27.640625 C 24.148438 26.722656 23.40625 25.535156 22.875 24.078125 C 22.351562 22.617188 21.988281 21 21.78125 19.21875 C 21.582031 17.4375 21.503906 15.554688 21.546875 13.578125 C 21.585938 11.597656 21.664062 9.601562 21.78125 7.59375 C 21.894531 5.582031 22.03125 3.617188 22.1875 1.703125 C 22.351562 -0.203125 22.4375 -1.957031 22.4375 -3.5625 C 20.789062 -3.425781 19.113281 -3.675781 17.40625 -4.3125 C 15.695312 -4.945312 14.019531 -5.9375 12.375 -7.28125 C 10.738281 -8.625 9.175781 -10.253906 7.6875 -12.171875 C 6.207031 -14.085938 4.910156 -16.253906 3.796875 -18.671875 C 2.679688 -21.085938 1.800781 -23.695312 1.15625 -26.5 C 0.519531 -29.3125 0.203125 -32.265625 0.203125 -35.359375 Z M 0.203125 -35.359375 "/></g></g></g><g fill="#ffffff" fill-opacity="1"><g transform="translate(117.365391, 140.58473)"><g><path d="M 1.375 -13.890625 C 1.375 -16.710938 2.03125 -19.34375 3.34375 -21.78125 C 4.664062 -24.226562 6.410156 -26.328125 8.578125 -28.078125 C 10.742188 -29.835938 13.179688 -31.21875 15.890625 -32.21875 C 18.609375 -33.21875 21.359375 -33.71875 24.140625 -33.71875 C 25.691406 -33.71875 27.070312 -33.21875 28.28125 -32.21875 C 29.488281 -31.21875 30.503906 -30 31.328125 -28.5625 C 32.148438 -27.125 32.773438 -25.601562 33.203125 -24 C 33.640625 -22.40625 33.859375 -21.019531 33.859375 -19.84375 C 33.859375 -17.28125 33.242188 -14.800781 32.015625 -12.40625 C 30.785156 -10.019531 29.1875 -7.898438 27.21875 -6.046875 C 25.257812 -4.203125 23.046875 -2.707031 20.578125 -1.5625 C 18.117188 -0.425781 15.660156 0.140625 13.203125 0.140625 C 11.015625 0.140625 9.164062 -0.234375 7.65625 -0.984375 C 6.15625 -1.742188 4.945312 -2.75 4.03125 -4 C 3.125 -5.257812 2.453125 -6.742188 2.015625 -8.453125 C 1.585938 -10.160156 1.375 -11.972656 1.375 -13.890625 Z M 7.1875 -13.203125 C 7.1875 -12.015625 7.285156 -10.972656 7.484375 -10.078125 C 7.691406 -9.191406 8.054688 -8.429688 8.578125 -7.796875 C 9.109375 -7.160156 9.804688 -6.671875 10.671875 -6.328125 C 11.535156 -5.984375 12.609375 -5.8125 13.890625 -5.8125 C 15.578125 -5.8125 17.265625 -6.28125 18.953125 -7.21875 C 20.640625 -8.15625 22.15625 -9.335938 23.5 -10.765625 C 24.84375 -12.203125 25.925781 -13.785156 26.75 -15.515625 C 27.570312 -17.253906 27.984375 -18.945312 27.984375 -20.59375 C 27.984375 -21.320312 27.910156 -22.117188 27.765625 -22.984375 C 27.628906 -23.847656 27.398438 -24.644531 27.078125 -25.375 C 26.765625 -26.101562 26.3125 -26.71875 25.71875 -27.21875 C 25.125 -27.726562 24.375 -27.984375 23.46875 -27.984375 C 22.644531 -27.984375 21.671875 -27.707031 20.546875 -27.15625 C 19.429688 -26.613281 18.269531 -25.90625 17.0625 -25.03125 C 15.851562 -24.164062 14.664062 -23.1875 13.5 -22.09375 C 12.34375 -21 11.285156 -19.90625 10.328125 -18.8125 C 9.367188 -17.71875 8.601562 -16.664062 8.03125 -15.65625 C 7.46875 -14.65625 7.1875 -13.835938 7.1875 -13.203125 Z M 7.1875 -13.203125 "/></g></g></g><g fill="#ffffff" fill-opacity="1"><g transform="translate(152.520316, 140.58473)"><g><path d="M 14.640625 -1.375 C 13.910156 -0.726562 13.144531 -1.019531 12.34375 -2.25 C 11.550781 -3.488281 10.742188 -5.347656 9.921875 -7.828125 C 9.097656 -10.316406 8.285156 -13.289062 7.484375 -16.75 C 6.691406 -20.21875 5.929688 -23.890625 5.203125 -27.765625 C 4.472656 -31.648438 3.773438 -35.585938 3.109375 -39.578125 C 2.453125 -43.566406 1.875 -47.316406 1.375 -50.828125 C 1.375 -51.460938 1.359375 -52.109375 1.328125 -52.765625 C 1.304688 -53.429688 1.375 -54.050781 1.53125 -54.625 C 1.695312 -55.195312 1.992188 -55.707031 2.421875 -56.15625 C 2.859375 -56.613281 3.535156 -56.957031 4.453125 -57.1875 C 4.535156 -57.226562 4.722656 -57.191406 5.015625 -57.078125 C 5.316406 -56.960938 5.628906 -56.828125 5.953125 -56.671875 C 6.273438 -56.515625 6.5625 -56.34375 6.8125 -56.15625 C 7.0625 -55.976562 7.226562 -55.820312 7.3125 -55.6875 C 6.726562 -47.15625 7.710938 -38.851562 10.265625 -30.78125 C 10.398438 -30.914062 10.765625 -31.378906 11.359375 -32.171875 C 11.953125 -32.972656 12.703125 -33.910156 13.609375 -34.984375 C 14.523438 -36.054688 15.5625 -37.207031 16.71875 -38.4375 C 17.882812 -39.675781 19.101562 -40.816406 20.375 -41.859375 C 21.65625 -42.910156 22.929688 -43.789062 24.203125 -44.5 C 25.484375 -45.207031 26.71875 -45.5625 27.90625 -45.5625 C 28.59375 -45.5625 29.265625 -45.398438 29.921875 -45.078125 C 30.585938 -44.753906 30.921875 -44.140625 30.921875 -43.234375 C 30.921875 -43.140625 30.894531 -43.007812 30.84375 -42.84375 C 30.800781 -42.6875 30.78125 -42.566406 30.78125 -42.484375 C 30.050781 -41.835938 28.941406 -40.851562 27.453125 -39.53125 C 25.972656 -38.207031 24.410156 -36.722656 22.765625 -35.078125 C 21.128906 -33.441406 19.554688 -31.734375 18.046875 -29.953125 C 16.546875 -28.179688 15.410156 -26.5 14.640625 -24.90625 C 14.503906 -24.625 14.457031 -24.378906 14.5 -24.171875 C 14.539062 -23.972656 14.585938 -23.738281 14.640625 -23.46875 C 15.140625 -23.28125 15.9375 -23.003906 17.03125 -22.640625 C 18.125 -22.273438 19.332031 -21.851562 20.65625 -21.375 C 21.976562 -20.894531 23.390625 -20.390625 24.890625 -19.859375 C 26.398438 -19.335938 27.816406 -18.828125 29.140625 -18.328125 C 30.460938 -17.828125 31.660156 -17.382812 32.734375 -17 C 33.804688 -16.613281 34.613281 -16.328125 35.15625 -16.140625 C 35.800781 -15.867188 36.328125 -15.6875 36.734375 -15.59375 C 37.140625 -15.5 37.457031 -15.375 37.6875 -15.21875 C 37.914062 -15.0625 38.078125 -14.84375 38.171875 -14.5625 C 38.265625 -14.289062 38.3125 -13.882812 38.3125 -13.34375 C 38.3125 -12.019531 37.988281 -11.148438 37.34375 -10.734375 C 36.707031 -10.328125 35.796875 -10.125 34.609375 -10.125 C 31.097656 -10.351562 27.65625 -11.09375 24.28125 -12.34375 C 20.90625 -13.601562 17.484375 -15.117188 14.015625 -16.890625 C 13.878906 -16.023438 13.9375 -15.019531 14.1875 -13.875 C 14.4375 -12.738281 14.742188 -11.597656 15.109375 -10.453125 C 15.484375 -9.316406 15.835938 -8.203125 16.171875 -7.109375 C 16.515625 -6.015625 16.71875 -5.035156 16.78125 -4.171875 C 16.851562 -3.304688 16.753906 -2.625 16.484375 -2.125 C 16.210938 -1.625 15.597656 -1.375 14.640625 -1.375 Z M 14.640625 -1.375 "/></g></g></g><g fill="#ffffff" fill-opacity="1"><g transform="translate(192.120902, 140.58473)"><g><path d="M 1.375 -13.890625 C 1.375 -16.710938 2.03125 -19.34375 3.34375 -21.78125 C 4.664062 -24.226562 6.410156 -26.328125 8.578125 -28.078125 C 10.742188 -29.835938 13.179688 -31.21875 15.890625 -32.21875 C 18.609375 -33.21875 21.359375 -33.71875 24.140625 -33.71875 C 25.691406 -33.71875 27.070312 -33.21875 28.28125 -32.21875 C 29.488281 -31.21875 30.503906 -30 31.328125 -28.5625 C 32.148438 -27.125 32.773438 -25.601562 33.203125 -24 C 33.640625 -22.40625 33.859375 -21.019531 33.859375 -19.84375 C 33.859375 -17.28125 33.242188 -14.800781 32.015625 -12.40625 C 30.785156 -10.019531 29.1875 -7.898438 27.21875 -6.046875 C 25.257812 -4.203125 23.046875 -2.707031 20.578125 -1.5625 C 18.117188 -0.425781 15.660156 0.140625 13.203125 0.140625 C 11.015625 0.140625 9.164062 -0.234375 7.65625 -0.984375 C 6.15625 -1.742188 4.945312 -2.75 4.03125 -4 C 3.125 -5.257812 2.453125 -6.742188 2.015625 -8.453125 C 1.585938 -10.160156 1.375 -11.972656 1.375 -13.890625 Z M 7.1875 -13.203125 C 7.1875 -12.015625 7.285156 -10.972656 7.484375 -10.078125 C 7.691406 -9.191406 8.054688 -8.429688 8.578125 -7.796875 C 9.109375 -7.160156 9.804688 -6.671875 10.671875 -6.328125 C 11.535156 -5.984375 12.609375 -5.8125 13.890625 -5.8125 C 15.578125 -5.8125 17.265625 -6.28125 18.953125 -7.21875 C 20.640625 -8.15625 22.15625 -9.335938 23.5 -10.765625 C 24.84375 -12.203125 25.925781 -13.785156 26.75 -15.515625 C 27.570312 -17.253906 27.984375 -18.945312 27.984375 -20.59375 C 27.984375 -21.320312 27.910156 -22.117188 27.765625 -22.984375 C 27.628906 -23.847656 27.398438 -24.644531 27.078125 -25.375 C 26.765625 -26.101562 26.3125 -26.71875 25.71875 -27.21875 C 25.125 -27.726562 24.375 -27.984375 23.46875 -27.984375 C 22.644531 -27.984375 21.671875 -27.707031 20.546875 -27.15625 C 19.429688 -26.613281 18.269531 -25.90625 17.0625 -25.03125 C 15.851562 -24.164062 14.664062 -23.1875 13.5 -22.09375 C 12.34375 -21 11.285156 -19.90625 10.328125 -18.8125 C 9.367188 -17.71875 8.601562 -16.664062 8.03125 -15.65625 C 7.46875 -14.65625 7.1875 -13.835938 7.1875 -13.203125 Z M 7.1875 -13.203125 "/></g></g></g><g fill="#ffffff" fill-opacity="1"><g transform="translate(227.275827, 140.58473)"><g/></g></g><g fill="#ffffff" fill-opacity="1"><g transform="translate(258.805827, 140.58473)"><g><path d="M 11.703125 -2.9375 C 11.929688 -4.03125 12.507812 -4.929688 13.4375 -5.640625 C 14.375 -6.347656 15.445312 -7 16.65625 -7.59375 C 17.863281 -8.1875 19.128906 -8.742188 20.453125 -9.265625 C 21.773438 -9.796875 22.992188 -10.351562 24.109375 -10.9375 C 25.222656 -11.53125 26.144531 -12.226562 26.875 -13.03125 C 27.613281 -13.832031 27.984375 -14.800781 27.984375 -15.9375 C 27.984375 -17.394531 27.601562 -18.601562 26.84375 -19.5625 C 26.09375 -20.519531 25.085938 -21.335938 23.828125 -22.015625 C 22.578125 -22.703125 21.15625 -23.273438 19.5625 -23.734375 C 17.96875 -24.191406 16.335938 -24.660156 14.671875 -25.140625 C 13.003906 -25.617188 11.375 -26.140625 9.78125 -26.703125 C 8.1875 -27.273438 6.757812 -27.992188 5.5 -28.859375 C 4.25 -29.734375 3.25 -30.785156 2.5 -32.015625 C 1.75 -33.242188 1.375 -34.769531 1.375 -36.59375 C 1.375 -38.101562 1.679688 -39.53125 2.296875 -40.875 C 2.910156 -42.21875 3.726562 -43.492188 4.75 -44.703125 C 5.78125 -45.910156 6.96875 -47.015625 8.3125 -48.015625 C 9.65625 -49.023438 11.066406 -49.867188 12.546875 -50.546875 C 14.035156 -51.234375 15.53125 -51.769531 17.03125 -52.15625 C 18.539062 -52.539062 19.929688 -52.734375 21.203125 -52.734375 L 21.953125 -52.734375 C 22.367188 -52.597656 22.914062 -52.367188 23.59375 -52.046875 C 24.28125 -51.734375 24.941406 -51.425781 25.578125 -51.125 C 26.222656 -50.832031 26.769531 -50.5625 27.21875 -50.3125 C 27.675781 -50.0625 27.90625 -49.914062 27.90625 -49.875 L 27.90625 -48.296875 C 27.039062 -48.203125 25.921875 -48.03125 24.546875 -47.78125 C 23.179688 -47.53125 21.742188 -47.195312 20.234375 -46.78125 C 18.734375 -46.375 17.207031 -45.863281 15.65625 -45.25 C 14.113281 -44.632812 12.722656 -43.914062 11.484375 -43.09375 C 10.253906 -42.269531 9.25 -41.320312 8.46875 -40.25 C 7.695312 -39.1875 7.3125 -37.96875 7.3125 -36.59375 C 7.3125 -34.632812 7.992188 -33.09375 9.359375 -31.96875 C 10.734375 -30.851562 12.445312 -29.929688 14.5 -29.203125 C 16.550781 -28.472656 18.796875 -27.820312 21.234375 -27.25 C 23.679688 -26.6875 25.929688 -26.003906 27.984375 -25.203125 C 30.035156 -24.410156 31.742188 -23.363281 33.109375 -22.0625 C 34.472656 -20.757812 35.15625 -19.015625 35.15625 -16.828125 C 35.15625 -15.640625 34.800781 -14.394531 34.09375 -13.09375 C 33.394531 -11.800781 32.460938 -10.523438 31.296875 -9.265625 C 30.128906 -8.015625 28.816406 -6.816406 27.359375 -5.671875 C 25.898438 -4.535156 24.40625 -3.546875 22.875 -2.703125 C 21.351562 -1.859375 19.863281 -1.171875 18.40625 -0.640625 C 16.945312 -0.117188 15.644531 0.140625 14.5 0.140625 C 14.132812 0.140625 13.742188 0.09375 13.328125 0 C 12.921875 -0.09375 12.566406 -0.238281 12.265625 -0.4375 C 11.972656 -0.644531 11.75 -0.953125 11.59375 -1.359375 C 11.4375 -1.773438 11.472656 -2.300781 11.703125 -2.9375 Z M 11.703125 -2.9375 "/></g></g></g><g fill="#ffffff" fill-opacity="1"><g transform="translate(295.397042, 140.58473)"><g><path d="M 3.359375 -44.46875 C 3.359375 -44.96875 3.410156 -45.59375 3.515625 -46.34375 C 3.628906 -47.09375 3.832031 -47.8125 4.125 -48.5 C 4.425781 -49.1875 4.804688 -49.769531 5.265625 -50.25 C 5.722656 -50.726562 6.316406 -50.96875 7.046875 -50.96875 C 7.085938 -50.96875 7.195312 -50.941406 7.375 -50.890625 C 7.5625 -50.847656 7.679688 -50.828125 7.734375 -50.828125 C 8.503906 -47.992188 8.957031 -45.1875 9.09375 -42.40625 C 9.226562 -39.625 9.179688 -36.921875 8.953125 -34.296875 C 8.734375 -31.679688 8.394531 -29.148438 7.9375 -26.703125 C 7.476562 -24.265625 7.097656 -22.019531 6.796875 -19.96875 C 6.503906 -17.914062 6.320312 -16.066406 6.25 -14.421875 C 6.1875 -12.785156 6.429688 -11.398438 6.984375 -10.265625 C 6.890625 -10.992188 6.828125 -11.867188 6.796875 -12.890625 C 6.773438 -13.921875 6.867188 -14.984375 7.078125 -16.078125 C 7.285156 -17.171875 7.628906 -18.265625 8.109375 -19.359375 C 8.585938 -20.453125 9.28125 -21.429688 10.1875 -22.296875 C 11.101562 -23.160156 12.28125 -23.84375 13.71875 -24.34375 C 15.15625 -24.851562 16.941406 -25.109375 19.078125 -25.109375 C 21.316406 -25.109375 23.242188 -24.71875 24.859375 -23.9375 C 26.484375 -23.164062 27.816406 -22.109375 28.859375 -20.765625 C 29.910156 -19.421875 30.695312 -17.847656 31.21875 -16.046875 C 31.75 -14.242188 32.015625 -12.316406 32.015625 -10.265625 C 32.015625 -9.304688 32 -8.222656 31.96875 -7.015625 C 31.945312 -5.804688 31.789062 -4.6875 31.5 -3.65625 C 31.207031 -2.632812 30.679688 -1.769531 29.921875 -1.0625 C 29.171875 -0.351562 28.066406 0 26.609375 0 C 26.609375 -0.726562 26.65625 -1.71875 26.75 -2.96875 C 26.84375 -4.226562 26.898438 -5.5625 26.921875 -6.96875 C 26.941406 -8.382812 26.894531 -9.820312 26.78125 -11.28125 C 26.664062 -12.738281 26.359375 -14.050781 25.859375 -15.21875 C 25.359375 -16.382812 24.660156 -17.34375 23.765625 -18.09375 C 22.878906 -18.84375 21.660156 -19.21875 20.109375 -19.21875 C 19.566406 -19.21875 18.894531 -19.179688 18.09375 -19.109375 C 17.289062 -19.046875 16.476562 -18.832031 15.65625 -18.46875 C 14.84375 -18.101562 14.046875 -17.546875 13.265625 -16.796875 C 12.492188 -16.046875 11.878906 -15.019531 11.421875 -13.71875 C 10.960938 -12.414062 10.695312 -10.769531 10.625 -8.78125 C 10.5625 -6.800781 10.804688 -4.375 11.359375 -1.5 C 11.035156 -0.6875 10.632812 -0.207031 10.15625 -0.0625 C 9.675781 0.0703125 9.070312 0.140625 8.34375 0.140625 C 6.882812 0.140625 5.6875 -0.367188 4.75 -1.390625 C 3.820312 -2.421875 3.101562 -3.800781 2.59375 -5.53125 C 2.09375 -7.269531 1.765625 -9.28125 1.609375 -11.5625 C 1.453125 -13.84375 1.394531 -16.222656 1.4375 -18.703125 C 1.476562 -21.191406 1.601562 -23.722656 1.8125 -26.296875 C 2.019531 -28.878906 2.222656 -31.320312 2.421875 -33.625 C 2.628906 -35.925781 2.835938 -38.019531 3.046875 -39.90625 C 3.253906 -41.800781 3.359375 -43.320312 3.359375 -44.46875 Z M 3.359375 -44.46875 "/></g></g></g><g fill="#ffffff" fill-opacity="1"><g transform="translate(328.773703, 140.58473)"><g><path d="M 4.234375 -25.65625 C 4.234375 -25.925781 4.242188 -26.367188 4.265625 -26.984375 C 4.296875 -27.597656 4.320312 -28.25 4.34375 -28.9375 C 4.363281 -29.625 4.382812 -30.285156 4.40625 -30.921875 C 4.4375 -31.554688 4.453125 -32.007812 4.453125 -32.28125 C 4.953125 -33.007812 5.597656 -33.601562 6.390625 -34.0625 C 7.191406 -34.519531 8.003906 -34.882812 8.828125 -35.15625 C 8.960938 -32.695312 9.347656 -30.078125 9.984375 -27.296875 C 10.617188 -24.515625 11.300781 -21.71875 12.03125 -18.90625 C 12.769531 -16.101562 13.421875 -13.332031 13.984375 -10.59375 C 14.554688 -7.863281 14.84375 -5.3125 14.84375 -2.9375 C 14.84375 -0.882812 13.796875 0.140625 11.703125 0.140625 C 10.421875 0.140625 9.347656 -0.382812 8.484375 -1.4375 C 7.617188 -2.488281 6.921875 -3.820312 6.390625 -5.4375 C 5.867188 -7.050781 5.445312 -8.847656 5.125 -10.828125 C 4.8125 -12.816406 4.597656 -14.769531 4.484375 -16.6875 C 4.367188 -18.601562 4.296875 -20.359375 4.265625 -21.953125 C 4.242188 -23.554688 4.234375 -24.789062 4.234375 -25.65625 Z M 5.203125 -51.296875 C 6.066406 -50.929688 6.796875 -50.335938 7.390625 -49.515625 C 7.984375 -48.703125 8.242188 -47.960938 8.171875 -47.296875 C 8.109375 -46.640625 7.597656 -46.1875 6.640625 -45.9375 C 5.679688 -45.6875 4.082031 -45.945312 1.84375 -46.71875 C 1.84375 -47.945312 2.082031 -49.015625 2.5625 -49.921875 C 3.039062 -50.835938 3.921875 -51.296875 5.203125 -51.296875 Z M 5.203125 -51.296875 "/></g></g></g><g fill="#ffffff" fill-opacity="1"><g transform="translate(344.914875, 140.58473)"><g><path d="M -0.140625 -28.734375 C -0.140625 -29.867188 0.0507812 -30.753906 0.4375 -31.390625 C 0.832031 -32.035156 1.664062 -32.359375 2.9375 -32.359375 C 3.070312 -32.359375 3.332031 -32.34375 3.71875 -32.3125 C 4.113281 -32.289062 4.359375 -32.28125 4.453125 -32.28125 C 4.765625 -30.875 5.09375 -29.335938 5.4375 -27.671875 C 5.78125 -26.003906 6.175781 -24.328125 6.625 -22.640625 C 7.082031 -20.953125 7.597656 -19.285156 8.171875 -17.640625 C 8.742188 -16.003906 9.441406 -14.523438 10.265625 -13.203125 C 11.078125 -14.066406 11.664062 -15.09375 12.03125 -16.28125 C 12.40625 -17.46875 12.679688 -18.664062 12.859375 -19.875 C 13.046875 -21.082031 13.21875 -22.242188 13.375 -23.359375 C 13.53125 -24.472656 13.859375 -25.429688 14.359375 -26.234375 C 14.867188 -27.035156 15.613281 -27.617188 16.59375 -27.984375 C 17.570312 -28.347656 18.925781 -28.347656 20.65625 -27.984375 C 22.570312 -27.984375 24.097656 -27.628906 25.234375 -26.921875 C 26.378906 -26.210938 27.375 -25.320312 28.21875 -24.25 C 29.0625 -23.175781 29.878906 -22.035156 30.671875 -20.828125 C 31.472656 -19.617188 32.488281 -18.535156 33.71875 -17.578125 C 34 -18.171875 34.34375 -18.910156 34.75 -19.796875 C 35.15625 -20.691406 35.664062 -21.628906 36.28125 -22.609375 C 36.90625 -23.585938 37.566406 -24.566406 38.265625 -25.546875 C 38.972656 -26.523438 39.710938 -27.414062 40.484375 -28.21875 C 41.265625 -29.019531 42.066406 -29.679688 42.890625 -30.203125 C 43.710938 -30.722656 44.507812 -30.984375 45.28125 -30.984375 C 47.15625 -30.984375 48.773438 -30.398438 50.140625 -29.234375 C 51.503906 -28.078125 52.675781 -26.617188 53.65625 -24.859375 C 54.644531 -23.109375 55.457031 -21.148438 56.09375 -18.984375 C 56.726562 -16.816406 57.226562 -14.726562 57.59375 -12.71875 C 57.957031 -10.71875 58.21875 -8.882812 58.375 -7.21875 C 58.539062 -5.550781 58.625 -4.351562 58.625 -3.625 C 58.625 -3.03125 58.484375 -2.570312 58.203125 -2.25 C 57.929688 -1.9375 57.59375 -1.695312 57.1875 -1.53125 C 56.78125 -1.375 56.335938 -1.269531 55.859375 -1.21875 C 55.378906 -1.175781 54.929688 -1.15625 54.515625 -1.15625 C 54.421875 -1.15625 54.28125 -1.164062 54.09375 -1.1875 C 53.914062 -1.21875 53.71875 -1.253906 53.5 -1.296875 C 53.3125 -1.347656 53.054688 -1.414062 52.734375 -1.5 L 48.296875 -21.953125 C 48.296875 -22.085938 48.113281 -22.347656 47.75 -22.734375 C 47.382812 -23.128906 47.109375 -23.375 46.921875 -23.46875 C 46.785156 -23.46875 46.671875 -23.488281 46.578125 -23.53125 C 46.492188 -23.53125 46.425781 -23.539062 46.375 -23.5625 C 46.332031 -23.582031 46.285156 -23.59375 46.234375 -23.59375 C 45.285156 -23.59375 44.390625 -23.207031 43.546875 -22.4375 C 42.703125 -21.664062 41.910156 -20.6875 41.171875 -19.5 C 40.441406 -18.3125 39.757812 -16.988281 39.125 -15.53125 C 38.488281 -14.070312 37.921875 -12.625 37.421875 -11.1875 C 36.921875 -9.75 36.472656 -8.425781 36.078125 -7.21875 C 35.691406 -6.007812 35.382812 -5.085938 35.15625 -4.453125 C 34.976562 -4.359375 34.613281 -4.273438 34.0625 -4.203125 C 33.519531 -4.140625 33.15625 -4.109375 32.96875 -4.109375 C 31.695312 -4.109375 30.71875 -4.550781 30.03125 -5.4375 C 29.34375 -6.320312 28.78125 -7.425781 28.34375 -8.75 C 27.914062 -10.070312 27.550781 -11.519531 27.25 -13.09375 C 26.957031 -14.664062 26.59375 -16.113281 26.15625 -17.4375 C 25.726562 -18.757812 25.132812 -19.863281 24.375 -20.75 C 23.625 -21.644531 22.566406 -22.09375 21.203125 -22.09375 C 20.703125 -22.09375 20.222656 -21.585938 19.765625 -20.578125 C 19.304688 -19.578125 18.894531 -18.3125 18.53125 -16.78125 C 18.164062 -15.257812 17.820312 -13.617188 17.5 -11.859375 C 17.1875 -10.109375 16.925781 -8.46875 16.71875 -6.9375 C 16.519531 -5.414062 16.375 -4.128906 16.28125 -3.078125 C 16.1875 -2.023438 16.140625 -1.5 16.140625 -1.5 C 16.046875 -1.363281 15.863281 -1.21875 15.59375 -1.0625 C 15.320312 -0.90625 15.035156 -0.734375 14.734375 -0.546875 C 14.441406 -0.367188 14.144531 -0.234375 13.84375 -0.140625 C 13.550781 -0.046875 13.335938 0 13.203125 0 C 11.921875 0 10.6875 -0.578125 9.5 -1.734375 C 8.320312 -2.898438 7.238281 -4.40625 6.25 -6.25 C 5.269531 -8.101562 4.378906 -10.144531 3.578125 -12.375 C 2.785156 -14.613281 2.113281 -16.800781 1.5625 -18.9375 C 1.019531 -21.082031 0.597656 -23.019531 0.296875 -24.75 C 0.00390625 -26.488281 -0.140625 -27.816406 -0.140625 -28.734375 Z M -0.140625 -28.734375 "/></g></g></g><g fill="#ffffff" fill-opacity="1"><g transform="translate(404.965505, 140.58473)"><g><path d="M 1.375 -27.90625 C 1.375 -28.175781 1.382812 -28.664062 1.40625 -29.375 C 1.425781 -30.082031 1.4375 -30.820312 1.4375 -31.59375 C 1.4375 -32.375 1.445312 -33.09375 1.46875 -33.75 C 1.488281 -34.414062 1.5 -34.882812 1.5 -35.15625 C 1.820312 -35.707031 2.195312 -36.242188 2.625 -36.765625 C 3.0625 -37.285156 3.519531 -37.648438 4 -37.859375 C 4.476562 -38.066406 5.003906 -38.101562 5.578125 -37.96875 C 6.148438 -37.832031 6.726562 -37.375 7.3125 -36.59375 L 7.3125 -35.15625 C 7.269531 -34.925781 7.179688 -34.390625 7.046875 -33.546875 C 6.910156 -32.703125 6.75 -31.78125 6.5625 -30.78125 C 6.382812 -29.78125 6.210938 -28.859375 6.046875 -28.015625 C 5.890625 -27.171875 5.8125 -26.632812 5.8125 -26.40625 C 5.8125 -25.539062 5.898438 -24.457031 6.078125 -23.15625 C 6.265625 -21.851562 6.53125 -20.492188 6.875 -19.078125 C 7.21875 -17.671875 7.648438 -16.257812 8.171875 -14.84375 C 8.703125 -13.425781 9.332031 -12.160156 10.0625 -11.046875 C 10.789062 -9.929688 11.597656 -9.007812 12.484375 -8.28125 C 13.367188 -7.550781 14.40625 -7.1875 15.59375 -7.1875 C 17.050781 -7.1875 18.335938 -7.570312 19.453125 -8.34375 C 20.578125 -9.125 21.546875 -10.128906 22.359375 -11.359375 C 23.179688 -12.585938 23.851562 -13.976562 24.375 -15.53125 C 24.90625 -17.082031 25.328125 -18.644531 25.640625 -20.21875 C 25.960938 -21.789062 26.191406 -23.304688 26.328125 -24.765625 C 26.472656 -26.222656 26.546875 -27.5 26.546875 -28.59375 C 26.546875 -29.6875 26.460938 -30.722656 26.296875 -31.703125 C 26.140625 -32.679688 25.945312 -33.648438 25.71875 -34.609375 C 25.488281 -35.566406 25.296875 -36.515625 25.140625 -37.453125 C 24.984375 -38.390625 24.90625 -39.335938 24.90625 -40.296875 C 24.90625 -41.160156 25.210938 -41.773438 25.828125 -42.140625 C 26.441406 -42.503906 27.132812 -42.6875 27.90625 -42.6875 C 28.863281 -42.6875 29.640625 -42.398438 30.234375 -41.828125 C 30.828125 -41.253906 31.296875 -40.535156 31.640625 -39.671875 C 31.984375 -38.804688 32.210938 -37.816406 32.328125 -36.703125 C 32.441406 -35.585938 32.5 -34.476562 32.5 -33.375 C 32.5 -32.28125 32.472656 -31.242188 32.421875 -30.265625 C 32.378906 -29.285156 32.359375 -28.5 32.359375 -27.90625 C 32.359375 -26.351562 32.242188 -24.597656 32.015625 -22.640625 C 31.785156 -20.679688 31.382812 -18.660156 30.8125 -16.578125 C 30.25 -14.503906 29.546875 -12.460938 28.703125 -10.453125 C 27.859375 -8.453125 26.832031 -6.664062 25.625 -5.09375 C 24.414062 -3.519531 23.019531 -2.253906 21.4375 -1.296875 C 19.863281 -0.335938 18.097656 0.140625 16.140625 0.140625 C 14.085938 0.140625 12.285156 -0.347656 10.734375 -1.328125 C 9.179688 -2.304688 7.867188 -3.601562 6.796875 -5.21875 C 5.734375 -6.84375 4.835938 -8.679688 4.109375 -10.734375 C 3.378906 -12.785156 2.816406 -14.835938 2.421875 -16.890625 C 2.035156 -18.941406 1.765625 -20.9375 1.609375 -22.875 C 1.453125 -24.8125 1.375 -26.488281 1.375 -27.90625 Z M 1.375 -27.90625 "/></g></g></g><g fill="#ffffff" fill-opacity="1"><g transform="translate(440.12043, 140.58473)"><g><path d="M 1.375 -28.734375 C 1.375 -29.140625 1.394531 -29.554688 1.4375 -29.984375 C 1.476562 -30.421875 1.566406 -30.8125 1.703125 -31.15625 C 1.847656 -31.5 2.066406 -31.785156 2.359375 -32.015625 C 2.648438 -32.242188 3.070312 -32.359375 3.625 -32.359375 C 4.082031 -32.359375 4.59375 -32.003906 5.15625 -31.296875 C 5.726562 -30.585938 6.3125 -29.695312 6.90625 -28.625 C 7.5 -27.550781 8.082031 -26.375 8.65625 -25.09375 C 9.226562 -23.820312 9.726562 -22.648438 10.15625 -21.578125 C 10.59375 -20.503906 10.945312 -19.582031 11.21875 -18.8125 C 11.488281 -18.039062 11.648438 -17.628906 11.703125 -17.578125 C 12.296875 -19.171875 12.957031 -20.898438 13.6875 -22.765625 C 14.414062 -24.640625 15.3125 -26.382812 16.375 -28 C 17.445312 -29.625 18.722656 -30.984375 20.203125 -32.078125 C 21.691406 -33.171875 23.507812 -33.71875 25.65625 -33.71875 C 26.75 -33.71875 27.785156 -33.546875 28.765625 -33.203125 C 29.742188 -32.867188 30.609375 -32.367188 31.359375 -31.703125 C 32.117188 -31.046875 32.722656 -30.257812 33.171875 -29.34375 C 33.628906 -28.4375 33.859375 -27.390625 33.859375 -26.203125 C 33.859375 -25.191406 33.457031 -24.484375 32.65625 -24.078125 C 31.863281 -23.671875 30.96875 -23.46875 29.96875 -23.46875 L 29.28125 -23.46875 L 26.34375 -26.40625 C 26.25 -26.40625 26.175781 -26.425781 26.125 -26.46875 C 26.039062 -26.46875 25.960938 -26.476562 25.890625 -26.5 C 25.816406 -26.53125 25.738281 -26.546875 25.65625 -26.546875 C 24.050781 -26.546875 22.804688 -26.097656 21.921875 -25.203125 C 21.035156 -24.316406 20.363281 -23.222656 19.90625 -21.921875 C 19.445312 -20.617188 19.160156 -19.25 19.046875 -17.8125 C 18.929688 -16.382812 18.875 -15.078125 18.875 -13.890625 C 18.875 -12.972656 18.960938 -12.046875 19.140625 -11.109375 C 19.328125 -10.179688 19.535156 -9.269531 19.765625 -8.375 C 19.992188 -7.488281 20.195312 -6.578125 20.375 -5.640625 C 20.5625 -4.703125 20.65625 -3.734375 20.65625 -2.734375 C 20.65625 -0.816406 19.628906 0.140625 17.578125 0.140625 C 16.441406 0.140625 15.253906 -0.460938 14.015625 -1.671875 C 12.785156 -2.878906 11.566406 -4.414062 10.359375 -6.28125 C 9.148438 -8.15625 8 -10.222656 6.90625 -12.484375 C 5.8125 -14.742188 4.851562 -16.941406 4.03125 -19.078125 C 3.207031 -21.222656 2.554688 -23.160156 2.078125 -24.890625 C 1.609375 -26.628906 1.375 -27.910156 1.375 -28.734375 Z M 1.375 -28.734375 "/></g></g></g><g fill="#ffffff" fill-opacity="1"><g transform="translate(475.07017, 140.58473)"><g><path d="M 30.78125 -8.828125 C 29.050781 -7.640625 27.554688 -6.578125 26.296875 -5.640625 C 25.046875 -4.703125 23.828125 -3.914062 22.640625 -3.28125 C 21.453125 -2.644531 20.1875 -2.164062 18.84375 -1.84375 C 17.5 -1.53125 15.847656 -1.375 13.890625 -1.375 C 9.648438 -1.375 6.503906 -2.5 4.453125 -4.75 C 2.398438 -7.007812 1.375 -10.375 1.375 -14.84375 C 1.375 -16.570312 1.597656 -18.367188 2.046875 -20.234375 C 2.503906 -22.109375 3.175781 -23.96875 4.0625 -25.8125 C 4.957031 -27.664062 6.019531 -29.425781 7.25 -31.09375 C 8.476562 -32.757812 9.867188 -34.226562 11.421875 -35.5 C 12.972656 -36.78125 14.625 -37.796875 16.375 -38.546875 C 18.132812 -39.296875 19.992188 -39.671875 21.953125 -39.671875 C 25.242188 -39.359375 27.820312 -38.550781 29.6875 -37.25 C 31.5625 -35.945312 32.972656 -34.28125 33.921875 -32.25 C 34.878906 -30.21875 35.539062 -27.957031 35.90625 -25.46875 C 36.269531 -22.988281 36.554688 -20.425781 36.765625 -17.78125 C 36.972656 -15.132812 37.234375 -12.488281 37.546875 -9.84375 C 37.867188 -7.207031 38.53125 -4.769531 39.53125 -2.53125 C 38.945312 -1.03125 38.390625 0.0234375 37.859375 0.640625 C 37.335938 1.265625 36.753906 1.367188 36.109375 0.953125 C 35.472656 0.546875 34.734375 -0.453125 33.890625 -2.046875 C 33.046875 -3.648438 32.007812 -5.910156 30.78125 -8.828125 Z M 7.1875 -14.703125 C 7.1875 -12.109375 7.675781 -10.207031 8.65625 -9 C 9.632812 -7.789062 11.378906 -7.1875 13.890625 -7.1875 C 15.753906 -7.1875 17.539062 -7.515625 19.25 -8.171875 C 20.96875 -8.835938 22.460938 -9.75 23.734375 -10.90625 C 25.015625 -12.070312 26.039062 -13.472656 26.8125 -15.109375 C 27.59375 -16.753906 27.984375 -18.582031 27.984375 -20.59375 C 27.984375 -21.414062 28.003906 -22.566406 28.046875 -24.046875 C 28.085938 -25.523438 27.992188 -26.992188 27.765625 -28.453125 C 27.546875 -29.910156 27.113281 -31.175781 26.46875 -32.25 C 25.832031 -33.320312 24.875 -33.859375 23.59375 -33.859375 C 21.226562 -33.859375 19.039062 -33.253906 17.03125 -32.046875 C 15.019531 -30.835938 13.285156 -29.296875 11.828125 -27.421875 C 10.367188 -25.554688 9.226562 -23.492188 8.40625 -21.234375 C 7.59375 -18.984375 7.1875 -16.804688 7.1875 -14.703125 Z M 7.1875 -14.703125 "/></g></g></g></svg>