<svg xmlns="http://www.w3.org/2000/svg" xmlns:xlink="http://www.w3.org/1999/xlink" width="300" zoomAndPan="magnify" viewBox="0 0 224.87999 89.999999" height="120" preserveAspectRatio="xMidYMid meet" version="1.0"><defs><g/></defs><g fill="#ffffff" fill-opacity="1"><g transform="translate(62.213747, 40.720588)"><g><path d="M 0.625 -13.375 C 0.625 -13.625 0.628906 -14.035156 0.640625 -14.609375 C 0.648438 -15.179688 0.65625 -15.785156 0.65625 -16.421875 C 0.65625 -17.054688 0.660156 -17.65625 0.671875 -18.21875 C 0.679688 -18.78125 0.6875 -19.175781 0.6875 -19.40625 C 0.707031 -19.550781 0.757812 -19.773438 0.84375 -20.078125 C 0.925781 -20.378906 1.023438 -20.675781 1.140625 -20.96875 C 1.253906 -21.257812 1.410156 -21.515625 1.609375 -21.734375 C 1.804688 -21.953125 2.050781 -22.0625 2.34375 -22.0625 C 3.03125 -22.0625 3.675781 -21.875 4.28125 -21.5 C 4.882812 -21.125 5.46875 -20.628906 6.03125 -20.015625 C 6.59375 -19.398438 7.128906 -18.71875 7.640625 -17.96875 C 8.148438 -17.21875 8.65625 -16.472656 9.15625 -15.734375 C 9.65625 -14.992188 10.144531 -14.296875 10.625 -13.640625 C 11.101562 -12.984375 11.582031 -12.457031 12.0625 -12.0625 C 12.582031 -12.289062 12.988281 -12.710938 13.28125 -13.328125 C 13.570312 -13.941406 13.8125 -14.648438 14 -15.453125 C 14.1875 -16.253906 14.359375 -17.085938 14.515625 -17.953125 C 14.671875 -18.816406 14.882812 -19.613281 15.15625 -20.34375 C 15.425781 -21.070312 15.785156 -21.671875 16.234375 -22.140625 C 16.679688 -22.609375 17.300781 -22.84375 18.09375 -22.84375 C 19.03125 -22.84375 19.878906 -22.476562 20.640625 -21.75 C 21.398438 -21.019531 22.082031 -20.09375 22.6875 -18.96875 C 23.289062 -17.84375 23.804688 -16.59375 24.234375 -15.21875 C 24.660156 -13.84375 25.019531 -12.519531 25.3125 -11.25 C 25.601562 -9.976562 25.820312 -8.832031 25.96875 -7.8125 C 26.113281 -6.789062 26.1875 -6.0625 26.1875 -5.625 C 26.1875 -5.4375 26.175781 -5.234375 26.15625 -5.015625 C 26.132812 -4.796875 26.082031 -4.597656 26 -4.421875 C 25.914062 -4.242188 25.78125 -4.109375 25.59375 -4.015625 C 25.40625 -3.921875 25.132812 -3.925781 24.78125 -4.03125 C 24.675781 -4.050781 24.554688 -4.109375 24.421875 -4.203125 C 24.285156 -4.296875 24.144531 -4.414062 24 -4.5625 C 23.851562 -4.707031 23.726562 -4.847656 23.625 -4.984375 C 23.519531 -5.117188 23.46875 -5.238281 23.46875 -5.34375 C 23.28125 -6.363281 23.070312 -7.5 22.84375 -8.75 C 22.613281 -10 22.328125 -11.265625 21.984375 -12.546875 C 21.640625 -13.828125 21.207031 -15.070312 20.6875 -16.28125 C 20.164062 -17.488281 19.519531 -18.53125 18.75 -19.40625 C 18.144531 -19.070312 17.671875 -18.566406 17.328125 -17.890625 C 16.984375 -17.210938 16.695312 -16.472656 16.46875 -15.671875 C 16.238281 -14.867188 16.03125 -14.050781 15.84375 -13.21875 C 15.65625 -12.382812 15.40625 -11.628906 15.09375 -10.953125 C 14.78125 -10.273438 14.382812 -9.71875 13.90625 -9.28125 C 13.425781 -8.84375 12.78125 -8.625 11.96875 -8.625 C 11.40625 -8.625 10.859375 -8.804688 10.328125 -9.171875 C 9.796875 -9.535156 9.28125 -10.015625 8.78125 -10.609375 C 8.28125 -11.203125 7.796875 -11.859375 7.328125 -12.578125 C 6.859375 -13.296875 6.398438 -14.003906 5.953125 -14.703125 C 5.503906 -15.398438 5.066406 -16.050781 4.640625 -16.65625 C 4.210938 -17.257812 3.78125 -17.738281 3.34375 -18.09375 C 3.175781 -17.445312 3.046875 -16.878906 2.953125 -16.390625 C 2.859375 -15.898438 2.785156 -15.425781 2.734375 -14.96875 C 2.679688 -14.507812 2.648438 -14.039062 2.640625 -13.5625 C 2.628906 -13.082031 2.625 -12.550781 2.625 -11.96875 C 2.625 -11.09375 2.695312 -10.222656 2.84375 -9.359375 C 2.988281 -8.492188 3.144531 -7.632812 3.3125 -6.78125 C 3.476562 -5.925781 3.640625 -5.066406 3.796875 -4.203125 C 3.953125 -3.335938 4.03125 -2.46875 4.03125 -1.59375 L 4.03125 -1.34375 C 3.988281 -1.28125 3.90625 -1.179688 3.78125 -1.046875 C 3.65625 -0.910156 3.523438 -0.769531 3.390625 -0.625 C 3.253906 -0.476562 3.113281 -0.347656 2.96875 -0.234375 C 2.820312 -0.117188 2.71875 -0.0390625 2.65625 0 C 2.632812 0.0195312 2.59375 0.03125 2.53125 0.03125 C 2.46875 0.0507812 2.40625 0.0625 2.34375 0.0625 C 2.300781 0.0625 2.25 0.0507812 2.1875 0.03125 C 2.125 0.0078125 2.070312 0 2.03125 0 C 1.882812 -1.207031 1.726562 -2.351562 1.5625 -3.4375 C 1.394531 -4.519531 1.242188 -5.59375 1.109375 -6.65625 C 0.972656 -7.71875 0.859375 -8.789062 0.765625 -9.875 C 0.671875 -10.957031 0.625 -12.125 0.625 -13.375 Z M 0.625 -13.375 "/></g></g></g><g fill="#ffffff" fill-opacity="1"><g transform="translate(89.650823, 40.720588)"><g><path d="M 1.9375 -11.71875 C 1.9375 -11.84375 1.941406 -12.046875 1.953125 -12.328125 C 1.960938 -12.609375 1.972656 -12.90625 1.984375 -13.21875 C 1.992188 -13.53125 2.003906 -13.832031 2.015625 -14.125 C 2.023438 -14.414062 2.03125 -14.625 2.03125 -14.75 C 2.257812 -15.082031 2.554688 -15.351562 2.921875 -15.5625 C 3.285156 -15.769531 3.65625 -15.9375 4.03125 -16.0625 C 4.09375 -14.9375 4.269531 -13.738281 4.5625 -12.46875 C 4.851562 -11.195312 5.164062 -9.921875 5.5 -8.640625 C 5.832031 -7.359375 6.128906 -6.09375 6.390625 -4.84375 C 6.648438 -3.59375 6.78125 -2.425781 6.78125 -1.34375 C 6.78125 -0.40625 6.300781 0.0625 5.34375 0.0625 C 4.757812 0.0625 4.269531 -0.175781 3.875 -0.65625 C 3.476562 -1.132812 3.160156 -1.742188 2.921875 -2.484375 C 2.679688 -3.222656 2.488281 -4.046875 2.34375 -4.953125 C 2.195312 -5.859375 2.097656 -6.75 2.046875 -7.625 C 1.992188 -8.5 1.960938 -9.300781 1.953125 -10.03125 C 1.941406 -10.757812 1.9375 -11.320312 1.9375 -11.71875 Z M 2.375 -23.4375 C 2.769531 -23.269531 3.101562 -23 3.375 -22.625 C 3.644531 -22.25 3.765625 -21.910156 3.734375 -21.609375 C 3.703125 -21.304688 3.46875 -21.097656 3.03125 -20.984375 C 2.59375 -20.867188 1.863281 -20.988281 0.84375 -21.34375 C 0.84375 -21.90625 0.953125 -22.394531 1.171875 -22.8125 C 1.390625 -23.226562 1.789062 -23.4375 2.375 -23.4375 Z M 2.375 -23.4375 "/></g></g></g><g fill="#ffffff" fill-opacity="1"><g transform="translate(97.02571, 40.720588)"><g><path d="M 0.09375 -16.15625 C 0.09375 -16.34375 0.0976562 -16.535156 0.109375 -16.734375 C 0.117188 -16.929688 0.160156 -17.117188 0.234375 -17.296875 C 0.304688 -17.472656 0.410156 -17.609375 0.546875 -17.703125 C 0.679688 -17.796875 0.882812 -17.84375 1.15625 -17.84375 C 1.175781 -17.84375 1.203125 -17.84375 1.234375 -17.84375 C 1.265625 -17.84375 1.300781 -17.84375 1.34375 -17.84375 C 1.40625 -17.820312 1.457031 -17.8125 1.5 -17.8125 C 1.894531 -17.269531 2.238281 -16.578125 2.53125 -15.734375 C 2.820312 -14.890625 3.101562 -13.992188 3.375 -13.046875 C 3.644531 -12.097656 3.9375 -11.140625 4.25 -10.171875 C 4.5625 -9.203125 4.96875 -8.332031 5.46875 -7.5625 C 5.96875 -6.789062 6.582031 -6.175781 7.3125 -5.71875 C 8.039062 -5.257812 8.945312 -5.0625 10.03125 -5.125 C 10.507812 -5.125 10.820312 -5.382812 10.96875 -5.90625 C 11.113281 -6.425781 11.191406 -7.09375 11.203125 -7.90625 C 11.210938 -8.71875 11.191406 -9.613281 11.140625 -10.59375 C 11.085938 -11.570312 11.085938 -12.503906 11.140625 -13.390625 C 11.191406 -14.273438 11.347656 -15.050781 11.609375 -15.71875 C 11.867188 -16.382812 12.320312 -16.832031 12.96875 -17.0625 C 13.238281 -16.519531 13.460938 -15.671875 13.640625 -14.515625 C 13.816406 -13.359375 13.945312 -12.023438 14.03125 -10.515625 C 14.113281 -9.003906 14.15625 -7.367188 14.15625 -5.609375 C 14.15625 -3.847656 14.113281 -2.097656 14.03125 -0.359375 C 13.945312 1.378906 13.820312 3.050781 13.65625 4.65625 C 13.488281 6.257812 13.300781 7.664062 13.09375 8.875 C 12.882812 10.082031 12.640625 11.035156 12.359375 11.734375 C 12.078125 12.429688 11.78125 12.726562 11.46875 12.625 C 11.03125 12.207031 10.691406 11.664062 10.453125 11 C 10.210938 10.332031 10.046875 9.59375 9.953125 8.78125 C 9.859375 7.96875 9.820312 7.109375 9.84375 6.203125 C 9.863281 5.296875 9.898438 4.382812 9.953125 3.46875 C 10.003906 2.550781 10.066406 1.65625 10.140625 0.78125 C 10.210938 -0.09375 10.25 -0.894531 10.25 -1.625 C 9.5 -1.5625 8.734375 -1.675781 7.953125 -1.96875 C 7.171875 -2.257812 6.40625 -2.710938 5.65625 -3.328125 C 4.90625 -3.941406 4.191406 -4.6875 3.515625 -5.5625 C 2.835938 -6.4375 2.242188 -7.425781 1.734375 -8.53125 C 1.222656 -9.632812 0.820312 -10.828125 0.53125 -12.109375 C 0.238281 -13.390625 0.09375 -14.738281 0.09375 -16.15625 Z M 0.09375 -16.15625 "/></g></g></g><g fill="#ffffff" fill-opacity="1"><g transform="translate(112.431722, 40.720588)"><g><path d="M 0.625 -6.34375 C 0.625 -7.632812 0.925781 -8.835938 1.53125 -9.953125 C 2.132812 -11.066406 2.929688 -12.023438 3.921875 -12.828125 C 4.910156 -13.628906 6.023438 -14.257812 7.265625 -14.71875 C 8.503906 -15.175781 9.757812 -15.40625 11.03125 -15.40625 C 11.738281 -15.40625 12.367188 -15.175781 12.921875 -14.71875 C 13.472656 -14.257812 13.9375 -13.703125 14.3125 -13.046875 C 14.6875 -12.390625 14.972656 -11.695312 15.171875 -10.96875 C 15.367188 -10.238281 15.46875 -9.601562 15.46875 -9.0625 C 15.46875 -7.894531 15.1875 -6.765625 14.625 -5.671875 C 14.0625 -4.578125 13.332031 -3.609375 12.4375 -2.765625 C 11.539062 -1.921875 10.53125 -1.238281 9.40625 -0.71875 C 8.28125 -0.195312 7.15625 0.0625 6.03125 0.0625 C 5.03125 0.0625 4.1875 -0.109375 3.5 -0.453125 C 2.8125 -0.796875 2.257812 -1.253906 1.84375 -1.828125 C 1.425781 -2.398438 1.117188 -3.078125 0.921875 -3.859375 C 0.722656 -4.640625 0.625 -5.46875 0.625 -6.34375 Z M 3.28125 -6.03125 C 3.28125 -5.488281 3.328125 -5.015625 3.421875 -4.609375 C 3.515625 -4.203125 3.679688 -3.851562 3.921875 -3.5625 C 4.160156 -3.269531 4.476562 -3.046875 4.875 -2.890625 C 5.269531 -2.734375 5.757812 -2.65625 6.34375 -2.65625 C 7.113281 -2.65625 7.882812 -2.867188 8.65625 -3.296875 C 9.425781 -3.722656 10.117188 -4.265625 10.734375 -4.921875 C 11.347656 -5.578125 11.84375 -6.300781 12.21875 -7.09375 C 12.59375 -7.882812 12.78125 -8.65625 12.78125 -9.40625 C 12.78125 -9.738281 12.75 -10.101562 12.6875 -10.5 C 12.625 -10.894531 12.519531 -11.257812 12.375 -11.59375 C 12.226562 -11.925781 12.019531 -12.207031 11.75 -12.4375 C 11.476562 -12.664062 11.132812 -12.78125 10.71875 -12.78125 C 10.34375 -12.78125 9.898438 -12.65625 9.390625 -12.40625 C 8.878906 -12.15625 8.347656 -11.832031 7.796875 -11.4375 C 7.242188 -11.039062 6.703125 -10.59375 6.171875 -10.09375 C 5.640625 -9.59375 5.15625 -9.09375 4.71875 -8.59375 C 4.28125 -8.09375 3.929688 -7.613281 3.671875 -7.15625 C 3.410156 -6.695312 3.28125 -6.320312 3.28125 -6.03125 Z M 3.28125 -6.03125 "/></g></g></g><g fill="#ffffff" fill-opacity="1"><g transform="translate(128.493974, 40.720588)"><g><path d="M 6.6875 -0.625 C 6.351562 -0.332031 6.003906 -0.46875 5.640625 -1.03125 C 5.273438 -1.59375 4.90625 -2.441406 4.53125 -3.578125 C 4.15625 -4.710938 3.785156 -6.070312 3.421875 -7.65625 C 3.054688 -9.238281 2.707031 -10.914062 2.375 -12.6875 C 2.039062 -14.457031 1.722656 -16.253906 1.421875 -18.078125 C 1.117188 -19.898438 0.851562 -21.613281 0.625 -23.21875 C 0.625 -23.507812 0.617188 -23.804688 0.609375 -24.109375 C 0.597656 -24.410156 0.628906 -24.691406 0.703125 -24.953125 C 0.773438 -25.210938 0.910156 -25.445312 1.109375 -25.65625 C 1.304688 -25.863281 1.613281 -26.019531 2.03125 -26.125 C 2.070312 -26.144531 2.160156 -26.128906 2.296875 -26.078125 C 2.429688 -26.023438 2.570312 -25.960938 2.71875 -25.890625 C 2.863281 -25.816406 2.992188 -25.738281 3.109375 -25.65625 C 3.222656 -25.570312 3.300781 -25.5 3.34375 -25.4375 C 3.070312 -21.539062 3.519531 -17.75 4.6875 -14.0625 C 4.75 -14.125 4.914062 -14.335938 5.1875 -14.703125 C 5.457031 -15.066406 5.800781 -15.492188 6.21875 -15.984375 C 6.632812 -16.472656 7.109375 -17 7.640625 -17.5625 C 8.171875 -18.125 8.726562 -18.644531 9.3125 -19.125 C 9.894531 -19.601562 10.476562 -20.003906 11.0625 -20.328125 C 11.644531 -20.648438 12.207031 -20.8125 12.75 -20.8125 C 13.0625 -20.8125 13.367188 -20.738281 13.671875 -20.59375 C 13.972656 -20.445312 14.125 -20.164062 14.125 -19.75 C 14.125 -19.707031 14.113281 -19.648438 14.09375 -19.578125 C 14.070312 -19.503906 14.0625 -19.445312 14.0625 -19.40625 C 13.726562 -19.113281 13.222656 -18.664062 12.546875 -18.0625 C 11.867188 -17.457031 11.15625 -16.78125 10.40625 -16.03125 C 9.65625 -15.28125 8.9375 -14.5 8.25 -13.6875 C 7.5625 -12.875 7.039062 -12.101562 6.6875 -11.375 C 6.625 -11.25 6.601562 -11.140625 6.625 -11.046875 C 6.644531 -10.953125 6.664062 -10.84375 6.6875 -10.71875 C 6.914062 -10.632812 7.28125 -10.507812 7.78125 -10.34375 C 8.28125 -10.175781 8.832031 -9.984375 9.4375 -9.765625 C 10.039062 -9.546875 10.6875 -9.316406 11.375 -9.078125 C 12.0625 -8.835938 12.707031 -8.601562 13.3125 -8.375 C 13.914062 -8.144531 14.460938 -7.941406 14.953125 -7.765625 C 15.441406 -7.585938 15.8125 -7.457031 16.0625 -7.375 C 16.351562 -7.25 16.59375 -7.164062 16.78125 -7.125 C 16.96875 -7.082031 17.113281 -7.023438 17.21875 -6.953125 C 17.320312 -6.878906 17.394531 -6.78125 17.4375 -6.65625 C 17.476562 -6.53125 17.5 -6.34375 17.5 -6.09375 C 17.5 -5.488281 17.351562 -5.09375 17.0625 -4.90625 C 16.769531 -4.71875 16.351562 -4.625 15.8125 -4.625 C 14.207031 -4.726562 12.632812 -5.066406 11.09375 -5.640625 C 9.550781 -6.210938 7.988281 -6.90625 6.40625 -7.71875 C 6.34375 -7.320312 6.367188 -6.863281 6.484375 -6.34375 C 6.597656 -5.820312 6.738281 -5.300781 6.90625 -4.78125 C 7.070312 -4.257812 7.234375 -3.75 7.390625 -3.25 C 7.546875 -2.75 7.640625 -2.300781 7.671875 -1.90625 C 7.703125 -1.507812 7.65625 -1.195312 7.53125 -0.96875 C 7.40625 -0.738281 7.125 -0.625 6.6875 -0.625 Z M 6.6875 -0.625 "/></g></g></g><g fill="#ffffff" fill-opacity="1"><g transform="translate(146.587444, 40.720588)"><g><path d="M 0.625 -6.34375 C 0.625 -7.632812 0.925781 -8.835938 1.53125 -9.953125 C 2.132812 -11.066406 2.929688 -12.023438 3.921875 -12.828125 C 4.910156 -13.628906 6.023438 -14.257812 7.265625 -14.71875 C 8.503906 -15.175781 9.757812 -15.40625 11.03125 -15.40625 C 11.738281 -15.40625 12.367188 -15.175781 12.921875 -14.71875 C 13.472656 -14.257812 13.9375 -13.703125 14.3125 -13.046875 C 14.6875 -12.390625 14.972656 -11.695312 15.171875 -10.96875 C 15.367188 -10.238281 15.46875 -9.601562 15.46875 -9.0625 C 15.46875 -7.894531 15.1875 -6.765625 14.625 -5.671875 C 14.0625 -4.578125 13.332031 -3.609375 12.4375 -2.765625 C 11.539062 -1.921875 10.53125 -1.238281 9.40625 -0.71875 C 8.28125 -0.195312 7.15625 0.0625 6.03125 0.0625 C 5.03125 0.0625 4.1875 -0.109375 3.5 -0.453125 C 2.8125 -0.796875 2.257812 -1.253906 1.84375 -1.828125 C 1.425781 -2.398438 1.117188 -3.078125 0.921875 -3.859375 C 0.722656 -4.640625 0.625 -5.46875 0.625 -6.34375 Z M 3.28125 -6.03125 C 3.28125 -5.488281 3.328125 -5.015625 3.421875 -4.609375 C 3.515625 -4.203125 3.679688 -3.851562 3.921875 -3.5625 C 4.160156 -3.269531 4.476562 -3.046875 4.875 -2.890625 C 5.269531 -2.734375 5.757812 -2.65625 6.34375 -2.65625 C 7.113281 -2.65625 7.882812 -2.867188 8.65625 -3.296875 C 9.425781 -3.722656 10.117188 -4.265625 10.734375 -4.921875 C 11.347656 -5.578125 11.84375 -6.300781 12.21875 -7.09375 C 12.59375 -7.882812 12.78125 -8.65625 12.78125 -9.40625 C 12.78125 -9.738281 12.75 -10.101562 12.6875 -10.5 C 12.625 -10.894531 12.519531 -11.257812 12.375 -11.59375 C 12.226562 -11.925781 12.019531 -12.207031 11.75 -12.4375 C 11.476562 -12.664062 11.132812 -12.78125 10.71875 -12.78125 C 10.34375 -12.78125 9.898438 -12.65625 9.390625 -12.40625 C 8.878906 -12.15625 8.347656 -11.832031 7.796875 -11.4375 C 7.242188 -11.039062 6.703125 -10.59375 6.171875 -10.09375 C 5.640625 -9.59375 5.15625 -9.09375 4.71875 -8.59375 C 4.28125 -8.09375 3.929688 -7.613281 3.671875 -7.15625 C 3.410156 -6.695312 3.28125 -6.320312 3.28125 -6.03125 Z M 3.28125 -6.03125 "/></g></g></g><g fill="#ffffff" fill-opacity="1"><g transform="translate(53.324996, 74.93894)"><g><path d="M 5.34375 -1.34375 C 5.445312 -1.84375 5.710938 -2.253906 6.140625 -2.578125 C 6.566406 -2.898438 7.054688 -3.195312 7.609375 -3.46875 C 8.160156 -3.738281 8.738281 -3.992188 9.34375 -4.234375 C 9.945312 -4.472656 10.503906 -4.726562 11.015625 -5 C 11.523438 -5.269531 11.945312 -5.585938 12.28125 -5.953125 C 12.613281 -6.316406 12.78125 -6.757812 12.78125 -7.28125 C 12.78125 -7.945312 12.609375 -8.5 12.265625 -8.9375 C 11.921875 -9.375 11.460938 -9.75 10.890625 -10.0625 C 10.316406 -10.375 9.664062 -10.632812 8.9375 -10.84375 C 8.207031 -11.050781 7.460938 -11.265625 6.703125 -11.484375 C 5.941406 -11.703125 5.195312 -11.941406 4.46875 -12.203125 C 3.738281 -12.460938 3.085938 -12.789062 2.515625 -13.1875 C 1.941406 -13.582031 1.484375 -14.0625 1.140625 -14.625 C 0.796875 -15.1875 0.625 -15.882812 0.625 -16.71875 C 0.625 -17.40625 0.765625 -18.054688 1.046875 -18.671875 C 1.328125 -19.285156 1.703125 -19.867188 2.171875 -20.421875 C 2.640625 -20.972656 3.179688 -21.476562 3.796875 -21.9375 C 4.410156 -22.394531 5.054688 -22.78125 5.734375 -23.09375 C 6.410156 -23.40625 7.09375 -23.648438 7.78125 -23.828125 C 8.46875 -24.003906 9.101562 -24.09375 9.6875 -24.09375 L 10.03125 -24.09375 C 10.21875 -24.03125 10.46875 -23.925781 10.78125 -23.78125 C 11.09375 -23.632812 11.394531 -23.492188 11.6875 -23.359375 C 11.976562 -23.222656 12.226562 -23.097656 12.4375 -22.984375 C 12.644531 -22.867188 12.75 -22.800781 12.75 -22.78125 L 12.75 -22.0625 C 12.351562 -22.019531 11.84375 -21.941406 11.21875 -21.828125 C 10.59375 -21.710938 9.9375 -21.5625 9.25 -21.375 C 8.5625 -21.1875 7.863281 -20.953125 7.15625 -20.671875 C 6.445312 -20.390625 5.8125 -20.0625 5.25 -19.6875 C 4.6875 -19.3125 4.226562 -18.878906 3.875 -18.390625 C 3.519531 -17.898438 3.34375 -17.34375 3.34375 -16.71875 C 3.34375 -15.820312 3.65625 -15.117188 4.28125 -14.609375 C 4.90625 -14.097656 5.6875 -13.675781 6.625 -13.34375 C 7.5625 -13.007812 8.585938 -12.710938 9.703125 -12.453125 C 10.816406 -12.191406 11.84375 -11.878906 12.78125 -11.515625 C 13.71875 -11.148438 14.5 -10.671875 15.125 -10.078125 C 15.75 -9.484375 16.0625 -8.6875 16.0625 -7.6875 C 16.0625 -7.144531 15.898438 -6.578125 15.578125 -5.984375 C 15.253906 -5.390625 14.828125 -4.804688 14.296875 -4.234375 C 13.765625 -3.660156 13.164062 -3.113281 12.5 -2.59375 C 11.832031 -2.070312 11.148438 -1.617188 10.453125 -1.234375 C 9.753906 -0.847656 9.070312 -0.535156 8.40625 -0.296875 C 7.738281 -0.0546875 7.144531 0.0625 6.625 0.0625 C 6.457031 0.0625 6.28125 0.0390625 6.09375 0 C 5.90625 -0.0390625 5.742188 -0.109375 5.609375 -0.203125 C 5.472656 -0.296875 5.367188 -0.4375 5.296875 -0.625 C 5.222656 -0.8125 5.238281 -1.050781 5.34375 -1.34375 Z M 5.34375 -1.34375 "/></g></g></g><g fill="#ffffff" fill-opacity="1"><g transform="translate(70.043487, 74.93894)"><g><path d="M 1.53125 -20.3125 C 1.53125 -20.539062 1.554688 -20.828125 1.609375 -21.171875 C 1.660156 -21.515625 1.753906 -21.84375 1.890625 -22.15625 C 2.023438 -22.46875 2.195312 -22.734375 2.40625 -22.953125 C 2.613281 -23.171875 2.882812 -23.28125 3.21875 -23.28125 C 3.238281 -23.28125 3.289062 -23.269531 3.375 -23.25 C 3.457031 -23.226562 3.507812 -23.21875 3.53125 -23.21875 C 3.882812 -21.925781 4.09375 -20.644531 4.15625 -19.375 C 4.21875 -18.101562 4.195312 -16.867188 4.09375 -15.671875 C 3.988281 -14.472656 3.832031 -13.316406 3.625 -12.203125 C 3.414062 -11.085938 3.242188 -10.0625 3.109375 -9.125 C 2.972656 -8.1875 2.890625 -7.34375 2.859375 -6.59375 C 2.828125 -5.84375 2.9375 -5.207031 3.1875 -4.6875 C 3.144531 -5.019531 3.117188 -5.421875 3.109375 -5.890625 C 3.097656 -6.359375 3.140625 -6.84375 3.234375 -7.34375 C 3.328125 -7.84375 3.484375 -8.34375 3.703125 -8.84375 C 3.921875 -9.34375 4.238281 -9.789062 4.65625 -10.1875 C 5.070312 -10.582031 5.609375 -10.894531 6.265625 -11.125 C 6.921875 -11.351562 7.738281 -11.46875 8.71875 -11.46875 C 9.738281 -11.46875 10.617188 -11.289062 11.359375 -10.9375 C 12.097656 -10.582031 12.707031 -10.097656 13.1875 -9.484375 C 13.664062 -8.867188 14.023438 -8.148438 14.265625 -7.328125 C 14.503906 -6.503906 14.625 -5.625 14.625 -4.6875 C 14.625 -4.25 14.617188 -3.753906 14.609375 -3.203125 C 14.597656 -2.648438 14.523438 -2.140625 14.390625 -1.671875 C 14.253906 -1.203125 14.015625 -0.804688 13.671875 -0.484375 C 13.328125 -0.160156 12.820312 0 12.15625 0 C 12.15625 -0.332031 12.175781 -0.785156 12.21875 -1.359375 C 12.257812 -1.929688 12.285156 -2.539062 12.296875 -3.1875 C 12.304688 -3.832031 12.285156 -4.488281 12.234375 -5.15625 C 12.179688 -5.820312 12.039062 -6.421875 11.8125 -6.953125 C 11.582031 -7.484375 11.265625 -7.921875 10.859375 -8.265625 C 10.453125 -8.609375 9.894531 -8.78125 9.1875 -8.78125 C 8.9375 -8.78125 8.628906 -8.765625 8.265625 -8.734375 C 7.898438 -8.703125 7.53125 -8.601562 7.15625 -8.4375 C 6.78125 -8.269531 6.414062 -8.015625 6.0625 -7.671875 C 5.707031 -7.328125 5.425781 -6.859375 5.21875 -6.265625 C 5.007812 -5.671875 4.890625 -4.921875 4.859375 -4.015625 C 4.828125 -3.109375 4.9375 -2 5.1875 -0.6875 C 5.039062 -0.3125 4.859375 -0.09375 4.640625 -0.03125 C 4.421875 0.03125 4.144531 0.0625 3.8125 0.0625 C 3.144531 0.0625 2.597656 -0.171875 2.171875 -0.640625 C 1.742188 -1.109375 1.414062 -1.738281 1.1875 -2.53125 C 0.957031 -3.320312 0.804688 -4.238281 0.734375 -5.28125 C 0.660156 -6.320312 0.632812 -7.410156 0.65625 -8.546875 C 0.675781 -9.679688 0.734375 -10.835938 0.828125 -12.015625 C 0.921875 -13.191406 1.015625 -14.304688 1.109375 -15.359375 C 1.203125 -16.410156 1.296875 -17.367188 1.390625 -18.234375 C 1.484375 -19.097656 1.53125 -19.789062 1.53125 -20.3125 Z M 1.53125 -20.3125 "/></g></g></g><g fill="#ffffff" fill-opacity="1"><g transform="translate(85.293251, 74.93894)"><g><path d="M 1.9375 -11.71875 C 1.9375 -11.84375 1.941406 -12.046875 1.953125 -12.328125 C 1.960938 -12.609375 1.972656 -12.90625 1.984375 -13.21875 C 1.992188 -13.53125 2.003906 -13.832031 2.015625 -14.125 C 2.023438 -14.414062 2.03125 -14.625 2.03125 -14.75 C 2.257812 -15.082031 2.554688 -15.351562 2.921875 -15.5625 C 3.285156 -15.769531 3.65625 -15.9375 4.03125 -16.0625 C 4.09375 -14.9375 4.269531 -13.738281 4.5625 -12.46875 C 4.851562 -11.195312 5.164062 -9.921875 5.5 -8.640625 C 5.832031 -7.359375 6.128906 -6.09375 6.390625 -4.84375 C 6.648438 -3.59375 6.78125 -2.425781 6.78125 -1.34375 C 6.78125 -0.40625 6.300781 0.0625 5.34375 0.0625 C 4.757812 0.0625 4.269531 -0.175781 3.875 -0.65625 C 3.476562 -1.132812 3.160156 -1.742188 2.921875 -2.484375 C 2.679688 -3.222656 2.488281 -4.046875 2.34375 -4.953125 C 2.195312 -5.859375 2.097656 -6.75 2.046875 -7.625 C 1.992188 -8.5 1.960938 -9.300781 1.953125 -10.03125 C 1.941406 -10.757812 1.9375 -11.320312 1.9375 -11.71875 Z M 2.375 -23.4375 C 2.769531 -23.269531 3.101562 -23 3.375 -22.625 C 3.644531 -22.25 3.765625 -21.910156 3.734375 -21.609375 C 3.703125 -21.304688 3.46875 -21.097656 3.03125 -20.984375 C 2.59375 -20.867188 1.863281 -20.988281 0.84375 -21.34375 C 0.84375 -21.90625 0.953125 -22.394531 1.171875 -22.8125 C 1.390625 -23.226562 1.789062 -23.4375 2.375 -23.4375 Z M 2.375 -23.4375 "/></g></g></g><g fill="#ffffff" fill-opacity="1"><g transform="translate(92.668138, 74.93894)"><g><path d="M -0.0625 -13.125 C -0.0625 -13.644531 0.0234375 -14.050781 0.203125 -14.34375 C 0.378906 -14.632812 0.757812 -14.78125 1.34375 -14.78125 C 1.40625 -14.78125 1.523438 -14.773438 1.703125 -14.765625 C 1.878906 -14.753906 1.988281 -14.75 2.03125 -14.75 C 2.175781 -14.101562 2.328125 -13.398438 2.484375 -12.640625 C 2.640625 -11.878906 2.820312 -11.113281 3.03125 -10.34375 C 3.238281 -9.570312 3.472656 -8.8125 3.734375 -8.0625 C 3.992188 -7.3125 4.3125 -6.632812 4.6875 -6.03125 C 5.0625 -6.425781 5.332031 -6.894531 5.5 -7.4375 C 5.664062 -7.976562 5.789062 -8.523438 5.875 -9.078125 C 5.957031 -9.628906 6.035156 -10.160156 6.109375 -10.671875 C 6.179688 -11.179688 6.332031 -11.617188 6.5625 -11.984375 C 6.789062 -12.347656 7.128906 -12.613281 7.578125 -12.78125 C 8.023438 -12.945312 8.644531 -12.945312 9.4375 -12.78125 C 10.3125 -12.78125 11.007812 -12.617188 11.53125 -12.296875 C 12.050781 -11.972656 12.503906 -11.566406 12.890625 -11.078125 C 13.273438 -10.585938 13.648438 -10.066406 14.015625 -9.515625 C 14.378906 -8.960938 14.84375 -8.46875 15.40625 -8.03125 C 15.53125 -8.300781 15.6875 -8.640625 15.875 -9.046875 C 16.0625 -9.453125 16.296875 -9.878906 16.578125 -10.328125 C 16.859375 -10.773438 17.160156 -11.222656 17.484375 -11.671875 C 17.804688 -12.117188 18.144531 -12.523438 18.5 -12.890625 C 18.851562 -13.253906 19.21875 -13.554688 19.59375 -13.796875 C 19.96875 -14.035156 20.332031 -14.15625 20.6875 -14.15625 C 21.539062 -14.15625 22.28125 -13.890625 22.90625 -13.359375 C 23.53125 -12.828125 24.066406 -12.160156 24.515625 -11.359375 C 24.960938 -10.554688 25.332031 -9.660156 25.625 -8.671875 C 25.914062 -7.679688 26.144531 -6.726562 26.3125 -5.8125 C 26.476562 -4.894531 26.597656 -4.054688 26.671875 -3.296875 C 26.742188 -2.535156 26.78125 -1.988281 26.78125 -1.65625 C 26.78125 -1.382812 26.71875 -1.175781 26.59375 -1.03125 C 26.46875 -0.882812 26.3125 -0.773438 26.125 -0.703125 C 25.9375 -0.628906 25.734375 -0.582031 25.515625 -0.5625 C 25.296875 -0.539062 25.09375 -0.53125 24.90625 -0.53125 C 24.863281 -0.53125 24.800781 -0.535156 24.71875 -0.546875 C 24.632812 -0.554688 24.539062 -0.570312 24.4375 -0.59375 C 24.351562 -0.613281 24.238281 -0.644531 24.09375 -0.6875 L 22.0625 -10.03125 C 22.0625 -10.09375 21.976562 -10.210938 21.8125 -10.390625 C 21.644531 -10.566406 21.519531 -10.675781 21.4375 -10.71875 C 21.375 -10.71875 21.320312 -10.726562 21.28125 -10.75 C 21.238281 -10.75 21.207031 -10.753906 21.1875 -10.765625 C 21.164062 -10.773438 21.144531 -10.78125 21.125 -10.78125 C 20.6875 -10.78125 20.273438 -10.601562 19.890625 -10.25 C 19.503906 -9.894531 19.144531 -9.445312 18.8125 -8.90625 C 18.476562 -8.363281 18.164062 -7.757812 17.875 -7.09375 C 17.582031 -6.425781 17.320312 -5.765625 17.09375 -5.109375 C 16.863281 -4.453125 16.660156 -3.847656 16.484375 -3.296875 C 16.304688 -2.742188 16.164062 -2.320312 16.0625 -2.03125 C 15.976562 -1.988281 15.8125 -1.953125 15.5625 -1.921875 C 15.3125 -1.890625 15.144531 -1.875 15.0625 -1.875 C 14.476562 -1.875 14.03125 -2.078125 13.71875 -2.484375 C 13.40625 -2.890625 13.148438 -3.394531 12.953125 -4 C 12.753906 -4.601562 12.585938 -5.265625 12.453125 -5.984375 C 12.316406 -6.703125 12.148438 -7.363281 11.953125 -7.96875 C 11.753906 -8.570312 11.484375 -9.078125 11.140625 -9.484375 C 10.796875 -9.890625 10.3125 -10.09375 9.6875 -10.09375 C 9.457031 -10.09375 9.238281 -9.863281 9.03125 -9.40625 C 8.820312 -8.945312 8.632812 -8.367188 8.46875 -7.671875 C 8.300781 -6.972656 8.144531 -6.222656 8 -5.421875 C 7.851562 -4.617188 7.734375 -3.867188 7.640625 -3.171875 C 7.546875 -2.472656 7.476562 -1.882812 7.4375 -1.40625 C 7.394531 -0.925781 7.375 -0.6875 7.375 -0.6875 C 7.332031 -0.625 7.25 -0.554688 7.125 -0.484375 C 7 -0.410156 6.867188 -0.332031 6.734375 -0.25 C 6.597656 -0.164062 6.460938 -0.101562 6.328125 -0.0625 C 6.191406 -0.0195312 6.09375 0 6.03125 0 C 5.445312 0 4.882812 -0.265625 4.34375 -0.796875 C 3.800781 -1.328125 3.304688 -2.015625 2.859375 -2.859375 C 2.410156 -3.703125 2.003906 -4.632812 1.640625 -5.65625 C 1.273438 -6.675781 0.96875 -7.675781 0.71875 -8.65625 C 0.46875 -9.632812 0.273438 -10.519531 0.140625 -11.3125 C 0.00390625 -12.101562 -0.0625 -12.707031 -0.0625 -13.125 Z M -0.0625 -13.125 "/></g></g></g><g fill="#ffffff" fill-opacity="1"><g transform="translate(120.105214, 74.93894)"><g><path d="M 0.625 -12.75 C 0.625 -12.875 0.628906 -13.097656 0.640625 -13.421875 C 0.648438 -13.742188 0.65625 -14.082031 0.65625 -14.4375 C 0.65625 -14.789062 0.660156 -15.117188 0.671875 -15.421875 C 0.679688 -15.722656 0.6875 -15.9375 0.6875 -16.0625 C 0.832031 -16.3125 1.003906 -16.554688 1.203125 -16.796875 C 1.398438 -17.035156 1.609375 -17.203125 1.828125 -17.296875 C 2.046875 -17.390625 2.285156 -17.40625 2.546875 -17.34375 C 2.804688 -17.28125 3.070312 -17.070312 3.34375 -16.71875 L 3.34375 -16.0625 C 3.320312 -15.957031 3.28125 -15.710938 3.21875 -15.328125 C 3.15625 -14.941406 3.082031 -14.519531 3 -14.0625 C 2.914062 -13.601562 2.835938 -13.179688 2.765625 -12.796875 C 2.691406 -12.410156 2.65625 -12.164062 2.65625 -12.0625 C 2.65625 -11.664062 2.695312 -11.171875 2.78125 -10.578125 C 2.863281 -9.984375 2.984375 -9.363281 3.140625 -8.71875 C 3.296875 -8.070312 3.492188 -7.425781 3.734375 -6.78125 C 3.972656 -6.132812 4.257812 -5.554688 4.59375 -5.046875 C 4.925781 -4.535156 5.296875 -4.113281 5.703125 -3.78125 C 6.109375 -3.445312 6.582031 -3.28125 7.125 -3.28125 C 7.789062 -3.28125 8.378906 -3.457031 8.890625 -3.8125 C 9.398438 -4.164062 9.84375 -4.625 10.21875 -5.1875 C 10.59375 -5.75 10.898438 -6.382812 11.140625 -7.09375 C 11.378906 -7.800781 11.570312 -8.515625 11.71875 -9.234375 C 11.863281 -9.953125 11.96875 -10.644531 12.03125 -11.3125 C 12.09375 -11.976562 12.125 -12.5625 12.125 -13.0625 C 12.125 -13.5625 12.085938 -14.035156 12.015625 -14.484375 C 11.941406 -14.929688 11.851562 -15.375 11.75 -15.8125 C 11.644531 -16.25 11.554688 -16.679688 11.484375 -17.109375 C 11.410156 -17.535156 11.375 -17.96875 11.375 -18.40625 C 11.375 -18.800781 11.515625 -19.082031 11.796875 -19.25 C 12.078125 -19.414062 12.394531 -19.5 12.75 -19.5 C 13.1875 -19.5 13.539062 -19.367188 13.8125 -19.109375 C 14.082031 -18.847656 14.296875 -18.519531 14.453125 -18.125 C 14.609375 -17.726562 14.710938 -17.273438 14.765625 -16.765625 C 14.816406 -16.253906 14.84375 -15.75 14.84375 -15.25 C 14.84375 -14.75 14.832031 -14.273438 14.8125 -13.828125 C 14.789062 -13.378906 14.78125 -13.019531 14.78125 -12.75 C 14.78125 -12.039062 14.726562 -11.238281 14.625 -10.34375 C 14.519531 -9.445312 14.335938 -8.523438 14.078125 -7.578125 C 13.816406 -6.628906 13.492188 -5.695312 13.109375 -4.78125 C 12.722656 -3.863281 12.253906 -3.046875 11.703125 -2.328125 C 11.148438 -1.609375 10.515625 -1.03125 9.796875 -0.59375 C 9.078125 -0.15625 8.269531 0.0625 7.375 0.0625 C 6.4375 0.0625 5.613281 -0.160156 4.90625 -0.609375 C 4.195312 -1.054688 3.597656 -1.648438 3.109375 -2.390625 C 2.617188 -3.128906 2.207031 -3.96875 1.875 -4.90625 C 1.539062 -5.84375 1.285156 -6.78125 1.109375 -7.71875 C 0.929688 -8.65625 0.804688 -9.566406 0.734375 -10.453125 C 0.660156 -11.335938 0.625 -12.101562 0.625 -12.75 Z M 0.625 -12.75 "/></g></g></g><g fill="#ffffff" fill-opacity="1"><g transform="translate(136.167466, 74.93894)"><g><path d="M 0.625 -13.125 C 0.625 -13.3125 0.632812 -13.503906 0.65625 -13.703125 C 0.675781 -13.898438 0.71875 -14.078125 0.78125 -14.234375 C 0.84375 -14.390625 0.941406 -14.519531 1.078125 -14.625 C 1.210938 -14.726562 1.40625 -14.78125 1.65625 -14.78125 C 1.863281 -14.78125 2.097656 -14.617188 2.359375 -14.296875 C 2.617188 -13.972656 2.882812 -13.566406 3.15625 -13.078125 C 3.425781 -12.585938 3.691406 -12.050781 3.953125 -11.46875 C 4.210938 -10.882812 4.441406 -10.347656 4.640625 -9.859375 C 4.835938 -9.367188 5 -8.945312 5.125 -8.59375 C 5.25 -8.238281 5.320312 -8.050781 5.34375 -8.03125 C 5.613281 -8.757812 5.914062 -9.550781 6.25 -10.40625 C 6.582031 -11.257812 6.992188 -12.054688 7.484375 -12.796875 C 7.972656 -13.535156 8.554688 -14.15625 9.234375 -14.65625 C 9.910156 -15.15625 10.738281 -15.40625 11.71875 -15.40625 C 12.21875 -15.40625 12.691406 -15.328125 13.140625 -15.171875 C 13.585938 -15.015625 13.984375 -14.785156 14.328125 -14.484375 C 14.671875 -14.179688 14.945312 -13.820312 15.15625 -13.40625 C 15.363281 -12.988281 15.46875 -12.507812 15.46875 -11.96875 C 15.46875 -11.507812 15.285156 -11.1875 14.921875 -11 C 14.554688 -10.8125 14.144531 -10.71875 13.6875 -10.71875 L 13.375 -10.71875 L 12.03125 -12.0625 C 11.988281 -12.0625 11.957031 -12.070312 11.9375 -12.09375 C 11.894531 -12.09375 11.859375 -12.097656 11.828125 -12.109375 C 11.796875 -12.117188 11.757812 -12.125 11.71875 -12.125 C 10.988281 -12.125 10.421875 -11.921875 10.015625 -11.515625 C 9.609375 -11.109375 9.300781 -10.609375 9.09375 -10.015625 C 8.882812 -9.421875 8.753906 -8.796875 8.703125 -8.140625 C 8.648438 -7.484375 8.625 -6.882812 8.625 -6.34375 C 8.625 -5.925781 8.664062 -5.503906 8.75 -5.078125 C 8.832031 -4.648438 8.925781 -4.234375 9.03125 -3.828125 C 9.132812 -3.421875 9.226562 -3.003906 9.3125 -2.578125 C 9.394531 -2.148438 9.4375 -1.707031 9.4375 -1.25 C 9.4375 -0.375 8.96875 0.0625 8.03125 0.0625 C 7.507812 0.0625 6.96875 -0.210938 6.40625 -0.765625 C 5.84375 -1.316406 5.285156 -2.019531 4.734375 -2.875 C 4.179688 -3.726562 3.65625 -4.671875 3.15625 -5.703125 C 2.65625 -6.734375 2.21875 -7.738281 1.84375 -8.71875 C 1.46875 -9.695312 1.171875 -10.582031 0.953125 -11.375 C 0.734375 -12.164062 0.625 -12.75 0.625 -13.125 Z M 0.625 -13.125 "/></g></g></g><g fill="#ffffff" fill-opacity="1"><g transform="translate(152.135968, 74.93894)"><g><path d="M 14.0625 -4.03125 C 13.269531 -3.488281 12.585938 -3.003906 12.015625 -2.578125 C 11.441406 -2.148438 10.882812 -1.789062 10.34375 -1.5 C 9.800781 -1.207031 9.222656 -0.988281 8.609375 -0.84375 C 7.992188 -0.695312 7.238281 -0.625 6.34375 -0.625 C 4.40625 -0.625 2.96875 -1.140625 2.03125 -2.171875 C 1.09375 -3.203125 0.625 -4.738281 0.625 -6.78125 C 0.625 -7.570312 0.726562 -8.394531 0.9375 -9.25 C 1.144531 -10.101562 1.453125 -10.953125 1.859375 -11.796875 C 2.265625 -12.640625 2.75 -13.441406 3.3125 -14.203125 C 3.875 -14.960938 4.507812 -15.632812 5.21875 -16.21875 C 5.925781 -16.800781 6.679688 -17.265625 7.484375 -17.609375 C 8.285156 -17.953125 9.132812 -18.125 10.03125 -18.125 C 11.53125 -17.976562 12.707031 -17.609375 13.5625 -17.015625 C 14.414062 -16.421875 15.0625 -15.660156 15.5 -14.734375 C 15.9375 -13.804688 16.238281 -12.773438 16.40625 -11.640625 C 16.570312 -10.503906 16.703125 -9.332031 16.796875 -8.125 C 16.890625 -6.914062 17.007812 -5.707031 17.15625 -4.5 C 17.300781 -3.289062 17.601562 -2.175781 18.0625 -1.15625 C 17.789062 -0.46875 17.535156 0.015625 17.296875 0.296875 C 17.054688 0.578125 16.789062 0.625 16.5 0.4375 C 16.207031 0.25 15.867188 -0.207031 15.484375 -0.9375 C 15.097656 -1.664062 14.625 -2.695312 14.0625 -4.03125 Z M 3.28125 -6.71875 C 3.28125 -5.53125 3.503906 -4.660156 3.953125 -4.109375 C 4.398438 -3.554688 5.195312 -3.28125 6.34375 -3.28125 C 7.195312 -3.28125 8.015625 -3.429688 8.796875 -3.734375 C 9.578125 -4.035156 10.257812 -4.453125 10.84375 -4.984375 C 11.425781 -5.515625 11.894531 -6.15625 12.25 -6.90625 C 12.601562 -7.65625 12.78125 -8.488281 12.78125 -9.40625 C 12.78125 -9.78125 12.789062 -10.304688 12.8125 -10.984375 C 12.832031 -11.660156 12.789062 -12.332031 12.6875 -13 C 12.582031 -13.664062 12.382812 -14.242188 12.09375 -14.734375 C 11.800781 -15.222656 11.363281 -15.46875 10.78125 -15.46875 C 9.695312 -15.46875 8.695312 -15.191406 7.78125 -14.640625 C 6.863281 -14.085938 6.070312 -13.382812 5.40625 -12.53125 C 4.738281 -11.675781 4.21875 -10.734375 3.84375 -9.703125 C 3.46875 -8.671875 3.28125 -7.675781 3.28125 -6.71875 Z M 3.28125 -6.71875 "/></g></g></g></svg>